<?xml version="1.0" encoding="UTF-8"?>
<!DOCTYPE svg  PUBLIC '-//W3C//DTD SVG 20010904//EN'  'http://www.w3.org/TR/2001/REC-SVG-20010904/DTD/svg10.dtd'>
<svg width="500pt" height="500pt" version="1.0" viewBox="0 0 500 500" xmlns="http://www.w3.org/2000/svg">
 <metadata>Created by potrace 1.16, written by Peter Selinger 2001-2019</metadata>
 <g transform="translate(0 500) scale(.1 -.1)">
  <path d="m562 2633c-41-16-32-83 12-83 23 0 24-4 28-81 3-66 7-83 23-95 50-37 75-5 75 97 0 76 1 79 23 79 44 0 62 43 31 74-12 12-35 16-97 15-45 0-88-3-95-6z"/>
  <path d="m892 2620c-66-41-88-113-54-180 66-132 267-87 267 60 0 107-121 176-213 120zm99-80c12-7 19-21 19-40 0-51-58-68-86-25-15 23-15 27 0 50 18 27 36 31 67 15z"/>
  <path d="m1208 2629c-16-9-18-26-18-129 0-108 2-120 19-130 11-5 24-10 30-10 20 0 41 32 41 64 0 30 2 32 35 32s35-2 35-33c0-42 37-71 69-53 19 10 21 20 21 130s-2 120-20 130c-28 15-52 6-79-30l-22-30-33 35c-35 37-49 41-78 24z"/>
  <path d="m1567 2622c-14-15-17-40-17-125 0-102 1-107 24-122 35-23 64-5 72 43 5 34 8 37 40 38 32 0 34-2 34-32 0-34 21-64 45-64 7 0 21 7 29 16 23 23 23 225 0 248-23 24-42 20-79-17l-33-33-36 33c-41 38-56 41-79 15z"/>
  <path d="m1902 2628c-20-20-14-46 23-94 30-39 35-53 35-99 0-45 4-56 21-65 16-9 26-8 45 5 20 13 24 23 24 66s6 59 35 99c40 54 43 75 16 90-28 15-36 13-70-15l-30-26-25 26c-27 27-55 32-74 13z"/>
  <path d="m2228 2629c-12-6-18-22-18-44v-34l93-3 92-3v-45-45l-92-3-93-3v-29c0-55 15-60 186-60 88 0 164 4 175 10 17 10 19 22 19 130s-2 120-19 130c-25 13-320 13-343-1z"/>
  <path d="m2716 2618c-12-16-16-47-16-114 0-103 4-120 31-135 29-15 57 5 65 46 5 28 11 35 30 35 20 0 24-5 24-29 0-31 22-61 45-61 7 0 21 7 29 16 23 23 23 225 0 248-31 32-74 6-74-45 0-24-4-29-24-29-19 0-25 7-30 35-10 53-54 71-80 33z"/>
  <path d="m3020 2620c-17-17-20-33-20-120s3-103 20-120c11-11 25-20 30-20 6 0 19 9 30 20 17 17 20 33 20 120s-3 103-20 120c-11 11-24 20-30 20-5 0-19-9-30-20z"/>
  <path d="m3178 2629c-16-9-18-26-18-129 0-137 2-140 90-140 66 0 90 13 90 49 0 31-14 41-61 41h-29v79c0 100-22 130-72 100z"/>
  <path d="m3388 2629c-16-9-18-26-18-129 0-108 2-120 19-130 11-5 24-10 30-10 20 0 41 33 41 66 0 31 3 34 28 34 33 0 52 16 52 45 0 12-5 26-12 33-9 9-9 15 0 24 18 18 14 56-7 68-25 13-111 13-133-1z"/>
  <path d="m3608 2629c-16-9-18-26-18-129 0-110 2-120 21-130 16-9 26-8 45 5 23 15 24 20 24 124 0 92-3 110-18 124-21 19-30 20-54 6z"/>
  <path d="m3791 2623c-99-52-105-178-12-240 61-41 173-22 187 32 9 37-2 95-22 109-15 12-16 13 0 19 22 9 20 50-4 72-29 26-107 30-149 8zm99-83c12-8 9-10-12-10-30 0-54-31-44-57 4-9 1-13-6-11-7 3-15 17-16 33-5 44 40 70 78 45z"/>
  <path d="m4036 2624c-13-12-16-39-16-124 0-132 5-140 89-140 31 0 65 6 75 13 25 18 17 58-14 74-18 9-20 13-8 13 25 0 41 35 28 60-6 11-15 20-20 20-6 0-1 9 10 20 45 45 13 80-70 80-40 0-64-5-74-16z"/>
  <path d="m4257 2625c-14-13-17-37-17-125 0-104 1-110 24-125 28-19 54-10 66 21l9 23 31-30c19-19 36-29 46-25 9 3 19 6 24 6 21 0 20 41-3 77-20 32-24 48-20 88 4 44 2 53-21 74-33 31-115 41-139 16z"/>
 </g>
</svg>
