<?xml version="1.0" encoding="UTF-8"?>
<!DOCTYPE svg  PUBLIC '-//W3C//DTD SVG 20010904//EN'  'http://www.w3.org/TR/2001/REC-SVG-20010904/DTD/svg10.dtd'>
<svg width="500pt" height="500pt" version="1.0" viewBox="0 0 500 500" xmlns="http://www.w3.org/2000/svg">
 <metadata>Created by potrace 1.16, written by Peter Selinger 2001-2019</metadata>
 <g transform="translate(0 500) scale(.1 -.1)">
  <path d="m2661 3711c-11-11-27-33-35-50-9-16-30-38-47-48s-40-36-50-58c-11-22-30-55-44-73-21-30-23-37-12-62 7-16 39-52 71-81l60-51 59 6c55 7 87-2 87-24 0-4-39-7-87-7-97 1-159-19-201-65-51-56-44-134 17-175s141-23 141 31c0 22 6 20 117-29 144-63 255-66 331-8l34 25 56-54c166-160 282-211 517-227 126-8 170-23 231-75 31-25 43-47 123-216 57-121 152-245 251-329l65-55 7-70c11-107 27-164 56-198 49-58 140-77 166-35 7 12 16 62 20 112 5 84 4 93-19 130-13 22-25 55-25 73 0 49-24 96-64 127-62 47-73 76-79 210-7 147-30 261-67 340l-28 59 61 61c55 53 69 76 120 190 98 219 145 274 307 360 100 53 136 92 147 159 5 32 2 40-31 72-20 19-36 39-36 44 0 6-19 10-43 10-82 0-217-103-297-225-21-33-68-128-105-211-51-117-77-164-116-208-88-98-164-127-280-106-129 23-260 100-439 254-278 240-476 363-650 402-62 14-74 21-93 50-28 44-52 51-86 26-26-19-27-19-50-1-29 24-36 24-60 0z"/>
  <path d="m66 2484c-14-14-16-82-16-599s2-585 16-599c22-22 320-24 350-2 17 13 19 29 22 145l4 131h149c163 0 196 7 239 55l25 27 3 381c2 369 2 383-18 415-37 60-53 62-424 62-291 0-337-2-350-16zm409-449c0-239-1-260-17-263-17-3-18 15-18 263s1 266 18 263c16-3 17-24 17-263z"/>
  <path d="m928 2489c-17-9-18-47-18-567 0-535 1-558 20-589 37-61 47-63 387-63 337 0 341 1 380 59l23 34v558c0 542-1 559-19 569-11 5-86 10-171 10s-160-5-171-10c-18-10-19-27-19-504 0-416-2-495-14-505-33-27-36 19-36 513 0 470-1 486-19 496-25 13-320 13-343-1z"/>
  <path d="m1843 2484c-18-9-42-31-53-49-19-31-20-49-20-588 0-540 1-557 19-567 11-5 86-10 171-10s160 5 171 10c18 10 19 27 19 504 0 397 3 496 13 505 35 28 37-2 37-506 0-476 1-493 19-503 26-13 316-13 342 0 18 10 19 27 19 504 0 397 3 496 13 505 35 28 37-2 37-506 0-476 1-493 19-503 26-13 316-13 342 0 18 10 19 27 19 561 0 602 1 591-58 634-26 19-45 20-552 22-466 3-529 1-557-13z"/>
  <path d="m3133 2485c-18-7-42-29-53-47-19-32-20-49-20-590s1-558 19-568c11-5 86-10 171-10s160 5 171 10c17 10 19 22 19 146 0 135 0 135 23 132 21-3 22-7 25-133 2-108 5-132 19-142 21-16 315-18 344-3 18 10 19 27 19 561 0 595 2 576-55 629l-27 25-311 2c-252 2-318 0-344-12zm346-199c8-9 11-87 9-262-3-241-4-249-23-249s-20 8-23 250c-1 137 0 255 3 262 6 17 20 16 34-1z"/>
  <path d="m3993 1591c-52-32-83-87-83-149 0-61 17-99 60-136 96-80 238-36 274 85 13 43 13 55 1 97-16 52-53 94-98 111s-118 13-154-8z"/>
 </g>
</svg>
