<?xml version="1.0" encoding="UTF-8"?>
<!DOCTYPE svg  PUBLIC '-//W3C//DTD SVG 20010904//EN'  'http://www.w3.org/TR/2001/REC-SVG-20010904/DTD/svg10.dtd'>
<svg width="500pt" height="500pt" version="1.0" viewBox="0 0 500 500" xmlns="http://www.w3.org/2000/svg">
 <metadata>Created by potrace 1.16, written by Peter Selinger 2001-2019</metadata>
 <g transform="translate(0 500) scale(.1 -.1)">
  <path d="m680 3016c-226-48-388-259-389-506-2-309 195-510 499-510 96 0 166 16 285 63 56 23 83 39 92 57 8 16 13 70 13 151 0 136 5 149 53 149 15 0 37 5 48 10 25 14 25 56 0 70-12 6-98 10-210 10-159 0-192-3-205-16-33-33-6-74 49-74s65-19 64-123c0-113-13-154-58-184-29-19-47-23-118-23-90 0-118 9-185 62-41 32-90 123-113 208-24 89-19 228 10 315 59 178 152 259 295 260 64 0 82-4 128-29 63-35 112-87 146-155 31-60 61-84 88-70 16 9 18 23 17 127-2 135-7 171-30 185-13 8-24 5-48-16l-31-26-48 24c-56 28-182 55-249 54-26 0-73-6-103-13z"/>
  <path d="m1332 3004c-46-32-17-74 50-74 19 0 39-5 46-12 9-9 12-96 12-328 0-336 5-381 52-458 50-82 176-133 335-133 217-1 330 72 370 240 9 40 13 144 13 354 0 186 4 306 10 318 8 14 21 19 53 19 48 0 67 13 67 47 0 36-30 43-172 43-105 0-138-3-156-16-43-30-15-74 47-74 21 0 44-6 50-14 9-11 11-101 9-338l-3-324-26-49c-38-75-90-107-183-113-96-6-133 2-188 38-82 54-83 59-86 436-3 372-5 364 67 364 20 0 42 5 49 12 18 18 14 56-7 68-12 6-96 10-203 10-150 0-188-3-206-16z"/>
  <path d="m2396 3008c-22-12-20-55 3-68 11-5 33-10 50-10 62 0 61 7 61-411 0-243-4-387-10-400-7-12-21-19-40-19-50 0-80-17-80-44 0-15 8-30 19-36 25-13 770-14 805 0 29 11 40 42 61 178 16 108 9 145-28 140-16-2-31-22-58-78-41-84-89-133-146-149-21-6-97-11-170-11-107 0-135 3-148 16-13 14-15 41-13 182l3 167 81 3c101 3 120-9 149-99 15-49 25-65 41-67 43-6 49 18 49 218 0 196-5 220-46 220-23 0-27-8-48-83-20-77-37-87-148-87h-83v169c0 135 3 171 14 181 11 8 56 11 155 8 160-3 167-7 223-106 37-65 63-85 91-70 18 9 19 17 14 77-9 100-32 165-62 179-32 15-713 15-739 0z"/>
  <path d="m3611 3005c-72-20-153-82-179-137-28-58-37-143-22-207 25-104 96-167 280-247 167-72 212-121 190-203-22-84-76-121-175-121-112 0-176 47-224 165-30 76-51 96-78 79-15-9-19-28-21-100-4-124 8-198 32-202 10-2 29 2 42 8 20 11 35 9 103-14 182-60 366-12 445 117 26 42 30 61 34 137s1 95-18 134c-38 80-81 109-339 227-42 19-86 49-103 68-27 30-30 40-26 81 9 87 69 140 160 140 78 0 146-64 188-179 19-51 42-81 61-81 4 0 15 7 23 16 13 12 16 37 15 117 0 126-9 177-31 191-14 9-23 6-44-16l-27-26-54 30c-66 37-151 45-232 23z"/>
  <path d="m4377 3009c-78-18-160-78-192-139-24-46-35-136-25-193 22-113 95-183 272-257 122-53 174-86 193-126 20-43 19-70-5-119-29-59-79-85-167-85-59 0-76 4-116 30-53 33-77 68-109 153-22 62-53 82-84 56-14-12-16-31-10-144 8-151 16-166 70-147 30 11 42 10 98-10 50-18 84-23 168-23 96 0 110 3 163 30 129 64 187 185 157 328-9 44-21 67-57 107-44 50-95 79-293 168-36 16-79 41-97 56-59 50-54 132 13 197 33 32 39 34 102 34 55 0 73-4 97-23 39-31 68-76 99-152 34-84 51-95 86-60 18 18 19 29 14 142-8 162-31 200-84 143l-23-24-29 21c-61 43-155 57-241 37z"/>
 </g>
</svg>
