<?xml version="1.0" encoding="UTF-8"?>
<!DOCTYPE svg  PUBLIC '-//W3C//DTD SVG 20010904//EN'  'http://www.w3.org/TR/2001/REC-SVG-20010904/DTD/svg10.dtd'>
<svg width="500pt" height="500pt" version="1.0" viewBox="0 0 500 500" xmlns="http://www.w3.org/2000/svg">
 <metadata>Created by potrace 1.16, written by Peter Selinger 2001-2019</metadata>
 <g transform="translate(0 500) scale(.1 -.1)">
  <path d="m2397 3920c-256-171-589-273-970-295-99-6-119-10-127-26-13-24-13-335 0-360 6-10 20-19 31-19 30 0 74-26 93-54 9-14 16-28 16-31s-166-5-368-5c-273 0-371-3-380-12-17-17-17-949 0-966 9-9 100-12 350-12 201 0 338-4 338-9 0-19-52-49-114-66-36-10-67-24-71-33-8-21 36-65 200-197 382-307 681-491 927-571 122-40 248-39 375 4 248 84 623 323 992 632 146 123 150 134 52 163-73 21-111 43-111 63 0 12 56 14 335 14 320 0 335 1 345 19 14 27 14 925 0 952-10 18-25 19-375 19-302 0-365 2-365 14 0 20 50 66 79 72 57 12 56 8 59 199 1 112-1 182-8 190-6 8-53 15-123 19-383 24-731 131-980 302-43 30-86 54-95 54s-57-27-105-60zm180-114c237-152 528-243 893-279l125-12 6-204-29-15c-46-24-101-92-114-141-11-42-15-45-45-45-39 0-41 12-16 85 11 32 36 69 75 109 52 54 58 65 58 102 0 47-9 54-70 54-65 0-336 50-443 81-180 53-371 135-477 205l-38 25-58-37c-122-78-312-155-505-204-98-25-360-70-409-70-45 0-60-15-60-60 0-30 8-43 50-83 56-53 86-106 96-166l7-41h-35c-32 0-36 3-42 32-11 55-54 116-102 144l-45 26 3 102 3 101 130 12c353 34 667 132 890 277 39 25 73 46 77 46s38-20 75-44zm-2-166c72-40 85-54 85-90 0-30-16-32-59-10-22 11-43 20-45 20-3 0-7-100-8-222l-3-223h-40-40l-3 223c-1 142-6 222-13 222-5 0-27-9-49-20s-42-20-45-20c-11 0-5 70 8 80 11 10 127 78 136 79 2 1 36-17 76-39zm-251-99c15-17 17-40 14-206-4-230-1-225-139-225-135 0-143 12-137 219 4 154 4 156 118 200 89 35 121 38 144 12zm516-14c61-23 88-40 97-57 8-17 13-74 13-166 0-128-2-144-21-168-19-25-25-26-112-26-79 0-94 3-114 22-22 21-23 26-23 213 0 135 4 195 12 203 20 20 59 14 148-21zm-832-241 2-177-37 3-38 3-3 58c-2 31-6 57-11 57-4 0-17-22-28-50-12-27-25-50-30-50s-20 22-33 50c-13 27-27 47-32 44-4-3-8-30-8-60v-54h-35-35v149 149l30 7c39 9 52-3 79-65 12-28 26-50 31-50 6 0 21 26 35 58 14 31 29 64 33 72 11 18 53 41 67 37 6-2 11-74 13-181zm1170 147c102-22 123-42 123-117 0-32-4-63-10-69s-7-17-2-26c9-17 14-51 12-88-1-19-7-23-35-23-33 0-35 2-38 37-4 45-40 69-88 58-25-5-30-12-30-35 0-48-9-60-46-60h-34v176 176l38-6c20-4 70-14 110-23zm1020-805 2-368h-1700-1700v363c0 200 3 367 7 370 3 4 767 6 1697 5l1691-3 3-367zm-2598-495c0-34-31-103-53-122-10-7-17-20-17-27 0-29 314-263 518-387 350-212 483-225 773-76 164 84 522 330 632 435 28 26 28 26 9 48-27 29-49 75-57 119l-7 37h39c38 0 40-2 52-40 11-38 56-92 96-117 19-12 17-16-40-69-148-139-482-367-693-473-214-107-313-132-430-106-145 32-345 132-584 291-179 118-428 315-428 338 0 5 20 26 44 47 26 23 50 55 57 77 16 52 16 52 55 52 31 0 34-3 34-27zm318-10-3-38-140-10-3-57c-3-62-9-56 148-180 39-32 56-52 58-72 2-16 0-32-5-37-4-4-69 38-143 94l-135 102-3 97c-4 139-5 138 124 138h105l-3-37zm159-20c11-31 24-58 31-61 6-2 25 24 42 57 28 57 33 61 65 61 19 0 35-2 35-4 0-3-25-59-55-125l-55-120v-146c0-80-2-145-5-145-19 0-65 33-70 50-3 10-5 75-4 142 2 119 1 126-35 221-20 54-36 105-36 112 0 10 11 15 34 15 33 0 35-3 53-57zm393 17v-40h-45c-40 0-47-3-55-26-12-31-13-404-1-423 5-7 31-25 57-40 46-24 49-29 52-68 2-29-1-43-9-43-7 0-49 18-95 40-58 28-83 46-88 62-3 13-6 135-6 271v249l29 29c27 26 36 29 95 29h66v-40zm160-228c0-148 3-271 6-275 4-3 22 0 41 8 43 18 53 13 53-26 0-28-6-33-82-69-60-28-86-36-95-28-10 8-13 84-13 328 0 174 3 320 7 323 3 4 24 7 45 7h38v-268zm330 228v-39l-57-3-58-3-3-62-3-63h30c47 0 61-10 61-40 0-27-3-29-42-32l-43-3-3-82c-3-92-1-94 62-68 32 14 37 14 42 1 13-33-3-52-74-89-59-31-76-36-88-27-11 10-14 57-14 265 0 140 3 260 6 269 5 13 23 16 95 16h89v-40zm324 24c4-9 4-25 1-35-6-17-17-19-90-19-103 0-115-4-115-41 0-34 11-38 125-41l80-3 3-47c2-26-2-56-7-67-11-20-249-171-269-171-7 0-12 11-12 25 0 20 18 37 103 92 56 38 103 76 105 86 3 15-6 17-78 17-117 0-120 3-120 105 0 111 5 115 156 115 94 0 113-3 118-16z"/>
  <path d="m2180 3443-35-18v-115-115h55 55v130c0 122-1 130-20 133-11 1-36-6-55-15z"/>
  <path d="m2762 3328 3-133h50 50l6 232-35 17c-19 9-44 16-55 16-21 0-22-3-19-132z"/>
  <path d="m3112 3329 3-44 46-3c51-3 75 14 64 47-6 21-16 26-78 37l-38 6 3-43z"/>
  <path d="m872 2952c-9-7-12-78-10-323l3-314 1634-3c1301-2 1636 0 1643 10 13 22 10 612-4 626-9 9-385 12-1633 12-891 0-1626-4-1633-8zm166-169c2-82 5-93 23-98 37-12 48 11 51 103 3 85 3 87 28 87h25l3-237 2-238h-30-30v88c0 100-15 136-47 116-15-9-18-27-21-108l-3-96h-29-30v233c0 129 3 237 7 241s16 6 28 4c18-3 20-11 23-95zm308 89c6-4 14-32 17-62 4-30 16-133 27-228s20-175 20-178-15-4-32-2c-27 2-34 8-36 28-9 84-12 91-40 88-25-3-28-8-36-60-8-55-10-58-37-58-16 0-29 2-29 4 0 3 9 83 20 178s23 198 27 228c7 61 14 70 58 70 17 0 35-4 41-8zm275-21c22-28 26-125 7-178-10-27-10-38 0-53 7-12 12-59 12-120v-101l-32 3-33 3-3 87c-3 89-15 117-46 105-12-5-16-28-18-99l-3-93h-30-30l-3 224c-2 165 1 227 10 238s29 14 81 11c58-3 73-8 88-27zm129-176 5-200 33-3c29-3 32-6 32-38v-34h-65-65v233c0 129 3 237 7 241s16 6 28 4c19-3 20-11 25-203zm238 196c8-4 12-19 10-32-2-17-10-25-30-27-38-5-50-24-46-79 3-46 4-48 36-51 31-3 33-6 30-35-2-27-8-33-33-37-30-5-30-6-30-70v-65l35-5c31-4 35-8 35-35v-30l-67-3-68-3v234c0 128 3 237 7 240 9 10 106 8 121-2zm98 1c6-4 17-34 25-67s19-60 24-60c6 0 17 27 26 60 16 63 40 88 61 67 9-9 5-37-17-129-19-77-31-156-35-228l-5-110h-30-30l-6 105c-4 69-17 148-37 229-18 68-29 127-26 132 6 11 35 12 50 1zm466-22c23-28 31-104 27-263-4-127-5-137-28-161-21-23-33-26-87-26-47 0-63 4-68 16-11 29-7 424 5 446 10 18 18 20 72 15 46-4 66-11 79-27zm203 18c5-13 55-430 55-456 0-9-11-12-32-10-32 3-33 4-38 58-5 51-7 55-33 58-30 4-32 0-42-70-5-42-9-48-30-48-13 0-26 3-28 8-8 12 45 446 56 460 5 6 27 12 49 12s41-5 43-12zm102 0c6-7 15-60 22-118 17-159 27-154 47 25 4 33 10 70 15 83 10 25 46 30 55 8 6-15-51-441-61-457-7-11-62-12-69-1-9 15-67 444-62 458 7 17 40 18 53 2zm231 4c9-7 12-61 10-238l-3-229h-30-30l-3 229c-2 231 0 246 33 246 6 0 16-4 23-8zm216-21c19-20 21-34 24-193 2-94 1-182-2-194-12-46-44-64-113-64h-63v233c0 129 3 237 8 241 4 5 34 6 66 3 42-4 65-12 80-26zm233 7c19-18 23-32 23-80 0-57 0-58-29-58-31 0-41 14-41 61 0 24-4 29-24 29-26 0-36-16-36-59 0-22 15-42 65-88l65-60v-80c0-107-15-128-93-128-80 0-97 19-97 107v68h30c28 0 30-2 30-39 0-55 8-71 36-71 22 0 24 4 24 54 0 54 0 54-60 106l-60 52v84c0 71 3 87 20 104 29 29 115 28 147-2zm232 3c29-29 33-69 29-255-3-157-4-167-26-188-18-18-34-23-78-23-47 0-59 4-75 24-17 21-19 41-19 219 0 187 1 197 22 219 29 31 118 33 147 4zm148 7c6-7 16-44 23-83 19-105 29-112 30-19 0 87 13 119 46 112 18-3 19-15 22-241l2-237h-40c-43 0-39-7-60 95-6 28-16 68-23 90-11 38-12 35-17-70l-5-110h-30-30l-3 229c-2 177 1 231 10 238 20 12 64 10 75-4zm-1572-228c0-23-4-25-56-28-59-3-76 9-62 43 4 12 18 15 62 13 52-3 56-5 56-28z"/>
  <path d="m1296 2720c-3-14-7-45-8-70-2-34 1-45 12-45 19 0 24 45 12 100-8 36-10 38-16 15z"/>
  <path d="m1523 2813c-9-3-13-28-13-74 0-60 2-69 18-69 30 0 42 22 42 77 0 53-17 77-47 66z"/>
  <path d="m2462 2638c3-155 4-163 23-163s20 7 20 160c0 159 0 160-23 163l-23 3 3-163z"/>
  <path d="m2697 2725c-6-29-10-86-8-112 1-7 8-13 16-13 12 0 15 12 14 53-1 28-4 63-8 77l-8 25-6-30z"/>
  <path d="m3215 2788c-3-8-4-81-3-163 3-142 4-150 23-150s20 7 20 160c0 144-2 160-18 163-9 2-19-3-22-10z"/>
  <path d="m3672 2798c-14-14-17-295-3-316 4-8 19-12 32-10 24 3 24 4 27 148 1 80 0 155-3 168-6 24-34 29-53 10z"/>
 </g>
</svg>
