<?xml version="1.0" encoding="UTF-8"?>
<!DOCTYPE svg  PUBLIC '-//W3C//DTD SVG 20010904//EN'  'http://www.w3.org/TR/2001/REC-SVG-20010904/DTD/svg10.dtd'>
<svg width="500pt" height="500pt" version="1.0" viewBox="0 0 500 500" xmlns="http://www.w3.org/2000/svg">
 <metadata>Created by potrace 1.16, written by Peter Selinger 2001-2019</metadata>
 <g transform="translate(0 500) scale(.1 -.1)">
  <path d="m2880 4120c-27-24-44-30-81-30-32 0-55-7-73-21-19-15-34-19-56-14s-40 1-66-16c-33-20-39-21-75-9-42 14-46 13-157-49-17-9-27-10-35-2-19 19-73 12-111-14-29-19-41-23-56-15-31 17-60 12-116-21l-53-30-30 22-29 22-65-36c-55-31-69-35-96-27-36 10-60 3-120-34l-40-26-37 25c-46 31-70 31-116 0-29-20-50-25-95-25s-70-7-113-30c-32-17-71-29-92-30-53 0-80-13-141-68-39-35-65-51-95-55-29-5-47-16-66-39-47-60-56-68-80-68-28 0-71-46-81-87-4-17-22-39-46-56-22-15-47-42-54-60-8-18-28-52-45-77-16-25-33-61-36-80s-14-58-25-87c-10-29-19-76-19-105 0-144-9-269-24-321-9-32-16-95-16-142 0-75 3-91 31-142 39-76 89-123 129-123 37 0 37-9 3-63-50-78-31-141 76-251 71-74 98-82 128-40l19 26 42-21c65-33 80-29 104 29 11 28 24 50 29 50s24-8 43-17c29-13 40-14 61-5 21 10 25 18 25 55 0 31 6 49 20 62 11 10 20 29 20 42 0 22 1 23 24 8s150-30 349-42c82-5 90-3 120 20l33 25 1-34c1-51 26-80 85-102 51-19 52-20 63-73 27-134 111-200 163-129 27 36 32 37 70 5 17-14 36-25 44-25 21 0 48 33 48 57 0 32 11 34 42 8 40-34 65-31 104 10 29 31 38 35 67 30 25-5 37-2 51 14 27 30 19 155-14 200-12 18-20 34-17 37s54 8 113 11c80 4 130 1 186-11 85-18 296-21 363-6 157 35 357 91 373 103 8 6 11 20 7 34-6 27-9 27 84 8 40-9 168-20 285-25 116-6 247-15 291-21s123-9 175-6c79 3 106 9 161 34 83 38 109 70 109 133 0 42-5 52-37 85-33 32-43 36-75 32-38-5-100 11-120 31-7 7-22 12-34 12s-27 7-34 15-25 15-41 15c-15 0-31 5-34 10-3 6-16 10-28 10-14 0-28 11-40 31-15 28-22 31-50 26-26-4-36-1-46 15s-19 19-44 14c-18-4-36-6-42-6-5 1-36 2-67 4-64 3-81 13-109 69-19 36-19 40-4 57 12 14 26 17 51 13 21-3 40-1 50 7 17 15 112 21 120 8 10-15 53-8 66 11 10 14 18 17 28 10 27-16 51-9 68 21 12 22 24 30 44 30 18 0 33 8 44 25 11 16 26 25 43 25 31 0 51 16 51 43 0 10 4 16 9 12 5-3 42-2 82 1 53 5 73 11 76 23 3 9 19 25 36 36 44 28 50 88 13 132-58 69-150 80-307 37-51-14-125-32-162-39-38-8-120-28-182-45-63-16-118-30-123-30s-7 11-4 25c10 52-51 76-137 54-43-11-55-10-93 4-77 30-150 16-243-44-32-21-56-27-120-31-56-3-93-11-124-27-52-27-107-24-162 8-37 21-99 39-224 66-44 9-102 23-130 32-74 22-143 35-210 38-298 15-347 15-375 0-16-8-55-15-87-15-32-1-76-7-98-15s-58-15-80-15-51-7-65-15-47-15-75-15c-27 0-70-9-94-20-28-13-65-20-104-20-33 0-87-5-119-12-31-7-61-9-64-5-12 11 45 65 121 116 190 127 378 195 710 256 229 42 528 140 670 220 64 36 241 204 279 264 20 32 56 123 56 142 0 14-31 39-48 39-9-1-33-14-52-30z"/>
  <path d="m1812 1660c-72-26-143-80-185-142-54-78-69-129-71-236l-1-94-13 44c-7 23-28 95-47 158-60 207-66 223-95 252-27 27-32 28-125 28-146 0-154-7-204-180-54-184-64-217-76-255-7-22-22-68-32-101l-18-61-31 23c-26 20-42 24-107 24h-76l-6 502-30 24c-25 20-42 24-93 24-80 0-118-20-132-70-13-47-13-604 0-651 18-64 36-69 238-69 161 0 182 2 203 19 24 19 25 19 48 0 18-14 39-19 90-19 79 0 112 22 130 88l12 42h78 79l11-44c16-65 48-86 131-86 108 0 148 48 116 141-23 64-20 69 12 18 38-59 103-116 166-145 74-34 201-34 279 1 66 29 137 89 137 116 0 15 13 7 53-34 76-76 132-100 240-105 66-3 99 0 137 14 141 51 238 188 256 361l7 61 25-29c22-26 139-90 245-133 52-21 48-50-8-54-34-2-47 3-89 38-67 56-95 54-157-9-67-66-66-89 6-157 42-40 70-57 122-73 222-70 413 36 413 229 0 119-51 184-199 252-118 55-116 53-120 73-3 15 2 17 32 12 20-3 53-17 74-31 55-38 93-34 138 13l37 38 25-23c22-20 36-24 89-24h64v-246-246l29-29c27-27 35-29 103-29 59 1 78 5 98 21l25 21 5 252 5 251 59 3c32 2 69 10 82 19l24 15v-252c0-261 3-279 44-312 18-15 47-18 227-18 205 0 206 0 233 25 23 22 26 31 26 94 0 65-2 71-31 95s-37 26-135 26c-86 0-104 3-104 15s14 15 63 15c84 0 128 22 146 75 16 48 9 103-18 137-17 20-31 24-103 28-65 4-83 8-83 20s20 16 106 18c97 2 109 5 133 27 23 21 26 32 26 89 0 123-7 126-260 126-152 0-197-3-220-15-17-9-30-20-30-25s-16 2-36 15c-37 25-38 25-285 25h-247l-31-26c-17-14-31-33-31-41 0-12-6-11-32 7-81 53-118 64-228 64-99 1-108-1-160-30-64-36-114-101-124-164l-7-42-38 58c-46 73-98 119-171 153-47 22-69 26-145 26-83 0-95-3-153-34-35-19-82-56-106-82l-42-47-10 31c-6 20-26 43-56 65-99 70-221 90-326 52zm354-226c-8-16-20-63-27-104-11-67-10-83 8-150 11-41 23-84 28-95 5-12-10-3-38 24-53 51-82 55-127 17-46-38-112-37-150 4-30 32-40 67-40 140 0 75 10 109 45 146 41 43 75 44 138 4s85-38 132 10c21 22 40 38 42 36 2-1-3-16-11-32zm394-4c37-26 52-74 52-165-1-107-36-165-102-165s-103 60-103 170c0 88 21 143 62 165 36 20 58 18 91-5zm-1275-172c6-24 4-28-15-28-18 0-21 4-16 23 3 12 6 29 6 37 0 21 17 0 25-32z"/>
 </g>
</svg>
