<?xml version="1.0" encoding="UTF-8"?>
<!DOCTYPE svg  PUBLIC '-//W3C//DTD SVG 20010904//EN'  'http://www.w3.org/TR/2001/REC-SVG-20010904/DTD/svg10.dtd'>
<svg width="500pt" height="500pt" version="1.0" viewBox="0 0 500 500" xmlns="http://www.w3.org/2000/svg">
 <metadata>Created by potrace 1.16, written by Peter Selinger 2001-2019</metadata>
 <g transform="translate(0 500) scale(.1 -.1)">
  <path d="m1284 2766c-50-23-82-56-106-112-12-28-13-26-16 36-2 35-8 70-14 77-13 16-62 17-89 3-18-10-19-23-19-194 0-207 1-209 72-204l43 3 10 140 25-45c54-96 177-137 273-91 42 20 86 65 100 101 3 8 6-4 6-28 1-66 14-82 64-82 24 0 48 5 55 12s12 38 12 70v58h50 50v-54c0-36 5-60 16-70 17-18 71-21 94-6 9 5 19 5 26-1s32-9 56-7c38 3 45 7 63 40 19 36 23 38 67 38 45 0 49-2 65-37l18-38 194-3c134-2 198 1 207 9 17 14 18 81 2 97-7 7-43 12-90 12-45 0-78 4-78 10s33 10 78 10c89 0 102 8 102 61 0 57-19 69-108 71l-77 1 83 6c92 7 102 14 102 72 0 55-10 59-150 59-85 0-130-4-138-12s-12-60-12-167c0-93-4-151-9-145-5 5-32 67-60 138-57 143-69 168-85 178-21 14-83 8-98-9-9-10-42-85-74-166l-59-149-5 156c-5 171-7 176-67 176-47 0-63-22-63-86v-54h-50-50v60c0 66-12 80-69 80-43 0-61-23-61-78v-47l-19 30c-60 98-164 129-267 81zm146-130c28-30 64-39 108-27l32 10v-55c0-50-1-54-16-40-21 22-76 20-105-3-50-38-66-42-103-27-40 16-56 42-56 86 0 71 91 107 140 56z"/>
  <path d="m3565 2774c-50-19-111-77-126-122-7-20-9-65-7-103 3-38 4-69 2-69-6 0-84 116-84 125 0 6 25 35 55 65 79 78 74 110-16 110-33 0-48-7-88-45-26-25-51-45-55-45-3 0-6 15-6 33s-5 38-12 45c-16 16-80 16-96 0-17-17-17-369 0-386 16-16 80-16 96 0 7 7 12 36 12 64 0 29 4 55 8 58 4 2 30-26 57-62 49-66 51-67 101-70 59-3 83 13 65 47-19 35-12 36 22 3 87-85 209-82 300 6 106 103 61 296-82 347-53 18-93 18-146-1zm136-143c45-46 33-107-26-135-42-20-90-5-110 35-21 40-19 63 11 98 35 42 84 43 125 2z"/>
  <path d="m4300 2768c-31-16-51-35-65-63l-21-40-18 38c-28 58-76 77-202 77-65 0-104-4-112-12s-12-66-12-194c0-205 1-207 72-202l43 3 3 53c3 47 5 52 26 52 17 0 32-14 57-52l34-53h55c49 0 55 2 58 22l3 22 39-25c47-31 147-43 203-25 45 15 94 70 102 115 8 42-16 98-52 121l-25 17 36 24c20 14 36 33 36 42 0 26-49 69-99 87-60 21-109 19-161-7zm135-119c11-11 0-11-45-3-22 5-28 9-18 15 14 9 47 3 63-12zm-350-19c0-11-13-16-47-18-43-3-48-1-48 18s5 21 48 18c34-2 47-7 47-18zm153-44c20-34 55-52 152-77l45-12-28-9c-23-8-38-5-78 16-55 28-69 26-116-17l-22-20-11 25c-10 20-8 31 9 59 12 19 21 42 21 52 0 25 5 21 28-17z"/>
  <path d="m596 2764c-13-13-16-45-16-189 0-195 3-205 69-205 43 0 61 14 61 50 1 23 3 22 21-13 20-37 21-38 72-35 48 3 53 5 69 38s17 33 18 10c0-37 18-50 65-50 23 0 46 5 53 12 8 8 12 66 12 195 0 170-1 183-19 193-27 14-104 13-124-2-9-7-29-49-46-93-29-80-29-80-40-50-38 102-56 137-72 145-28 16-106 12-123-6z"/>
  <path d="m2666 2764c-13-13-16-45-16-189s3-176 16-189c23-23 225-23 248 0 18 18 21 56 6 85-9 16-22 19-75 19h-65v135c0 123-2 135-19 145-29 15-77 12-95-6z"/>
 </g>
</svg>
