<?xml version="1.0" encoding="UTF-8"?>
<!DOCTYPE svg  PUBLIC '-//W3C//DTD SVG 20010904//EN'  'http://www.w3.org/TR/2001/REC-SVG-20010904/DTD/svg10.dtd'>
<svg width="500pt" height="500pt" version="1.0" viewBox="0 0 500 500" xmlns="http://www.w3.org/2000/svg">
 <metadata>Created by potrace 1.16, written by Peter Selinger 2001-2019</metadata>
 <g transform="translate(0 500) scale(.1 -.1)">
  <path d="m1070 3103c-222-240-369-462-437-660-23-68-27-95-27-208-1-121 1-134 26-188 87-185 271-267 536-239 188 20 299 56 707 233 138 59 678 291 1200 515 523 224 1026 439 1118 479 93 40 176 80 185 89 15 14 15 18 1 31-13 13-25 12-109-10-52-14-216-57-365-95-148-39-596-158-995-265-1439-385-1377-370-1534-363-156 8-239 57-295 177-21 46-25 70-25 136 1 103 23 185 85 314 27 58 47 111 45 118-12 30-47 10-116-64z"/>
 </g>
</svg>
