<?xml version="1.0" encoding="UTF-8"?>
<!DOCTYPE svg  PUBLIC '-//W3C//DTD SVG 20010904//EN'  'http://www.w3.org/TR/2001/REC-SVG-20010904/DTD/svg10.dtd'>
<svg width="500pt" height="500pt" version="1.0" viewBox="0 0 500 500" xmlns="http://www.w3.org/2000/svg">
 <metadata>Created by potrace 1.16, written by Peter Selinger 2001-2019</metadata>
 <g transform="translate(0 500) scale(.1 -.1)">
  <path d="m843 2753c-148-102-168-130-168-243v-75l-31 3c-36 4-78-28-89-66-5-17 1-30 27-56 44-44 96-55 145-32 27 13 38 14 49 5 7-6 28-10 46-10 37 2 92 2 126 0 13-1 33 7 44 17 14 13 22 15 25 7 21-60 86-82 120-40 13 16 26 21 50 19 25-3 36 3 54 27l22 31 18-30c18-29 18-29 116-28 54 0 106 5 117 10 12 7 22 6 29-1 18-18 57-12 82 13l24 24 22-24c17-18 33-24 63-24 41 0 106 31 106 50 0 5 5 10 10 10 6 0 10-6 10-14 0-31 30-46 93-46 34 0 78 0 97-1 60-1 171 9 177 15 4 4 12-7 19-24 7-16 25-35 39-42 44-20 75 5 106 87 33 84 54 94 84 38 42-79 129-105 197-60l34 24 17-24c23-29 59-30 105-1 31 19 35 19 43 5 26-46 54-56 92-35 20 11 79 19 132 17h68c26 1 47-3 47-8 0-4-20-38-45-75-69-104-78-174-27-212 79-61 200 69 234 251l11 65 25-16c17-11 34-14 56-9 17 4 53 6 80 5 26 0 55 5 63 12 12 10 17 9 24-5 14-23 70-22 101 3 25 19 26 19 43 0 21-23 63-26 90-6 16 11 21 11 33 0 19-20 49-17 88 7l34 21 26-21c35-27 98-28 142-1 33 21 62 71 62 110 0 23-2 23 130 4 68-10 117 59 72 99-14 13-45 17-162 19-155 2-170-1-222-50l-28-26v26c0 27-28 58-53 58-8 0-30-12-47-26-17-15-32-25-33-23s-7 13-13 24c-6 12-24 21-42 23-24 3-35-3-58-31l-27-35-16 31c-13 25-22 32-46 32s-37-9-65-48l-35-47-8 32c-20 77-74 89-153 33-27-19-51-35-54-35s-10 10-15 23c-6 12-26 30-46 40-47 22-91 8-123-40l-24-35-7 31c-15 69-84 80-145 25l-40-36v25c0 49-15 53-176 50-82-1-153-2-159-2-5 0-32 2-59 5-40 5-53 2-78-16-16-12-36-19-43-16-12 4-12 11 0 47 8 23 15 53 15 66v25l128-6c70-4 168-9 219-12 89-6 92-6 118 20 33 33 31 75-5 93-14 7-56 13-95 13-38 0-179 5-312 12-230 11-244 11-263-7-24-22-25-57-3-139 16-62 16-63-6-93s-23-32-8-83c11-35 13-60 7-76l-9-24-25 25c-16 16-36 25-55 25-28 0-29 2-24 34 7 43-20 92-60 105-39 14-103-12-128-53-17-27-19-28-19-9 0 26-39 59-81 68-16 4-52 1-80-5-28-7-53-10-56-6-3 3 1 45 11 92 15 78 15 89 1 110-8 13-27 27-41 30-40 10-62-20-82-114l-16-82-38 6c-48 8-85-2-92-24-5-15-17-17-85-14-76 2-81 1-114-27l-34-30-19 27c-18 24-19 31-8 67 41 131-14 235-95 179-53-38-121-181-121-258v-31l-26 33c-30 38-72 43-122 12-18-11-35-20-37-20-3 0-5 18-5 39 0 44 7 53 87 113 77 58 88 83 53 118-27 27-60 25-107-7z"/>
 </g>
</svg>
