<?xml version="1.0" encoding="UTF-8"?>
<!DOCTYPE svg  PUBLIC '-//W3C//DTD SVG 20010904//EN'  'http://www.w3.org/TR/2001/REC-SVG-20010904/DTD/svg10.dtd'>
<svg width="500pt" height="500pt" version="1.0" viewBox="0 0 500 500" xmlns="http://www.w3.org/2000/svg">
 <metadata>Created by potrace 1.16, written by Peter Selinger 2001-2019</metadata>
 <g transform="translate(0 500) scale(.1 -.1)">
  <path d="m3184 3526c-115-116-275-263-405-371-223-186-443-397-521-500-40-54-71-104-182-293-50-87-82-87-107-2-11 36-10 44 19 102 17 35 86 133 152 218 239 306 302 427 304 586 1 74-2 87-34 150-77 152-213 181-409 89-40-19-80-35-87-35-58 0-200-123-234-202-27-63-24-137 7-171 19-21 20-25 7-67-8-25-24-80-35-123-19-72-19-80-5-103 12-17 26-24 48-24 44 0 98 60 149 168 23 48 46 89 51 90 4 2 36 25 70 50 52 39 66 57 95 120 24 51 44 79 66 93 87 54 113-35 49-171-19-41-147-210-301-398-160-196-247-367-271-530-15-106 14-216 73-279l20-23h369c298 0 374 3 396 14 20 10 39 12 72 6 62-12 138-12 161 0 11 6 19 21 19 35 0 27 26 35 47 14 17-17 56-6 69 20 15 30 36 43 46 28 4-6 17-12 30-13s35-5 51-9c33-9 57 8 57 41 0 14 6 24 15 24 18 0 37 34 29 54-4 11 0 13 15 9 12-3 21-11 21-19 0-7 10-20 22-28 37-26 79 14 58 55-6 10-17 19-25 19s-15 7-15 15 7 15 15 15c20 0 30 46 15 65-11 13-8 14 18 9 24-5 32-2 41 15 6 11 9 32 5 46-6 24-4 25 20 19 32-8 56 10 56 42 0 27-43 55-60 38-5-5-28-8-50-6-34 4-40 7-40 27 0 13-5 27-10 30-7 4-7 13 0 26 14 25 34 25 27-2-3-13 2-28 14-40 19-19 22-19 43-5 17 10 26 12 34 4 16-16 60-1 67 22 3 11 14 20 24 20 41 0 59 67 21 77-11 3-20 10-20 16s-7 18-16 28c-14 16-14 18 5 29 22 11 29 54 11 65-6 4-3 16 9 31 11 14 18 31 15 38s2 19 11 26c8 7 15 21 15 31 0 22-37 50-56 42-8-3-14 1-14 10s10 17 21 19c38 5 46 33 21 68-18 24-20 30-7 30 8 0 21 11 27 25 9 20 8 29-3 42-9 10-20 30-27 46-8 19-19 27-37 27-28 0-33 21-10 40 8 7 15 21 15 31 0 11 6 19 14 19s24 8 37 19c21 16 22 22 11 45-9 21-19 26-46 26-19 0-47-5-61-12-28-13-49-2-24 13 9 4 22 22 29 39 9 23 17 29 29 24 37-15 49-15 65 1 27 28 22 44-28 79-18 12-18 14 13 46 20 22 29 39 25 49-11 26-6 50 15 77 34 43 22 85-23 83-13-1-96-76-212-193zm109-463c-3-6-11-14-20-17-11-5-13-2-8 11 4 10 10 27 13 37 5 20 5 20 12 0 4-10 5-24 3-31zm-15-123c11 0 24-4 27-10 3-5-3-10-14-10s-24-8-30-17c-13-23-26-9-35 36-6 33-5 33 12 18 10-10 28-17 40-17zm46-116c8-20-21-51-35-37-7 7-6 17 3 32 15 25 24 26 32 5zm-18-115c-27-23-44-7-19 18 12 13 22 15 29 9 8-7 5-15-10-27zm-140-24c4-8 13-15 20-15 8 0 17-7 20-15s14-17 24-20 26-22 35-43c10-20 27-45 39-54l21-18h-25c-15 0-31-5-38-12-9-9-11-3-9 26 2 40-7 50-53 60-16 3-29 16-38 38-7 18-18 41-23 51-7 13-5 17 6 17 9 0 18-7 21-15zm-176-219c0-2 3-11 6-20 9-23-19-20-41 4-18 20-17 20 8 20 15 0 27-2 27-4zm106-66c22-19 17-30-8-17-47 25-48 27-30 45 16 16 17 16 20 0 2-9 10-22 18-28zm-136-123c0-8-11-24-25-37s-25-30-25-38c0-21-6-12-14 21-5 23-3 29 19 37 14 5 25 14 25 20 0 5 5 10 10 10 6 0 10-6 10-13zm103-34c-7-19-22-33-36-33-4 0 0 11 9 25 19 29 37 34 27 8zm-313-22c14-27 13-30-10-24-11 3-20 14-20 24 0 25 16 24 30 0zm234-136c7-20-32-20-58 0-19 14-18 15 16 15 23 0 38-6 42-15zm-194-31c0-9-7-14-17-12-25 5-28 28-4 28 12 0 21-6 21-16z"/>
  <path d="m873 1825c-83-42-114-115-78-185 23-44 67-70 152-86 49-9 85-22 98-35 18-18 19-21 5-47-14-23-23-27-68-30-63-4-88 9-107 53-9 23-21 35-33 35-32 0-43-24-40-86 3-54 6-59 36-77 78-46 230-27 299 37 30 27 36 41 40 82 5 60-18 110-63 136-17 10-66 27-109 37-88 22-116 42-99 69 29 45 135 40 162-8 9-17 24-32 32-35 20-8 50 30 50 63 0 46 16 11 80-178 34-102 67-193 72-202 10-21 80-25 95-5 6 6 18 37 27 67 27 85 30 86 50 23 32-104 26-101 172-99 107 1 128 4 137 18 9 13 7 21-6 36-15 17-16 24-5 58 13 39 14 39 69 42l56 3 17-42c14-35 15-47 5-66-9-18-9-25 1-38 19-23 318-17 334 7 8 13 6 21-7 36-14 15-17 33-15 76l3 56 146-190h59c48 0 62 4 72 19 12 19 13 19 52-1 61-31 149-35 218-9 87 33 158 123 158 201 0 16 3 30 8 30 4 0 27-50 51-110 24-61 50-115 57-121s25-9 41-7c32 3 46 28 88 148 15 41 36 99 47 128l21 53 18-40c21-47 53-66 149-86 90-19 110-30 110-59 0-34-30-56-78-56-56 0-86 16-105 56-17 35-43 44-65 22-16-16-15-110 1-131 18-24 92-47 151-47 30 0 74 10 107 24 55 22 57 22 68 4 10-16 23-18 98-16 70 2 88 6 97 21s7 22-11 37c-19 15-23 28-23 72v53l88-92 87-92 310 4 3 28c2 15-1 27-7 27-16 0-15 354 1 380 10 15 10 25 2 38-16 25-152 25-167 0-9-13-7-21 6-36 15-16 17-43 17-196 0-194-2-201-57-172-15 8-68 55-118 105l-90 91 75 75c41 42 86 81 99 88 61 30 25 67-64 67-82 0-95-6-95-40 0-19-13-42-38-69-21-23-41-41-45-41-15 0-7 78 8 84 8 3 15 17 15 30 0 33-26 40-117 32s-95-8-198-1c-79 6-95 4-129-14-39-20-39-20-53-1-11 16-26 20-68 20-29 0-60-3-69-6-20-8-21-53-2-60 12-5 8-24-20-107-20-56-39-106-43-110-13-14-83 196-75 227 11 44-9 56-92 56-61 0-75-3-87-20-14-20-14-20-52 0-28 14-59 20-110 20-59 0-78-5-122-30-29-17-62-43-74-60l-22-30-17 38c-29 62-66 76-211 80-134 4-169-4-169-37 0-10 7-24 15-31 12-10 15-44 15-186 0-99-4-175-10-179-15-9-34 29-110 223-40 101-79 190-87 198-17 16-85 19-113 4-13-7-21-7-25 0-9 14-128 13-143-2-17-17-15-45 3-56 14-7 12-20-12-110-15-56-30-102-34-102-3 0-21 45-38 100-27 84-30 103-19 120 10 15 10 25 2 38-9 13-28 18-94 20-46 2-88-2-93-7-7-7-17-7-29 0-11 6-50 8-91 5-98-7-91-7-192 0-84 5-94 4-142-21zm478-52c9-2 23-28 32-56 15-48 15-57 1-105-9-30-20-50-24-45-15 16-71 203-65 213 4 6 14 8 24 5 9-4 23-9 32-12zm364-167c-35-92-69-173-75-180-15-13-17-21 46 184 44 145 67 191 85 173 5-5-21-84-56-177zm1925 72v-101l-22 20c-34 30-76 49-143 63-79 17-95 26-95 54 0 57 147 62 165 5 19-58 75-42 75 21 0 22 5 40 10 40 6 0 10-41 10-102zm-1324 51c33-27 4-74-54-85l-32-6v57 58l36-6c20-3 42-11 50-18zm428 1c90-58 101-196 21-258-43-34-123-31-163 6-50 46-61 150-23 220 27 50 113 67 165 32zm-295-239c22-41 5-33-36 16-57 69-57 69-20 92l32 20 6-52c3-29 11-63 18-76z"/>
 </g>
</svg>
