<?xml version="1.0" standalone="no"?>
<!DOCTYPE svg PUBLIC "-//W3C//DTD SVG 20010904//EN"
 "http://www.w3.org/TR/2001/REC-SVG-20010904/DTD/svg10.dtd">
<svg version="1.0" xmlns="http://www.w3.org/2000/svg"
 width="3840.000000pt" height="2175.000000pt" viewBox="0 0 3840.000000 2175.000000"
 preserveAspectRatio="xMidYMid meet">
<metadata>
Created by potrace 1.16, written by Peter Selinger 2001-2019
</metadata>
<g transform="translate(0.000000,2175.000000) scale(0.100000,-0.100000)"
fill="#000000" stroke="none">
<path d="M19005 19218 c-3 -7 -4 -2560 -3 -5673 l3 -5660 130 0 130 0 5 5665
c3 3771 2 5667 -5 5672 -18 14 -255 9 -260 -4z"/>
<path d="M13035 16962 c-15 -11 -30 -45 -85 -192 -28 -74 -54 -144 -59 -155
-5 -11 -16 -38 -24 -60 -35 -92 -104 -271 -164 -430 -36 -93 -74 -192 -85
-220 -11 -27 -32 -84 -47 -125 -16 -41 -99 -259 -186 -485 -86 -225 -165 -432
-176 -460 -10 -27 -41 -108 -69 -180 -28 -71 -67 -173 -86 -225 -19 -52 -38
-104 -43 -115 -10 -21 -43 -107 -172 -445 -45 -118 -91 -237 -101 -265 -55
-143 -70 -182 -78 -205 -5 -14 -32 -83 -60 -155 -28 -71 -60 -157 -72 -190
-11 -33 -25 -68 -30 -79 -6 -10 -20 -46 -33 -80 -65 -175 -231 -611 -260 -681
-18 -44 -40 -100 -48 -125 -9 -25 -25 -67 -35 -95 -11 -27 -57 -147 -102 -265
-45 -118 -91 -237 -102 -265 -11 -27 -23 -61 -28 -75 -5 -14 -17 -47 -28 -75
-11 -27 -49 -126 -85 -220 -35 -93 -69 -181 -75 -195 -5 -14 -18 -45 -27 -70
-10 -25 -21 -54 -26 -65 -4 -11 -22 -58 -39 -105 -18 -47 -38 -98 -45 -115
-39 -93 -77 -206 -72 -220 5 -13 32 -15 165 -15 182 0 177 -2 210 90 27 74 64
173 167 440 47 124 98 257 112 295 14 39 31 84 38 100 7 17 19 48 28 70 8 22
24 63 35 90 11 28 59 154 107 280 90 235 114 299 134 348 6 15 16 27 23 27 7
0 544 1 1193 1 l1180 0 20 -39 c11 -21 26 -54 33 -73 31 -80 94 -247 118 -314
9 -27 20 -54 24 -60 4 -5 22 -53 40 -105 18 -52 38 -108 45 -125 19 -42 99
-249 120 -310 9 -27 21 -59 25 -70 4 -11 14 -38 23 -60 35 -94 46 -123 65
-170 11 -27 43 -113 72 -190 28 -77 60 -159 70 -182 l20 -43 570 0 c493 0 571
2 576 15 5 13 -20 95 -36 120 -4 6 -15 35 -24 65 -10 30 -24 69 -31 85 -7 17
-28 68 -45 115 -18 47 -39 103 -47 125 -8 22 -22 58 -30 80 -9 22 -19 49 -23
60 -19 45 -61 157 -88 231 -51 137 -183 488 -193 509 -9 20 -77 202 -276 730
-58 154 -111 294 -118 310 -7 17 -29 75 -50 130 -20 55 -46 123 -57 150 -31
82 -44 115 -82 220 -20 55 -40 109 -45 120 -13 30 -38 94 -79 205 -11 30 -38
102 -60 160 -23 58 -55 143 -73 190 -17 47 -37 99 -44 115 -7 17 -38 100 -70
185 -31 85 -68 184 -82 220 -14 36 -38 99 -53 140 -15 41 -96 255 -180 475
-84 220 -168 443 -187 495 -19 52 -47 127 -63 165 -15 39 -38 97 -50 130 -12
33 -26 69 -30 80 -4 11 -14 36 -20 55 -7 19 -18 49 -25 65 -26 64 -45 114 -81
210 -20 55 -45 120 -54 145 -10 25 -39 101 -65 170 -26 69 -63 166 -82 215
-20 50 -40 105 -45 122 -5 18 -17 37 -26 41 -21 11 -143 14 -157 4z m-290
-1872 c13 -36 33 -90 45 -120 12 -30 25 -66 30 -80 5 -14 18 -50 30 -80 11
-30 28 -75 37 -100 8 -25 21 -58 28 -75 7 -16 28 -70 45 -120 18 -49 39 -106
47 -125 16 -36 19 -45 48 -120 26 -67 41 -108 66 -175 12 -33 29 -80 39 -105
136 -356 184 -481 215 -565 20 -55 43 -113 49 -130 7 -16 18 -46 25 -65 25
-71 219 -581 239 -630 6 -14 23 -59 38 -100 14 -41 33 -89 41 -107 8 -18 13
-37 11 -43 -2 -8 -1223 -14 -2149 -10 -17 0 -6 43 46 175 65 165 71 181 164
425 45 118 104 274 132 345 59 152 72 186 92 240 24 65 49 128 58 150 5 11 17
43 27 70 10 28 22 59 27 70 4 11 18 47 30 80 13 33 32 83 43 110 11 28 36 95
57 150 20 55 43 114 50 130 7 17 38 100 70 185 31 85 61 164 66 175 5 11 31
81 59 155 28 74 54 144 59 155 33 75 42 97 58 148 24 79 46 75 78 -13z"/>
<path d="M22450 16802 c-18 -6 -11 -19 69 -139 43 -65 118 -179 166 -253 48
-74 154 -235 234 -358 205 -314 323 -494 433 -662 52 -80 147 -224 210 -320
63 -96 184 -281 268 -410 84 -129 199 -305 255 -390 56 -85 137 -209 180 -275
242 -370 293 -448 346 -528 33 -49 59 -93 59 -97 0 -5 -31 -53 -68 -107 -38
-54 -156 -224 -263 -378 -257 -370 -283 -408 -358 -517 -36 -51 -82 -118 -103
-148 -22 -30 -121 -173 -221 -318 -100 -145 -211 -305 -247 -356 -36 -52 -89
-129 -119 -172 -30 -44 -77 -110 -104 -149 -58 -85 -358 -516 -408 -588 -100
-145 -149 -216 -179 -258 -18 -26 -29 -52 -26 -58 5 -7 65 -11 180 -11 151 0
176 2 194 18 18 15 65 83 301 427 41 61 77 112 80 115 3 3 24 32 47 65 22 33
68 100 102 148 34 48 62 92 62 97 0 4 4 10 8 12 4 2 73 98 153 213 80 116 166
240 192 278 54 78 69 99 356 512 118 171 235 340 261 376 257 374 345 499 352
499 7 0 117 -165 343 -513 50 -75 154 -235 233 -355 78 -119 174 -264 211
-322 38 -58 131 -199 206 -315 76 -115 152 -232 170 -260 18 -27 103 -158 190
-290 86 -132 214 -327 284 -433 69 -106 138 -211 154 -233 l27 -39 640 0 c548
0 641 2 646 14 3 8 -28 67 -72 133 -42 65 -115 177 -162 248 -47 72 -131 200
-187 285 -129 196 -295 450 -366 559 -29 46 -122 188 -206 315 -226 345 -394
602 -449 686 -27 41 -52 76 -56 78 -5 2 -8 8 -8 13 0 5 -85 139 -189 297 -104
158 -232 352 -284 432 -113 174 -279 427 -370 567 -37 55 -67 110 -67 121 0
11 10 33 23 49 12 15 42 57 67 93 24 36 60 88 79 115 19 28 116 167 215 310
174 252 318 459 333 480 5 6 28 39 53 75 24 36 60 88 79 115 19 28 60 86 90
130 30 44 106 154 170 245 63 91 139 201 170 245 30 44 76 110 101 146 121
176 397 573 446 643 36 50 52 82 46 88 -10 10 -341 12 -365 2 -6 -3 -45 -53
-85 -112 -40 -59 -111 -161 -157 -227 -46 -66 -119 -172 -163 -235 -43 -63
-112 -162 -152 -220 -41 -58 -108 -154 -149 -215 -41 -60 -77 -112 -81 -115
-3 -3 -27 -36 -53 -75 -26 -38 -144 -209 -262 -380 -118 -170 -238 -344 -267
-385 -28 -41 -75 -109 -104 -150 -29 -41 -88 -128 -131 -192 -70 -105 -112
-147 -120 -122 -2 5 -58 93 -126 195 -67 102 -142 217 -166 255 -25 38 -101
155 -170 259 -68 105 -153 235 -189 290 -36 55 -108 165 -161 245 -53 80 -98
150 -101 155 -3 6 -48 75 -101 155 -89 135 -167 255 -373 569 -44 69 -108 166
-142 215 l-60 91 -642 5 c-353 3 -647 4 -652 2z"/>
<path d="M10294 5145 c-13 -13 -24 -31 -24 -40 0 -9 -13 -49 -29 -88 -27 -67
-59 -148 -162 -417 -22 -58 -44 -114 -48 -125 -5 -11 -18 -47 -31 -80 -12 -33
-26 -69 -31 -80 -5 -11 -49 -128 -99 -260 -50 -132 -94 -249 -99 -260 -5 -11
-19 -47 -31 -80 -11 -33 -24 -69 -29 -80 -5 -11 -17 -40 -26 -65 -10 -25 -23
-58 -30 -75 -7 -16 -25 -63 -39 -104 -15 -40 -39 -106 -55 -145 -16 -39 -43
-109 -60 -156 -35 -91 -56 -147 -76 -195 -7 -16 -31 -82 -54 -145 -23 -63 -49
-128 -57 -143 -25 -45 -13 -57 55 -57 63 0 78 11 96 70 8 25 89 237 105 275 5
11 23 58 40 105 43 117 82 213 93 227 7 9 118 12 457 12 247 1 456 -2 464 -5
8 -3 27 -38 42 -77 15 -40 32 -85 39 -102 7 -16 46 -118 86 -225 39 -107 80
-214 90 -237 l18 -43 220 0 c121 0 222 4 225 9 3 5 -24 87 -60 182 -37 96 -79
208 -94 249 -15 41 -47 125 -70 185 -23 61 -49 127 -57 149 -51 141 -228 606
-239 631 -7 17 -29 73 -48 125 -19 52 -44 120 -56 150 -34 89 -46 120 -85 225
-20 55 -43 114 -50 130 -7 17 -57 147 -110 290 -54 143 -102 265 -107 271 -18
24 -50 23 -74 -1z m-96 -757 c11 -29 39 -102 61 -163 23 -60 45 -119 50 -130
12 -28 34 -86 71 -185 18 -47 38 -101 45 -120 18 -45 78 -205 112 -295 15 -38
30 -74 35 -80 4 -5 8 -22 8 -37 l0 -28 -412 2 c-406 3 -413 3 -411 23 0 11 38
115 83 230 45 116 113 293 152 395 38 102 76 199 83 215 25 59 44 110 51 134
12 46 34 91 43 91 5 0 18 -24 29 -52z"/>
<path d="M23375 5160 c-117 -12 -197 -35 -313 -92 -185 -90 -318 -210 -444
-400 -114 -172 -174 -323 -223 -567 -25 -126 -23 -392 4 -531 80 -409 273
-712 576 -905 86 -55 161 -85 310 -126 68 -19 323 -19 390 0 162 45 232 75
341 147 86 57 264 224 264 249 0 15 -63 65 -82 65 -8 0 -46 -36 -86 -79 -199
-219 -444 -325 -665 -286 -159 28 -292 119 -390 268 -118 179 -178 369 -212
672 -32 291 8 733 85 920 86 213 132 293 219 381 117 120 212 165 361 172 152
7 269 -35 425 -153 84 -64 148 -124 199 -187 21 -27 46 -48 55 -48 9 0 31 14
50 31 40 37 39 39 -50 147 -194 235 -492 353 -814 322z"/>
<path d="M28622 5161 c-16 -4 -29 -19 -39 -46 -8 -22 -25 -69 -38 -105 -13
-36 -35 -94 -49 -130 -13 -36 -45 -119 -71 -185 -25 -66 -50 -129 -54 -140 -5
-11 -16 -40 -26 -65 -9 -25 -22 -56 -27 -70 -6 -14 -25 -65 -43 -115 -19 -49
-42 -112 -53 -140 -46 -117 -187 -486 -212 -556 -15 -41 -37 -98 -48 -125 -25
-59 -70 -178 -194 -504 -22 -58 -48 -125 -58 -150 -69 -177 -99 -263 -94 -271
8 -14 120 -11 131 4 5 6 29 64 52 127 24 63 49 129 56 145 7 17 34 86 60 155
72 193 86 224 102 237 12 9 126 12 449 13 239 0 445 -2 459 -6 13 -3 27 -16
30 -27 4 -12 13 -35 20 -52 7 -16 47 -121 89 -233 136 -362 136 -362 159 -367
12 -3 114 -4 227 -3 198 3 205 4 203 23 -1 17 -117 332 -144 390 -5 11 -69
180 -143 375 -74 195 -147 387 -161 425 -15 39 -40 106 -57 150 -16 44 -33 89
-38 100 -15 39 -39 101 -65 170 -42 114 -66 178 -80 210 -7 17 -25 64 -39 105
-15 41 -34 93 -43 115 -8 22 -22 58 -30 80 -9 22 -19 49 -23 60 -5 11 -22 56
-39 100 -16 44 -45 121 -64 170 -19 50 -37 98 -40 107 -8 23 -37 36 -65 29z
m-122 -745 c0 -8 14 -49 31 -92 17 -44 37 -96 45 -116 8 -21 21 -57 30 -80 9
-24 20 -52 24 -63 5 -11 18 -47 30 -80 11 -33 25 -69 29 -80 20 -45 71 -175
101 -260 17 -49 35 -99 40 -110 4 -11 20 -48 34 -83 46 -113 87 -102 -389
-102 -463 0 -431 -6 -396 73 10 23 40 98 66 167 52 141 74 196 86 225 8 18 68
176 139 365 16 41 41 109 56 150 15 41 34 83 42 92 16 19 32 15 32 -6z"/>
<path d="M34015 5160 c-272 -25 -526 -178 -713 -429 -71 -96 -73 -98 -125
-201 -77 -149 -128 -318 -148 -489 -13 -108 -7 -399 10 -481 47 -222 111 -384
214 -537 80 -120 146 -195 240 -272 130 -105 220 -149 437 -213 71 -21 328
-17 415 5 166 44 303 118 403 219 56 57 101 116 208 274 l34 50 -2 250 -3 249
-374 3 c-293 2 -376 -1 -383 -10 -4 -7 -8 -34 -8 -60 0 -59 -4 -57 190 -61
l145 -2 3 -288 c3 -327 6 -309 -83 -405 -40 -43 -76 -70 -132 -97 -74 -36 -83
-38 -173 -38 -160 1 -264 46 -386 167 -141 141 -220 319 -278 631 -58 309 -45
645 36 970 65 264 190 466 352 572 81 54 150 76 256 81 148 7 268 -36 420
-148 63 -47 215 -194 232 -225 5 -8 16 -15 24 -15 17 0 84 50 84 63 0 17 -87
125 -149 186 -194 190 -454 277 -746 251z"/>
<path d="M2041 5142 c-5 -9 -41 -103 -81 -207 -78 -207 -117 -309 -130 -340
-14 -36 -38 -98 -69 -180 -16 -44 -55 -145 -86 -225 -31 -80 -69 -181 -86
-225 -17 -44 -34 -89 -39 -100 -10 -23 -128 -331 -170 -445 -15 -41 -47 -124
-70 -185 -23 -60 -57 -148 -75 -195 -133 -350 -173 -445 -183 -442 -7 1 -12
-9 -12 -23 0 -24 2 -25 70 -25 61 0 71 3 84 23 13 19 174 434 229 587 10 30
26 60 34 67 22 17 905 17 926 0 7 -7 22 -34 32 -62 10 -27 38 -102 62 -165 25
-63 54 -140 65 -170 11 -30 23 -64 28 -75 4 -11 15 -40 25 -65 38 -100 50
-125 60 -132 5 -4 106 -8 223 -8 173 0 214 3 218 14 3 8 -3 36 -14 63 -11 26
-39 98 -62 158 -23 61 -48 126 -55 145 -8 19 -25 67 -40 105 -43 116 -66 178
-80 210 -7 17 -38 100 -70 185 -31 85 -63 169 -70 185 -7 17 -25 64 -39 105
-28 78 -82 220 -97 255 -4 11 -29 76 -55 145 -25 69 -52 139 -59 155 -8 17
-25 62 -38 100 -29 81 -233 620 -246 650 -5 11 -19 46 -31 78 -21 54 -24 57
-56 57 -21 0 -37 -6 -43 -18z m-98 -734 c9 -18 42 -103 73 -188 31 -85 62
-168 69 -185 12 -26 61 -156 166 -435 15 -41 38 -100 50 -130 12 -30 24 -70
26 -87 l5 -33 -410 0 c-318 0 -411 3 -414 12 -4 11 21 82 62 183 13 31 56 142
84 220 15 39 30 79 35 90 5 11 16 36 24 55 15 37 187 496 193 518 6 21 20 13
37 -20z"/>
<path d="M19860 5112 c-6 -2 -10 -9 -10 -15 0 -7 65 -111 144 -232 80 -121
204 -312 278 -424 73 -112 200 -306 282 -430 82 -124 151 -234 153 -243 4 -14
-54 -107 -193 -304 -51 -72 -317 -455 -378 -543 -32 -48 -75 -109 -95 -137
-115 -163 -142 -207 -137 -219 6 -15 122 -9 144 8 7 5 86 116 175 245 168 245
236 342 330 477 30 44 95 137 142 208 85 124 108 145 123 110 4 -10 29 -52 56
-93 27 -41 85 -129 128 -195 43 -66 82 -125 86 -130 5 -6 11 -15 13 -20 2 -6
49 -77 103 -160 54 -82 137 -208 184 -280 47 -71 95 -141 106 -155 l21 -25
245 1 c167 1 245 5 248 13 2 6 -36 70 -84 143 -47 73 -130 199 -183 280 -53
81 -187 286 -298 455 -111 169 -240 367 -287 439 -47 72 -86 138 -86 147 0 8
6 22 13 29 7 7 87 121 178 253 91 132 191 276 221 320 31 44 105 152 166 240
61 88 115 165 120 171 11 13 32 51 32 58 0 3 -33 6 -72 6 l-73 0 -43 -63 c-24
-34 -142 -204 -262 -377 -121 -173 -247 -356 -281 -407 -34 -51 -68 -94 -76
-97 -17 -7 -19 -4 -122 154 -99 154 -254 391 -410 627 l-106 162 -243 3 c-133
2 -247 2 -252 0z"/>
<path d="M3822 5097 c-9 -11 -12 -298 -10 -1278 l3 -1264 220 0 220 0 5 635 5
635 34 3 c76 8 64 24 319 -448 42 -78 86 -159 120 -220 13 -25 38 -70 54 -100
17 -30 63 -116 103 -190 41 -74 91 -168 113 -208 65 -122 38 -112 296 -112
130 0 227 4 231 9 5 9 -50 114 -235 451 -32 58 -71 130 -88 160 -16 30 -41 75
-54 100 -14 25 -47 86 -73 135 -26 50 -51 95 -55 100 -4 6 -33 60 -65 120 -32
61 -67 124 -77 140 -33 55 -21 76 53 88 32 5 121 44 185 80 92 53 189 155 234
247 63 129 80 335 37 461 -74 214 -258 362 -527 424 -41 9 -91 22 -110 27 -20
6 -224 13 -480 15 -383 4 -447 3 -458 -10z m792 -122 c155 -39 253 -113 315
-240 39 -81 51 -145 51 -278 0 -186 -41 -297 -143 -395 -105 -99 -183 -122
-411 -122 l-166 0 0 519 c0 406 3 520 13 524 30 13 282 6 341 -8z"/>
<path d="M6301 5096 c-8 -10 -10 -351 -9 -1277 l3 -1264 64 -3 c44 -2 67 1 73
10 4 7 8 483 8 1058 -1 575 -1 1051 -1 1058 2 25 16 11 33 -31 9 -23 87 -220
174 -437 86 -217 176 -442 200 -500 23 -58 64 -159 89 -225 25 -66 50 -129 54
-140 5 -11 22 -54 39 -95 16 -41 46 -113 65 -160 19 -47 47 -116 62 -155 14
-38 30 -79 35 -90 33 -76 70 -171 70 -181 0 -17 25 -24 85 -24 30 0 57 5 62
13 5 6 20 41 32 77 12 36 29 79 36 95 7 17 34 87 59 156 24 69 49 137 54 150
28 70 46 118 97 259 31 85 70 189 86 230 15 41 67 181 114 310 47 129 93 253
102 275 8 22 19 49 23 60 4 11 15 38 23 60 28 73 125 339 136 377 11 34 41 71
41 52 1 -5 1 -497 0 -1094 0 -597 4 -1091 8 -1098 7 -9 57 -12 218 -10 l209 3
3 1255 c1 690 0 1265 -3 1278 -5 22 -6 22 -218 22 -156 0 -217 -3 -228 -12
-13 -12 -26 -41 -74 -168 -7 -19 -20 -53 -28 -75 -9 -22 -48 -128 -87 -235
-74 -202 -81 -222 -123 -330 -14 -36 -78 -207 -142 -380 -64 -173 -122 -331
-130 -350 -40 -102 -75 -201 -75 -213 0 -17 -36 -51 -43 -40 -5 8 -149 371
-204 513 -21 54 -69 172 -103 255 -5 11 -93 232 -196 490 -102 259 -195 487
-205 508 l-19 37 -229 0 c-180 0 -231 -3 -240 -14z"/>
<path d="M12002 5098 c-9 -9 -12 -304 -12 -1267 0 -691 4 -1262 9 -1269 5 -9
25 -12 62 -10 l54 3 3 1123 c1 744 5 1122 12 1122 13 0 11 3 224 -287 102
-139 190 -258 195 -265 6 -7 44 -58 84 -113 40 -55 128 -174 195 -265 67 -91
177 -239 243 -330 67 -91 160 -217 207 -280 47 -63 110 -149 141 -190 131
-179 164 -223 270 -367 l113 -153 44 0 c28 0 44 4 44 13 3 241 -2 2532 -6
2538 -8 13 -98 11 -112 -3 -9 -9 -12 -216 -12 -869 0 -549 -4 -860 -10 -864
-5 -3 -24 16 -42 44 -36 53 -140 197 -363 496 -78 105 -179 242 -225 305 -79
109 -117 160 -391 530 -63 85 -146 198 -184 250 -38 52 -76 100 -85 107 -21
17 -441 18 -458 1z"/>
<path d="M14753 5098 c-9 -14 -16 -2488 -8 -2526 l5 -22 233 2 232 3 3 1264
c1 926 -1 1267 -9 1277 -16 19 -444 20 -456 2z"/>
<path d="M17762 5098 c-14 -14 -18 -2523 -3 -2532 5 -3 354 -6 777 -6 l769 -1
3 71 3 70 -558 2 -558 3 0 560 0 560 385 3 c438 2 413 -3 403 86 -3 28 -7 53
-9 55 -2 2 -170 3 -373 2 -251 -1 -377 1 -391 9 -20 11 -20 19 -20 504 l0 494
25 6 c14 4 265 6 557 6 427 -1 533 2 539 12 3 7 4 33 0 58 l-6 45 -765 3
c-587 2 -769 -1 -778 -10z"/>
<path d="M25038 5099 c-17 -9 -18 -81 -18 -1288 0 -1157 2 -1279 16 -1285 20
-8 388 -8 408 0 14 6 16 71 16 634 0 563 2 628 16 634 9 3 237 6 509 6 405 0
495 -2 504 -14 8 -10 11 -184 11 -631 0 -340 3 -622 8 -627 5 -5 103 -7 218
-6 l209 3 0 1290 0 1290 -195 3 c-107 1 -205 0 -217 -3 l-23 -5 0 -574 c0
-472 -2 -576 -14 -585 -9 -8 -153 -10 -517 -9 l-504 3 -5 585 -5 585 -200 2
c-124 2 -207 -1 -217 -8z"/>
<path d="M30325 5098 c-3 -7 -4 -582 -3 -1278 l3 -1265 60 0 60 0 5 1119 c3
734 8 1120 15 1122 6 2 28 -24 50 -56 42 -61 309 -425 1003 -1364 291 -393
376 -509 402 -546 13 -19 27 -37 30 -40 3 -3 17 -21 30 -40 14 -19 28 -39 32
-45 4 -5 33 -43 64 -83 55 -72 57 -73 97 -70 l42 3 3 1264 c1 926 -1 1267 -9
1277 -14 17 -91 18 -107 2 -9 -9 -12 -216 -12 -870 0 -929 2 -901 -51 -825
-20 28 -79 108 -371 505 -180 244 -220 298 -327 442 -139 187 -193 262 -297
404 -43 60 -119 163 -169 230 l-90 121 -228 3 c-177 2 -229 0 -232 -10z"/>
<path d="M35797 5103 c-4 -3 -7 -574 -7 -1268 0 -999 3 -1264 13 -1271 6 -5
356 -8 785 -6 l772 2 0 70 0 70 -557 0 c-307 0 -564 4 -571 8 -10 7 -12 126
-10 563 l3 554 395 5 395 5 3 68 c2 49 0 67 -10 67 -7 1 -179 1 -381 0 -235 0
-375 4 -388 10 -18 10 -19 27 -19 500 0 460 1 490 18 499 11 6 233 9 570 8
l553 -2 -3 60 -3 60 -776 3 c-426 1 -779 -1 -782 -5z"/>
</g>
</svg>
