<?xml version="1.0" standalone="no"?>
<!DOCTYPE svg PUBLIC "-//W3C//DTD SVG 20010904//EN"
 "http://www.w3.org/TR/2001/REC-SVG-20010904/DTD/svg10.dtd">
<svg version="1.0" xmlns="http://www.w3.org/2000/svg"
 width="840.000000pt" height="597.000000pt" viewBox="0 0 840.000000 597.000000"
 preserveAspectRatio="xMidYMid meet">
<metadata>
Created by potrace 1.16, written by Peter Selinger 2001-2019
</metadata>
<g transform="translate(0.000000,597.000000) scale(0.100000,-0.100000)"
fill="#000000" stroke="none">
<path d="M4203 5563 c-15 -3 -23 -12 -23 -25 0 -16 -4 -19 -22 -14 -52 15 -88
18 -88 8 0 -6 5 -14 10 -17 21 -13 -1 -24 -28 -14 -69 26 -164 41 -270 40
-126 0 -162 -10 -119 -32 23 -13 14 -14 -91 -14 -95 0 -124 -4 -156 -19 -44
-22 -78 -70 -74 -106 3 -21 9 -25 40 -28 20 -2 60 4 89 12 115 34 219 14 384
-74 l111 -58 16 29 c10 16 29 34 43 39 14 5 25 15 25 22 0 21 -31 63 -80 107
-38 36 -41 41 -20 36 30 -8 177 -159 192 -198 9 -24 14 -28 37 -22 14 4 34 14
45 23 11 10 35 17 59 17 35 0 43 4 60 32 l18 32 -25 22 c-28 24 -35 52 -12 43
8 -3 42 -41 76 -85 88 -113 143 -149 231 -149 79 0 216 58 268 114 l24 26 -41
0 c-23 0 -42 3 -42 8 0 4 14 27 30 51 17 24 30 57 30 73 0 24 -4 28 -29 28
-25 0 -31 6 -41 34 -6 19 -18 37 -26 40 -25 10 -79 7 -91 -5 -7 -7 -22 -7 -52
1 -25 6 -48 7 -57 2 -14 -8 -12 -12 14 -30 39 -28 46 -58 20 -84 -36 -36 -95
-21 -200 52 -110 77 -166 96 -235 83z"/>
<path d="M1928 5480 c-281 -26 -563 -144 -745 -314 -38 -36 -55 -58 -48 -64 6
-6 57 -27 115 -47 58 -21 193 -71 300 -112 107 -41 243 -93 302 -114 l108 -38
35 24 c23 15 57 26 93 29 142 15 172 24 229 68 162 128 167 129 344 68 68 -24
139 -46 157 -51 l33 -7 53 106 c49 98 102 240 93 249 -3 2 -48 21 -101 43
-213 87 -440 142 -660 160 -141 11 -179 11 -308 0z m-203 -174 c23 -10 37 -24
41 -41 6 -23 11 -26 33 -21 153 33 268 31 352 -5 83 -36 120 -101 105 -185 -9
-46 -72 -109 -125 -125 -48 -14 -48 -14 -371 144 -113 55 -215 100 -228 100
-13 0 -30 -7 -39 -15 -13 -13 -13 -19 0 -50 8 -18 27 -42 43 -52 26 -18 30
-18 71 -3 33 12 43 13 43 4 0 -45 -71 -49 -128 -7 -72 52 -84 112 -38 179 16
22 26 47 23 55 -5 11 3 17 26 20 108 18 152 18 192 2z"/>
<path d="M1559 5259 c-20 -20 -20 -21 -2 -41 23 -26 65 -44 125 -53 45 -7 48
-6 58 20 7 18 7 32 0 46 -27 49 -142 67 -181 28z"/>
<path d="M1867 5209 c-79 -12 -124 -52 -96 -85 19 -23 154 -89 233 -113 95
-29 160 -28 191 4 29 28 31 45 10 85 -36 71 -215 128 -338 109z"/>
<path d="M213 5382 c-4 -9 3 -22 19 -33 13 -10 58 -46 99 -80 73 -62 145 -101
205 -114 27 -5 35 -1 58 25 35 43 34 81 -4 113 -38 33 -99 52 -249 81 -108 21
-123 22 -128 8z"/>
<path d="M3123 5299 c-29 -11 -65 -35 -82 -55 -27 -31 -31 -42 -31 -95 l0 -61
38 7 c20 3 66 15 101 26 107 32 110 31 90 -62 -16 -74 -4 -94 60 -102 28 -3
94 -24 148 -45 104 -42 190 -65 198 -52 3 4 -7 25 -22 46 -40 58 -51 98 -42
152 4 26 8 70 8 98 1 42 -3 54 -26 76 -64 60 -159 88 -293 87 -70 0 -109 -5
-147 -20z"/>
<path d="M3651 5123 c0 -43 4 -100 7 -128 7 -47 10 -52 61 -86 73 -49 81 -65
45 -95 -36 -28 -33 -31 89 -107 159 -100 336 -160 529 -179 149 -15 268 -4
548 51 300 59 353 64 590 64 355 0 664 -54 1013 -177 119 -42 125 -43 158 -29
62 27 226 81 268 88 74 12 65 18 -154 88 -157 50 -259 95 -435 193 -421 232
-563 281 -889 305 -146 11 -238 9 -926 -13 -276 -9 -392 -9 -497 1 -147 12
-299 46 -367 80 l-41 21 1 -77z m169 -88 c104 -22 175 -56 200 -97 29 -48 26
-77 -10 -89 -45 -16 -37 -41 33 -103 48 -44 57 -56 41 -56 -26 0 -78 37 -163
116 -69 63 -221 233 -221 246 0 5 10 6 23 3 12 -3 56 -12 97 -20z m1291 -14
c31 -25 23 -32 -26 -21 -49 11 -75 5 -75 -20 0 -41 35 -56 175 -78 55 -9 75
-17 93 -37 26 -30 28 -62 7 -92 -12 -18 -22 -21 -53 -17 -53 8 -90 23 -97 41
-10 27 5 29 44 6 41 -24 61 -17 61 20 0 24 -49 44 -142 55 -88 11 -115 24
-128 58 -15 38 -12 53 15 79 30 31 92 34 126 6z m186 -28 c18 -13 50 -50 72
-81 47 -69 86 -107 124 -121 35 -14 47 -7 47 25 0 36 -22 73 -74 122 -25 24
-46 48 -46 53 0 16 40 -10 93 -60 60 -56 92 -118 78 -154 -14 -36 -26 -40 -84
-27 -47 11 -63 23 -170 129 -65 64 -123 124 -129 134 -9 17 -7 18 24 12 18 -4
48 -18 65 -32z m-411 -18 c23 -15 26 -22 21 -56 -5 -37 -3 -41 36 -68 23 -15
60 -38 83 -49 52 -26 71 -47 49 -56 -22 -8 -53 6 -130 58 -72 50 -115 59 -115
26 0 -10 18 -33 39 -51 38 -30 57 -57 47 -66 -9 -10 -54 23 -121 88 -38 37
-92 88 -120 113 -27 24 -47 48 -43 52 35 34 207 40 254 9z m785 -35 c100 -61
113 -63 93 -15 -14 34 -14 35 9 35 35 0 100 -51 148 -117 23 -32 55 -75 71
-95 16 -21 24 -38 19 -38 -26 0 -63 27 -87 64 -39 60 -65 86 -86 86 -17 0 -17
-2 4 -39 12 -22 20 -43 16 -47 -4 -3 -33 17 -64 45 -54 49 -73 58 -81 35 -2
-6 13 -32 32 -57 41 -54 35 -59 -23 -19 -43 29 -79 71 -144 166 -40 58 -40 59
-15 52 14 -3 63 -29 108 -56z m-1506 35 c122 -11 199 -64 167 -116 -7 -10 -12
-21 -12 -23 0 -3 33 -29 73 -59 76 -57 114 -94 105 -102 -10 -10 -61 16 -107
54 -107 89 -160 81 -73 -11 44 -47 35 -60 -17 -25 -38 25 -261 271 -261 288 0
5 12 7 28 4 15 -2 58 -7 97 -10z m349 -1 c97 -33 223 -186 214 -261 -3 -27 -5
-28 -58 -28 -70 1 -118 24 -185 90 -58 56 -95 120 -95 163 0 54 38 65 124 36z"/>
<path d="M4440 4911 c0 -5 15 -30 33 -57 38 -57 108 -103 167 -111 l42 -6 -17
32 c-25 48 -84 110 -126 132 -39 20 -99 26 -99 10z"/>
<path d="M690 5160 c0 -21 30 -44 70 -53 26 -6 1685 -644 1798 -692 81 -34
126 -31 130 7 4 35 -30 57 -143 94 -80 27 -664 240 -1414 518 -217 80 -404
146 -417 146 -17 0 -24 -6 -24 -20z"/>
<path d="M3120 5090 c-25 -10 -67 -19 -93 -19 -46 -1 -49 -3 -64 -38 -20 -48
-29 -123 -15 -123 6 0 41 6 79 14 37 8 95 17 128 21 l60 6 0 77 c0 75 -1 77
-25 79 -14 1 -45 -6 -70 -17z"/>
<path d="M3028 4887 l-68 -9 0 -38 c0 -53 19 -100 44 -110 22 -8 178 3 209 15
38 15 13 45 -39 45 -32 0 -30 10 7 46 17 16 35 37 40 47 9 15 4 17 -58 16 -37
-1 -98 -6 -135 -12z"/>
<path d="M3350 4851 c-36 -11 -88 -39 -94 -50 -10 -16 5 -41 33 -56 24 -12 29
-11 49 10 15 16 43 26 89 35 38 6 83 16 102 22 l34 11 -27 14 c-32 17 -150 26
-186 14z"/>
<path d="M3573 4764 c-34 -35 -21 -45 69 -54 89 -8 129 -28 168 -81 57 -79 76
-196 56 -344 -8 -60 -8 -60 12 -42 13 12 23 38 27 70 4 29 20 82 36 120 l30
67 -20 45 c-13 30 -37 57 -77 87 -32 24 -81 65 -108 91 -33 32 -63 51 -90 57
-62 14 -75 12 -103 -16z"/>
<path d="M3140 4714 c-95 -8 -247 -37 -297 -55 -48 -19 -113 -75 -113 -99 0
-15 7 -13 109 34 136 63 229 81 431 81 162 0 216 -7 328 -42 38 -11 52 -21 52
-34 0 -36 -51 -284 -85 -414 -74 -284 -174 -523 -295 -704 -73 -109 -210 -252
-293 -307 -53 -34 -57 -39 -41 -51 26 -19 36 -17 95 25 195 135 399 435 509
747 65 185 128 464 148 658 l8 77 -50 25 c-28 13 -83 31 -123 39 -72 16 -301
27 -383 20z"/>
<path d="M3705 4653 c23 -58 36 -167 33 -268 -3 -105 -5 -112 -37 -164 -40
-62 -57 -161 -28 -161 22 0 89 71 120 127 93 172 67 406 -53 468 -37 19 -44
19 -35 -2z"/>
<path d="M3048 4620 c-124 -22 -247 -74 -274 -115 -14 -22 -44 -169 -44 -216
0 -36 18 -37 57 -6 43 36 57 38 97 11 40 -27 52 -57 42 -107 -9 -41 -34 -70
-122 -140 -126 -99 -147 -145 -119 -261 31 -127 96 -319 136 -401 43 -87 102
-173 125 -182 19 -7 139 92 210 175 150 175 260 395 354 704 46 153 123 485
117 502 -9 23 -133 38 -332 41 -110 2 -221 0 -247 -5z m228 -85 c43 -25 74
-80 74 -130 0 -33 -71 -110 -115 -126 l-33 -12 35 -36 c69 -71 107 -181 107
-311 0 -150 -53 -266 -149 -325 -45 -28 -56 -30 -139 -30 -71 0 -101 5 -137
22 -94 42 -168 134 -169 207 0 75 49 130 179 202 34 19 35 22 57 139 12 66 25
134 29 151 7 29 4 33 -37 55 -35 20 -44 30 -46 56 -13 130 207 218 344 138z"/>
<path d="M3102 4438 c-17 -119 -18 -115 28 -123 74 -13 141 27 154 91 12 56
-62 114 -146 114 -24 0 -26 -4 -36 -82z"/>
<path d="M3066 4262 c-8 -39 -36 -229 -36 -246 0 -8 12 -17 28 -21 91 -22 116
-141 47 -223 -49 -58 -108 -65 -162 -18 l-28 24 18 83 c9 45 15 85 12 87 -3 3
-20 -2 -39 -10 -40 -19 -66 -69 -68 -132 -3 -57 20 -89 92 -133 138 -84 288 3
340 196 17 64 15 172 -6 233 -19 59 -87 134 -152 167 l-40 21 -6 -28z"/>
<path d="M3010 3908 c-6 -29 -14 -72 -17 -95 l-6 -43 40 0 c49 0 59 11 75 79
11 50 11 53 -13 75 -13 13 -34 27 -46 30 -19 6 -22 1 -33 -46z"/>
<path d="M1698 4524 c-27 -8 -48 -18 -48 -22 0 -4 28 -55 63 -112 l63 -105 39
0 40 0 -2 40 c-1 23 -17 79 -35 125 -38 95 -43 98 -120 74z"/>
<path d="M1842 4530 c-21 -9 -22 -11 -8 -37 7 -16 24 -59 35 -98 12 -38 25
-75 29 -81 12 -19 70 -44 102 -44 28 0 30 2 30 38 0 20 -10 57 -21 82 -11 24
-23 64 -26 87 -5 39 -9 44 -42 53 -43 12 -68 12 -99 0z"/>
<path d="M2045 4488 c-2 -7 3 -67 13 -133 l17 -120 38 -9 c20 -5 39 -8 41 -5
2 2 7 58 11 125 l7 121 -35 16 c-41 20 -86 22 -92 5z"/>
<path d="M7115 4489 c-102 -7 -130 -13 -199 -42 -40 -17 -46 -22 -30 -28 10
-4 34 -8 53 -8 65 -2 158 -34 321 -111 91 -43 188 -86 215 -96 63 -22 204 -25
260 -5 l40 14 -45 12 c-25 7 -59 19 -76 28 -42 22 -108 96 -138 155 -28 55
-31 56 -126 71 -96 15 -174 18 -275 10z"/>
<path d="M1513 4480 c-13 -5 -23 -15 -23 -21 0 -19 86 -151 118 -182 25 -24
36 -28 60 -22 68 14 66 43 -10 164 -42 68 -44 70 -83 70 -22 0 -50 -4 -62 -9z"/>
<path d="M866 4462 c-3 -5 19 -19 49 -31 34 -14 71 -41 101 -73 45 -48 49 -50
91 -45 61 7 70 18 46 59 -25 43 -72 74 -134 87 -59 13 -146 14 -153 3z"/>
<path d="M3971 4395 c-25 -127 -107 -252 -192 -296 -21 -10 -44 -28 -52 -40
-14 -19 -12 -26 12 -73 16 -29 36 -85 46 -125 l18 -73 30 6 c45 9 95 44 113
78 17 32 12 44 -21 50 -34 6 -31 44 5 63 33 17 34 21 15 82 -5 16 -2 23 15 28
35 11 42 -11 35 -113 l-6 -92 28 -11 c36 -14 77 -3 69 18 -15 37 -36 209 -47
372 -7 101 -17 179 -23 183 -24 17 -33 5 -45 -57z"/>
<path d="M1372 4430 l-22 -20 51 -73 c62 -87 83 -107 118 -107 56 0 59 14 22
86 -63 122 -119 160 -169 114z"/>
<path d="M2207 4327 c-10 -62 -15 -120 -12 -129 8 -19 55 -42 65 -31 12 13 39
104 49 168 9 57 9 61 -15 83 -14 12 -35 22 -47 22 -21 0 -24 -8 -40 -113z"/>
<path d="M886 4348 c36 -105 87 -147 183 -155 45 -3 63 0 89 16 44 28 40 41
-13 41 -61 0 -102 19 -186 85 -39 30 -75 55 -80 55 -4 0 -1 -19 7 -42z"/>
<path d="M1247 4353 c-20 -14 -37 -30 -37 -34 0 -5 14 -24 31 -44 37 -42 103
-83 139 -86 42 -4 70 1 70 10 0 5 -23 38 -50 72 -28 35 -53 73 -56 86 -8 32
-49 30 -97 -4z"/>
<path d="M2367 4373 c-19 -33 -68 -208 -63 -226 3 -12 19 -30 36 -40 l30 -18
26 56 c27 59 54 147 54 178 0 9 -15 26 -32 37 -36 22 -45 24 -51 13z"/>
<path d="M4082 4353 c-12 -30 -8 -165 7 -215 20 -71 31 -76 93 -40 81 45 76
93 -21 210 -55 66 -67 73 -79 45z"/>
<path d="M2460 4198 c-18 -46 -39 -98 -47 -116 -15 -30 -14 -34 8 -67 13 -19
27 -35 31 -35 10 0 81 97 101 135 32 65 31 89 -6 129 -19 20 -39 36 -45 36 -6
0 -25 -37 -42 -82z"/>
<path d="M1685 4219 c-61 -12 -173 -48 -179 -58 -3 -4 8 -32 25 -62 65 -119
99 -196 110 -251 6 -32 14 -58 18 -58 3 0 18 -10 33 -23 31 -24 34 -37 103
-435 37 -213 58 -275 100 -294 41 -18 73 0 178 100 126 119 265 244 332 298
28 22 92 73 143 114 50 40 92 78 92 83 0 17 -147 230 -210 305 -120 141 -258
234 -406 272 -84 22 -246 26 -339 9z"/>
<path d="M7859 4167 c-45 -10 -109 -39 -109 -50 0 -1 26 -1 58 1 55 3 66 0
166 -53 98 -51 112 -56 163 -53 31 2 58 8 60 14 6 17 -39 76 -76 101 -62 42
-175 59 -262 40z"/>
<path d="M1029 4128 c-12 -23 -16 -178 -4 -197 3 -6 18 -11 33 -11 77 0 164
-55 178 -112 9 -39 -32 -55 -96 -38 -80 23 -99 24 -106 6 -10 -25 13 -45 71
-62 30 -8 59 -21 65 -29 11 -13 4 -15 -43 -15 l-55 0 -17 -42 c-10 -24 -20
-74 -23 -112 -5 -65 12 -221 26 -242 4 -6 32 -22 62 -37 69 -33 115 -80 138
-139 l17 -46 40 13 c70 25 90 46 89 96 -4 91 -18 164 -34 164 -12 0 -16 -16
-18 -75 -3 -92 -9 -123 -24 -114 -7 5 -8 28 -3 73 4 36 7 75 7 86 0 11 -1 31
-1 45 -2 164 17 600 28 625 l13 30 15 -29 c16 -31 15 -76 -7 -231 -5 -38 -9
-139 -10 -222 l0 -153 65 0 64 0 10 38 c66 247 96 432 84 524 -8 53 -40 107
-106 176 l-51 52 -81 0 c-103 0 -149 -20 -153 -67 -5 -50 -28 -41 -38 15 l-9
47 -57 3 c-50 3 -58 0 -69 -20z"/>
<path d="M2580 4098 c-17 -23 -45 -70 -62 -105 -27 -56 -29 -66 -18 -92 l12
-29 56 29 c39 21 56 36 57 51 1 12 17 34 35 49 29 24 32 32 26 60 -7 36 -41
79 -63 79 -7 0 -27 -19 -43 -42z"/>
<path d="M4200 4079 c-38 -15 -70 -50 -70 -75 0 -28 16 -39 50 -36 14 2 45 -4
69 -13 24 -8 53 -15 65 -15 12 0 34 -14 49 -31 58 -66 79 7 24 87 -57 83 -118
110 -187 83z"/>
<path d="M3615 3948 c-25 -52 -35 -86 -35 -121 l0 -48 38 6 c61 11 111 25 116
33 8 13 -23 154 -39 178 -26 40 -43 29 -80 -48z"/>
<path d="M4194 3890 c-14 -21 -27 -53 -31 -73 -5 -33 -3 -36 23 -42 89 -20
225 -62 353 -112 389 -148 809 -306 1126 -424 193 -71 393 -147 445 -168 52
-22 115 -42 140 -46 l45 -6 -36 34 c-19 19 -58 42 -85 52 -189 70 -1243 500
-1516 619 -107 47 -250 112 -318 144 l-122 59 -24 -37z"/>
<path d="M980 3850 c-24 -33 -52 -42 -180 -60 -47 -6 -104 -20 -125 -29 l-40
-18 55 -6 c30 -4 100 -9 155 -12 55 -3 116 -9 136 -14 l36 -8 7 60 c9 93 8
117 -8 117 -8 0 -24 -13 -36 -30z"/>
<path d="M3664 3756 l-32 -14 5 -69 c3 -37 10 -76 14 -85 7 -12 4 -18 -11 -23
-27 -9 -37 -51 -16 -73 13 -15 13 -24 4 -55 -8 -25 -8 -44 -1 -59 8 -18 4 -26
-24 -51 -59 -52 -104 -156 -87 -200 10 -26 38 -2 114 99 38 49 81 96 95 104
16 9 25 22 25 38 0 15 16 39 45 68 25 24 45 47 45 52 0 4 -11 51 -25 103 -13
51 -25 113 -25 137 l0 42 -47 0 c-27 -1 -62 -7 -79 -14z"/>
<path d="M3519 3743 c-10 -12 -14 -53 -15 -152 -1 -152 -14 -216 -67 -321 -30
-61 -38 -69 -141 -137 -60 -40 -129 -91 -152 -114 -37 -36 -44 -50 -50 -95
-11 -95 31 -204 81 -204 20 0 19 19 -5 71 -35 79 -21 148 43 210 20 19 79 61
132 94 54 33 107 72 120 86 12 15 41 85 65 155 38 113 44 143 48 239 3 85 1
119 -11 148 -18 41 -28 45 -48 20z"/>
<path d="M3947 3740 c-38 -10 -71 -21 -75 -24 -10 -11 16 -95 58 -186 22 -47
45 -109 51 -137 11 -46 16 -53 43 -59 24 -5 34 -2 52 19 67 78 90 266 45 360
-22 45 -24 47 -64 46 -23 0 -73 -8 -110 -19z"/>
<path d="M1660 3649 c0 -23 -7 -82 -17 -131 l-16 -91 24 -18 c36 -27 67 -24
75 7 16 62 -25 274 -52 274 -10 0 -14 -13 -14 -41z"/>
<path d="M3428 3583 c-8 -10 -21 -34 -28 -53 -34 -87 -130 -273 -159 -305 -17
-20 -31 -45 -31 -56 0 -19 4 -21 38 -15 52 10 111 53 144 106 32 52 63 164 73
268 6 59 5 72 -7 72 -8 0 -22 -8 -30 -17z"/>
<path d="M2504 3424 c-93 -75 -263 -209 -377 -297 -114 -88 -213 -169 -218
-179 -6 -10 -9 -40 -7 -66 3 -42 6 -47 28 -50 15 -2 41 7 60 20 19 13 40 27
47 31 6 4 25 -5 42 -19 40 -33 64 -28 127 29 l47 43 -23 32 c-29 39 -19 69 34
97 l36 20 25 -28 c14 -15 30 -27 36 -27 27 0 87 42 104 74 19 35 19 35 -3 59
-30 32 -28 41 15 76 l37 31 21 -20 c29 -27 68 -25 105 7 46 38 56 70 31 104
l-20 26 45 44 c24 24 44 47 44 53 0 12 -49 76 -59 76 -4 0 -83 -61 -177 -136z"/>
<path d="M4243 3529 c-57 -17 -78 -67 -93 -220 -6 -67 -16 -108 -30 -132 -47
-80 -44 -129 7 -112 41 15 70 66 82 148 27 174 27 175 83 203 28 14 75 28 104
31 30 3 54 10 54 15 0 24 -36 68 -55 68 -11 0 -42 2 -70 5 -27 2 -65 0 -82 -6z"/>
<path d="M3781 3348 c-12 -26 -43 -60 -76 -87 -51 -39 -85 -84 -74 -96 6 -5
174 61 204 81 30 20 35 33 28 82 -4 30 -12 43 -30 51 -32 15 -28 17 -52 -31z"/>
<path d="M4309 3335 l-45 -15 -17 -75 c-20 -93 -63 -179 -161 -324 -85 -124
-82 -112 -50 -242 8 -31 14 -67 14 -80 0 -12 5 -37 12 -55 20 -57 61 -57 92 1
19 34 36 46 36 25 0 -6 -7 -24 -15 -40 -33 -64 -151 -90 -228 -51 l-37 19 0
-27 c0 -17 10 -37 26 -52 23 -21 35 -24 102 -24 63 0 85 5 118 24 39 22 46 33
98 155 64 149 113 289 122 347 8 46 -7 52 -48 19 -27 -21 -38 -44 -62 -130
-15 -55 -40 -100 -50 -90 -3 3 3 33 13 65 11 33 17 64 14 69 -3 4 -18 5 -34 2
-29 -6 -29 -5 -15 22 8 16 56 73 106 128 110 121 155 201 155 283 l0 56 -50 2
c-27 1 -71 -4 -96 -12z"/>
<path d="M1434 3299 c3 -19 8 -56 11 -84 15 -120 83 -128 95 -11 5 51 5 51 43
54 30 3 43 -2 67 -26 59 -59 53 -105 -26 -198 -71 -83 -84 -108 -84 -162 0
-36 6 -49 30 -72 75 -70 251 -97 337 -52 23 12 44 26 48 32 11 18 -21 21 -66
6 -59 -21 -98 -20 -133 3 -68 45 -71 95 -11 187 48 73 53 90 31 119 -12 17
-13 16 -20 -11 -4 -16 -30 -58 -57 -94 -28 -35 -53 -77 -56 -92 -6 -29 -23
-39 -23 -14 0 28 21 70 65 128 48 63 61 107 51 163 -15 80 -115 144 -239 153
l-68 5 5 -34z"/>
<path d="M3884 3296 c-3 -13 -4 -34 -2 -46 3 -21 -6 -26 -78 -50 -45 -15 -122
-48 -171 -74 l-89 -46 -23 -124 -23 -124 31 -45 c37 -54 38 -67 10 -93 -11
-10 -25 -27 -30 -37 -11 -20 -3 -57 12 -57 16 0 45 33 59 68 18 46 79 95 145
116 55 17 56 17 89 -3 18 -12 36 -21 38 -21 3 0 8 14 12 31 3 17 22 57 41 89
19 32 38 73 41 91 4 19 15 43 25 54 9 11 23 42 30 68 11 44 16 51 55 68 48 20
55 34 24 44 -11 3 -43 26 -72 49 -89 72 -114 80 -124 42z"/>
<path d="M2704 3259 c-22 -17 -111 -94 -199 -172 -266 -237 -265 -235 -197
-265 45 -20 225 -23 287 -4 72 22 71 19 53 119 l-16 88 63 95 c80 120 91 146
66 160 -15 7 -27 3 -57 -21z"/>
<path d="M1064 3206 c-17 -8 -34 -22 -39 -32 -20 -52 -25 -85 -19 -146 l7 -68
54 -20 c29 -11 69 -20 87 -20 30 0 33 3 49 53 26 82 23 133 -10 166 -16 16
-36 40 -46 54 -20 30 -37 33 -83 13z"/>
<path d="M2770 3159 c-46 -45 -90 -128 -90 -172 0 -44 29 -96 56 -103 31 -8
75 10 106 43 12 13 50 40 84 59 33 19 68 42 78 52 16 18 14 20 -49 37 -71 19
-115 57 -115 101 0 35 -22 30 -70 -17z"/>
<path d="M4650 3024 c-106 -13 -175 -26 -187 -36 -21 -17 -12 -53 12 -51 11 1
70 9 130 17 454 61 981 -1 1193 -141 102 -67 139 -56 55 16 -91 78 -255 142
-458 178 -67 11 -170 16 -400 18 -170 2 -326 1 -345 -1z"/>
<path d="M3002 2979 c-13 -5 -47 -28 -75 -52 -29 -24 -74 -52 -100 -61 -50
-19 -70 -42 -47 -56 8 -5 52 -14 99 -20 47 -7 101 -19 120 -26 18 -8 35 -14
37 -14 6 0 33 105 39 158 10 75 -12 96 -73 71z"/>
<path d="M3349 2954 c-13 -14 -46 -42 -72 -61 -47 -35 -77 -77 -77 -109 0 -18
62 -84 80 -84 7 0 9 8 5 21 -19 58 29 137 111 185 48 28 55 47 25 64 -30 16
-45 12 -72 -16z"/>
<path d="M6488 2915 c-191 -27 -350 -65 -460 -110 -28 -11 -21 -30 20 -58 49
-33 102 -47 185 -47 53 0 67 3 67 15 0 23 68 19 115 -8 43 -24 37 -14 171
-291 70 -146 82 -165 153 -236 127 -128 194 -147 528 -152 202 -3 220 -2 207
13 -8 9 -40 29 -72 45 -64 33 -136 37 -208 14 -24 -8 -49 -10 -60 -5 -15 6 -3
13 56 32 234 76 382 97 489 69 69 -18 104 -38 169 -100 23 -22 42 -37 42 -33
0 15 -134 178 -181 221 -71 64 -119 76 -294 74 -120 -2 -152 1 -220 20 -115
33 -187 75 -250 146 -30 34 -62 68 -71 76 -8 8 -35 34 -58 58 -34 34 -48 42
-79 42 -46 0 -105 23 -113 45 -10 25 2 28 53 16 78 -20 113 -41 208 -125 102
-90 144 -112 231 -121 82 -10 147 6 263 61 161 77 257 79 393 10 75 -38 76
-34 4 56 -52 66 -119 109 -179 115 -35 4 -54 -2 -112 -32 -141 -76 -147 -78
-237 -83 -84 -5 -91 -3 -150 27 -35 17 -108 67 -163 111 -177 142 -247 164
-447 135z"/>
<path d="M4911 2911 c-20 -13 -9 -82 34 -211 18 -58 39 -123 44 -146 10 -37
21 -47 155 -137 101 -68 162 -117 205 -164 33 -37 63 -65 66 -61 10 10 -41
158 -90 263 -80 173 -265 447 -308 459 -33 9 -90 7 -106 -3z"/>
<path d="M4683 2903 c-25 -10 -9 -267 18 -284 7 -4 55 -19 108 -34 53 -14 104
-29 115 -32 17 -5 18 -1 11 43 -8 59 -49 190 -81 261 l-23 53 -68 -1 c-37 0
-74 -3 -80 -6z"/>
<path d="M5104 2897 c-3 -9 23 -53 71 -116 156 -207 285 -451 285 -540 0 -16
8 -39 19 -52 l18 -23 12 36 c8 25 37 59 87 103 41 37 77 78 80 91 9 37 -13 80
-91 174 -39 47 -88 110 -109 140 -57 79 -125 148 -171 172 -53 28 -192 38
-201 15z"/>
<path d="M4476 2875 c-27 -8 -52 -17 -56 -22 -4 -4 -17 -46 -29 -93 -13 -46
-47 -154 -78 -240 -145 -412 -182 -544 -198 -702 l-7 -68 96 0 96 0 40 -36
c22 -20 47 -34 57 -32 28 5 89 139 122 268 76 289 115 547 115 750 0 175 -6
190 -67 189 -23 0 -64 -7 -91 -14z"/>
<path d="M5430 2840 c0 -11 7 -23 16 -27 28 -10 167 -186 223 -282 36 -60 60
-91 72 -91 26 0 159 51 159 61 0 21 -90 157 -141 213 -64 69 -127 108 -214
131 -84 21 -115 20 -115 -5z"/>
<path d="M3348 2819 c-24 -13 -24 -71 0 -92 23 -21 85 -47 112 -47 18 0 20 6
20 61 0 59 -1 60 -35 75 -40 16 -73 18 -97 3z"/>
<path d="M5770 2765 c0 -3 43 -68 96 -143 53 -75 114 -168 137 -207 94 -160
153 -349 164 -518 l6 -98 26 6 c14 4 46 15 70 26 l44 19 -7 48 c-21 163 -109
437 -178 560 -72 128 -234 276 -335 307 -13 3 -23 4 -23 0z"/>
<path d="M3670 2707 c-14 -7 -41 -42 -60 -77 l-35 -65 -49 0 c-40 0 -52 -5
-72 -28 -31 -36 -31 -71 1 -102 29 -30 54 -32 88 -5 31 25 37 25 37 1 0 -36
141 -123 221 -136 37 -6 45 -4 61 15 21 26 23 103 4 165 -11 36 -10 44 11 80
24 42 30 94 13 125 -18 34 -169 53 -220 27z"/>
<path d="M2189 2625 c-101 -16 -229 -48 -304 -76 -47 -18 -59 -28 -93 -82 -58
-92 -113 -204 -172 -354 -59 -150 -76 -169 -189 -212 -55 -20 -89 -25 -201
-29 -74 -2 -166 1 -205 6 l-70 10 -41 -43 c-44 -45 -80 -126 -90 -199 -13 -89
59 -342 161 -567 31 -68 63 -145 71 -170 8 -25 24 -59 36 -74 20 -26 25 -27
77 -22 66 7 72 4 96 -46 10 -21 51 -67 93 -104 l76 -66 89 6 c49 3 95 11 102
17 8 7 17 28 21 47 5 28 2 39 -15 56 -19 19 -24 20 -53 9 -40 -15 -43 -12
-137 118 -62 86 -69 94 -114 105 -62 16 -76 29 -58 57 11 18 9 27 -26 77 -45
65 -88 95 -103 71 -6 -9 -10 -10 -10 -3 0 7 -23 43 -52 80 -89 117 -104 176
-73 279 18 63 72 152 107 177 22 16 51 21 155 28 220 13 489 98 481 153 -3 18
-12 22 -57 26 -94 9 -70 47 44 71 33 7 67 16 76 20 10 5 33 2 57 -8 51 -19
100 -11 142 23 25 22 30 33 30 71 0 40 -5 50 -54 101 -56 60 -76 90 -76 116 0
29 24 16 80 -42 30 -32 68 -67 83 -76 l27 -18 0 29 c0 28 -14 52 -72 125 -33
41 -48 98 -27 98 8 0 39 -26 69 -59 30 -33 66 -63 79 -66 22 -7 23 -5 17 21
-4 15 -27 55 -52 87 -39 53 -58 107 -36 107 5 0 36 -29 70 -65 35 -36 67 -65
72 -65 18 0 10 32 -22 91 -27 48 -30 61 -19 71 10 11 19 6 44 -25 18 -20 37
-37 44 -37 6 0 16 15 23 34 6 18 20 42 30 51 19 17 20 17 20 1 0 -9 -7 -31
-16 -47 -8 -17 -13 -34 -9 -37 3 -3 30 2 60 12 29 10 62 16 72 12 16 -7 16 -9
-7 -26 -14 -11 -51 -29 -83 -41 -59 -22 -113 -71 -85 -77 8 -1 43 11 79 28 65
31 89 36 89 22 0 -18 -37 -42 -117 -75 -84 -36 -143 -72 -143 -88 0 -20 56 -7
117 27 65 36 118 43 118 14 0 -24 -61 -57 -151 -81 -81 -21 -134 -49 -134 -70
0 -19 70 -8 138 21 76 32 133 41 113 17 -12 -15 -55 -35 -144 -68 -56 -20
-117 -62 -117 -80 0 -14 54 -11 95 7 57 23 84 15 124 -36 19 -25 39 -44 45
-43 6 2 39 10 74 19 73 20 121 11 170 -31 23 -19 37 -24 59 -19 26 5 83 -5
129 -23 31 -12 11 23 -55 91 -112 116 -151 182 -121 201 16 10 59 -22 119 -87
52 -58 88 -85 98 -74 13 13 -24 83 -74 139 -65 74 -85 110 -81 143 3 23 4 24
26 9 12 -9 40 -43 62 -75 36 -53 94 -100 106 -87 12 12 -12 58 -61 119 -50 64
-84 132 -71 145 9 10 64 -46 91 -93 24 -41 68 -84 86 -84 18 0 8 35 -31 105
-41 74 -56 151 -25 125 8 -6 25 -31 39 -55 40 -67 58 -66 85 2 14 36 41 52 41
25 -1 -9 -7 -35 -15 -57 -18 -48 -19 -85 -4 -85 6 0 28 14 49 30 36 28 80 40
80 22 0 -15 -44 -49 -108 -82 -60 -32 -92 -64 -77 -78 3 -4 37 10 75 31 37 20
80 37 95 37 28 0 28 0 9 -21 -10 -12 -50 -37 -89 -56 -75 -38 -115 -69 -115
-90 0 -19 7 -17 97 29 134 69 121 23 -16 -56 -42 -24 -87 -56 -100 -70 l-24
-26 25 0 c15 0 55 13 90 30 34 16 74 30 87 30 24 0 24 0 5 -21 -10 -11 -52
-36 -94 -56 -41 -20 -91 -47 -109 -61 l-35 -26 70 -13 c38 -7 96 -26 128 -43
46 -23 61 -27 67 -18 27 44 165 516 181 617 3 20 -7 27 -82 57 -171 69 -371
123 -512 137 l-46 4 -88 -255 c-58 -168 -99 -269 -119 -296 -26 -36 -30 -38
-33 -20 -6 40 28 157 93 318 65 165 92 252 81 263 -24 24 -291 29 -427 8z"/>
<path d="M4697 2573 c-4 -3 -7 -28 -7 -54 l0 -48 68 -20 c98 -29 188 -51 206
-51 24 0 22 76 -2 89 -15 8 -249 91 -256 91 -2 0 -6 -3 -9 -7z"/>
<path d="M7465 2536 c-33 -8 -91 -26 -130 -41 -38 -14 -95 -32 -125 -39 -54
-12 -54 -13 -30 -26 41 -22 161 -24 299 -5 119 16 131 16 185 1 48 -14 68 -28
135 -96 73 -74 103 -98 85 -67 -107 179 -152 235 -214 261 -54 22 -138 27
-205 12z"/>
<path d="M5020 2416 c0 -31 9 -41 83 -102 45 -37 125 -109 177 -160 86 -83
126 -114 146 -114 3 0 4 19 0 41 -5 33 -21 57 -77 118 -91 99 -179 174 -255
217 -33 19 -64 34 -67 34 -4 0 -7 -15 -7 -34z"/>
<path d="M5819 2413 c-55 -29 -66 -45 -55 -89 5 -20 10 -23 39 -17 17 3 62 17
100 32 70 26 79 40 57 82 -16 28 -75 25 -141 -8z"/>
<path d="M4675 2410 c-11 -17 -17 -98 -8 -103 16 -10 316 -87 321 -83 6 7 16
96 10 96 -2 0 -51 18 -109 39 -109 41 -206 64 -214 51z"/>
<path d="M3333 2292 c-42 -150 -43 -178 -6 -185 32 -6 43 -1 43 18 0 7 18 66
39 129 l40 116 -22 14 c-58 37 -59 35 -94 -92z"/>
<path d="M3988 2353 c-9 -2 -26 -29 -39 -60 -12 -31 -46 -95 -76 -144 -29 -49
-53 -93 -53 -99 0 -14 -56 -124 -86 -169 -13 -20 -30 -56 -39 -80 l-15 -43 28
6 c15 4 87 9 161 12 81 2 140 9 148 16 25 21 51 81 72 170 11 48 32 115 46
150 30 73 55 165 55 200 0 22 -5 25 -83 36 -86 12 -91 13 -119 5z"/>
<path d="M3488 2323 c-41 -44 -56 -84 -79 -205 -12 -62 -40 -189 -62 -283 -26
-109 -41 -195 -41 -239 l-1 -70 40 -28 c22 -15 58 -30 81 -34 l40 -6 19 69
c27 100 72 201 166 374 115 209 167 328 153 350 -3 5 -31 9 -63 9 -56 0 -59 1
-71 30 -18 44 -47 60 -105 60 -43 0 -55 -4 -77 -27z"/>
<path d="M5608 2255 c-42 -41 -83 -87 -91 -102 -20 -40 -31 -103 -17 -103 15
0 193 174 210 205 10 19 11 30 2 50 -6 14 -15 25 -19 25 -5 0 -43 -34 -85 -75z"/>
<path d="M5895 2285 c-29 -8 -59 -24 -72 -40 -25 -28 -31 -73 -10 -80 15 -6
211 61 215 73 1 5 -2 21 -7 35 -12 31 -44 34 -126 12z"/>
<path d="M5040 2231 c0 -47 2 -51 48 -84 26 -19 79 -54 117 -77 39 -24 97 -71
130 -106 81 -87 120 -85 78 4 -26 56 -229 256 -290 286 -76 38 -83 35 -83 -23z"/>
<path d="M4639 2223 c-5 -15 -7 -39 -4 -54 6 -28 15 -31 267 -89 86 -20 88
-19 88 46 0 28 -5 36 -27 45 -60 22 -221 67 -266 72 -45 6 -48 5 -58 -20z"/>
<path d="M5674 2168 c-40 -32 -135 -140 -166 -187 -10 -14 -18 -36 -18 -48 0
-20 3 -21 27 -12 15 5 50 31 78 57 29 26 77 66 109 90 66 49 73 62 56 102 -16
39 -38 38 -86 -2z"/>
<path d="M5922 2141 c-46 -16 -86 -32 -89 -35 -9 -8 18 -66 31 -66 27 1 198
48 208 58 7 7 7 20 1 39 -13 39 -49 40 -151 4z"/>
<path d="M5050 2072 c0 -49 1 -52 48 -83 26 -17 90 -62 142 -99 112 -79 189
-125 197 -117 11 12 -8 57 -38 92 -44 49 -198 166 -311 234 l-38 23 0 -50z"/>
<path d="M4617 2093 c-3 -4 -8 -27 -12 -49 l-6 -42 68 -11 c92 -16 166 -38
239 -71 l62 -28 5 52 c4 40 2 54 -11 64 -21 16 -184 68 -242 76 -25 4 -57 9
-72 12 -14 3 -28 2 -31 -3z"/>
<path d="M5751 2039 c-36 -14 -249 -177 -261 -199 -34 -64 14 -62 99 3 29 23
77 59 106 79 103 73 140 151 56 117z"/>
<path d="M5930 2014 c-50 -22 -70 -43 -70 -76 0 -33 16 -36 63 -11 18 9 63 21
101 27 79 13 106 36 72 62 -26 18 -121 18 -166 -2z"/>
<path d="M1975 1953 c-11 -2 -30 -6 -43 -9 -32 -7 -62 -40 -62 -69 l0 -24 108
2 c111 2 165 -10 177 -40 3 -9 4 -17 3 -19 -2 -1 -30 7 -63 18 -75 25 -128 20
-274 -27 -213 -69 -419 -116 -535 -122 l-108 -6 -35 -54 c-45 -70 -63 -124
-63 -185 0 -60 19 -99 62 -129 68 -48 165 -149 276 -289 148 -187 189 -230
222 -230 14 0 45 -12 70 -26 25 -14 91 -41 146 -59 56 -18 124 -45 152 -59
l50 -25 70 19 c96 27 226 85 230 103 5 24 -56 135 -101 184 -55 59 -103 83
-170 83 -83 0 -114 -15 -136 -66 -22 -50 -59 -71 -92 -54 -24 13 -24 22 1 45
11 10 20 23 20 29 0 6 -40 34 -88 63 -99 57 -259 176 -342 252 l-55 50 25 20
c42 33 87 35 211 6 148 -35 300 -42 434 -21 55 9 147 23 205 32 58 9 107 18
109 20 3 2 -1 10 -7 16 -22 22 -12 36 37 53 144 47 135 119 -25 213 -84 49
-105 69 -83 83 25 17 82 -1 168 -53 74 -45 86 -49 96 -35 10 15 13 15 27 1 14
-14 14 -22 -5 -75 -11 -33 -17 -62 -14 -65 6 -6 111 14 278 52 l106 25 37 62
c42 70 42 92 4 120 -21 16 -42 20 -90 19 -54 0 -67 3 -89 25 -35 33 -85 43
-149 30 -50 -10 -53 -9 -74 18 -22 27 -23 27 -132 26 -123 -2 -207 15 -266 54
-33 22 -48 25 -120 24 -46 -1 -92 -3 -103 -6z m-370 -480 c141 -39 319 -41
550 -8 17 2 3 -5 -30 -16 -125 -43 -440 -35 -650 17 -88 22 -94 25 -65 35 33
10 86 3 195 -28z"/>
<path d="M5041 1938 c4 -66 12 -77 86 -112 40 -19 105 -57 145 -84 84 -57 158
-96 165 -88 12 12 -22 69 -64 106 -54 47 -203 150 -260 179 -55 27 -73 27 -72
-1z"/>
<path d="M4575 1938 c-36 -109 -81 -278 -72 -278 2 0 24 7 48 16 62 22 124 12
227 -35 48 -22 103 -42 122 -43 l34 -3 12 85 c7 47 16 101 19 121 l7 37 -65
31 c-112 53 -322 97 -332 69z"/>
<path d="M5742 1910 c-73 -40 -189 -135 -213 -174 -20 -33 -25 -76 -9 -76 23
0 179 110 253 179 28 27 37 43 37 68 0 18 -3 33 -7 33 -5 0 -32 -14 -61 -30z"/>
<path d="M6013 1905 c-40 -7 -87 -22 -105 -32 l-33 -19 -1 -110 c0 -61 -5
-118 -11 -128 -11 -19 -13 -9 -29 142 -4 34 -11 62 -17 62 -19 0 -121 -62
-200 -123 -101 -76 -136 -132 -109 -175 7 -10 24 -5 78 20 96 46 162 46 224 1
24 -18 49 -33 55 -33 16 0 48 37 80 93 41 72 78 103 150 127 72 24 68 10 41
135 -13 59 -17 60 -123 40z"/>
<path d="M3187 1763 c-82 -162 -159 -390 -134 -398 97 -29 164 -32 171 -7 9
32 25 135 46 301 20 157 20 164 3 177 -10 7 -23 14 -29 14 -7 0 -32 -39 -57
-87z"/>
<path d="M5030 1808 c-1 -2 -7 -39 -15 -83 -8 -44 -15 -97 -15 -118 l0 -38 38
8 c78 17 153 7 267 -35 138 -51 149 -53 153 -26 7 47 -15 69 -149 151 -171
103 -277 157 -279 141z"/>
<path d="M6355 1760 c-16 -11 -47 -20 -67 -20 -47 0 -55 -13 -26 -41 48 -46
127 -73 226 -77 88 -4 92 -4 92 17 0 11 -4 21 -10 21 -5 0 -39 27 -76 60 -72
65 -92 71 -139 40z"/>
<path d="M3761 1706 l-94 -11 -35 -45 c-41 -53 -71 -116 -72 -147 0 -21 5 -23
48 -23 87 1 194 19 227 40 43 27 71 25 91 -5 14 -21 15 -30 5 -52 -11 -24 -14
-25 -59 -17 -26 5 -72 8 -102 7 -80 -2 -231 -33 -227 -47 6 -20 100 -45 169
-46 80 0 357 34 485 61 209 42 513 143 513 170 0 5 -18 14 -41 20 -33 10 -50
10 -87 -1 -148 -42 -207 -41 -267 4 -62 48 -90 56 -186 56 -83 0 -94 2 -121
25 -34 29 -79 31 -247 11z"/>
<path d="M6135 1672 c-11 -2 -46 -28 -77 -58 -31 -30 -61 -54 -66 -54 -5 0
-17 -19 -27 -42 -10 -24 -25 -51 -33 -60 -23 -28 -68 -22 -119 14 -63 45 -109
43 -220 -13 -118 -58 -150 -60 -254 -15 -131 56 -167 66 -231 66 l-59 0 44
-57 c24 -32 62 -83 84 -113 50 -68 132 -119 258 -159 145 -47 226 -56 485 -56
249 1 399 15 628 60 l117 23 40 -25 c108 -70 296 -321 396 -530 27 -56 59
-109 71 -117 13 -10 43 -16 74 -16 49 0 53 -2 89 -45 23 -29 48 -48 66 -52 23
-4 29 -11 29 -33 0 -44 40 -73 110 -78 l60 -4 0 51 c0 59 11 64 51 25 27 -26
27 -26 105 -13 131 20 141 50 63 195 -58 108 -95 149 -146 163 -38 11 -56 5
-102 -30 -13 -11 -32 -19 -42 -19 -14 0 -19 -7 -19 -28 0 -15 -5 -33 -12 -40
-16 -16 -60 -15 -83 2 -17 12 -18 18 -6 56 14 49 23 33 -109 200 -128 161
-261 363 -321 484 -43 90 -56 108 -99 137 -29 20 -50 42 -50 52 0 34 -20 57
-48 57 -16 0 -71 -11 -123 -25 -51 -13 -112 -25 -135 -25 -56 0 -134 25 -229
73 -85 42 -127 56 -160 49z"/>
<path d="M4671 1521 c-19 -12 -7 -39 24 -51 15 -6 67 -10 116 -10 l91 0 26
-61 27 -61 40 7 c50 8 59 17 51 51 -12 46 -70 92 -147 115 -64 19 -71 20 -93
5 -22 -14 -30 -14 -73 -1 -26 8 -48 15 -48 15 0 0 -6 -4 -14 -9z"/>
<path d="M2765 1505 c-155 -25 -245 -56 -245 -84 0 -3 33 -7 73 -8 39 -1 113
-7 162 -12 165 -18 230 -22 244 -13 15 11 52 112 45 124 -8 12 -189 7 -279 -7z"/>
<path d="M3286 1433 c-14 -29 -21 -62 -18 -94 3 -23 72 -49 131 -49 l49 0 17
51 c20 59 21 57 -62 89 -93 35 -100 35 -117 3z"/>
<path d="M6483 1142 c-10 -6 -9 -18 2 -54 7 -26 25 -110 39 -186 33 -175 57
-255 97 -315 33 -51 43 -55 69 -32 15 14 25 6 114 -89 92 -99 136 -132 144
-108 2 6 13 23 24 38 20 25 22 26 35 8 7 -10 13 -27 13 -38 1 -30 107 -97 164
-103 42 -5 43 -4 50 27 10 52 7 98 -8 135 -12 29 -23 37 -61 47 -61 16 -100
61 -122 138 -16 57 -18 60 -48 60 -18 0 -46 -5 -64 -11 -27 -10 -35 -8 -52 7
-12 11 -19 28 -18 44 2 15 -9 41 -28 68 -30 41 -55 102 -105 261 l-24 74 -75
18 c-80 20 -127 23 -146 11z"/>
</g>
</svg>
