<?xml version="1.0" standalone="no"?>
<!DOCTYPE svg PUBLIC "-//W3C//DTD SVG 20010904//EN"
 "http://www.w3.org/TR/2001/REC-SVG-20010904/DTD/svg10.dtd">
<svg version="1.0" xmlns="http://www.w3.org/2000/svg"
 width="2400.000000pt" height="1017.000000pt" viewBox="0 0 2400.000000 1017.000000"
 preserveAspectRatio="xMidYMid meet">

<g transform="translate(0.000000,1017.000000) scale(0.100000,-0.100000)"
fill="#000000" stroke="none">
<path d="M5855 10164 c-211 -20 -278 -29 -395 -50 -853 -156 -1804 -619 -2711
-1321 -482 -373 -992 -871 -1376 -1345 -739 -911 -1204 -1899 -1332 -2828 -76
-554 -42 -1164 95 -1714 403 -1614 1696 -2650 3575 -2866 763 -88 1517 -22
2444 212 581 146 1178 339 2240 723 1225 443 1679 593 2180 719 499 126 860
178 1230 178 306 0 542 -38 770 -123 l90 -34 93 72 c363 283 831 546 1232 691
184 67 346 111 519 141 l105 17 -65 37 c-132 73 -391 167 -559 202 -179 38
-283 47 -539 46 -952 -3 -1910 -186 -2986 -571 -372 -134 -732 -277 -1305
-520 -1157 -491 -1524 -636 -2035 -803 -968 -318 -1895 -466 -2770 -443 -1310
34 -2167 400 -2660 1136 -399 596 -528 1512 -350 2485 195 1070 780 2371 1522
3389 1002 1374 2158 2146 3218 2149 198 1 274 -11 417 -63 248 -90 426 -288
494 -545 28 -105 26 -340 -3 -456 -26 -104 -85 -242 -136 -322 l-37 -58 -43
26 c-76 47 -271 142 -344 169 -104 37 -182 47 -267 36 -247 -34 -444 -280
-449 -560 -1 -64 3 -84 26 -132 65 -133 256 -237 493 -269 153 -20 294 9 467
99 351 180 590 523 668 958 30 165 32 442 5 564 -114 521 -489 863 -1046 955
-91 15 -392 27 -475 19z"/>
<path d="M15857 9348 c-41 -72 -1171 -2118 -1216 -2204 -126 -237 -227 -310
-346 -252 -28 14 -88 45 -135 70 -115 63 -204 89 -325 95 -250 14 -543 -52
-810 -182 -373 -181 -724 -498 -1022 -923 -259 -369 -475 -839 -513 -1114
l-12 -83 -107 -105 c-260 -256 -511 -391 -707 -378 -76 5 -109 25 -141 88 -29
56 -30 126 -2 216 29 96 57 144 306 529 397 614 567 917 664 1181 29 80 33
100 33 199 1 108 0 113 -36 187 -68 137 -189 230 -363 280 -110 31 -315 31
-459 0 -198 -43 -462 -152 -668 -275 l-77 -46 -50 62 c-175 218 -381 331 -571
312 -194 -20 -410 -138 -614 -334 -170 -165 -222 -236 -461 -631 -655 -1083
-1009 -1550 -1277 -1686 -117 -59 -243 -30 -294 68 -39 76 -35 231 11 375 17
54 194 394 576 1108 303 567 557 1042 565 1058 l15 27 -388 -1 -388 0 -59 -69
-59 -70 -41 26 c-82 50 -273 142 -356 172 -155 54 -227 65 -384 59 -232 -10
-417 -62 -681 -192 -272 -134 -512 -311 -760 -559 -415 -416 -683 -874 -782
-1339 -25 -116 -25 -380 0 -496 39 -182 112 -318 237 -442 71 -71 103 -94 181
-133 143 -70 225 -89 399 -90 164 -1 251 14 415 71 231 80 517 257 701 435
l42 40 43 -83 c145 -278 361 -446 617 -480 78 -11 103 -10 179 5 161 31 314
122 432 259 83 96 367 524 911 1377 331 519 504 783 556 846 68 84 200 142
296 131 108 -13 178 -81 178 -172 0 -71 -5 -83 -159 -400 -169 -345 -905
-1774 -1002 -1943 -11 -18 -19 -35 -19 -38 0 -2 159 -4 354 -4 l354 0 300 548
c343 626 700 1285 821 1514 46 86 107 186 137 222 104 126 298 255 410 272 81
12 134 -3 179 -50 48 -49 64 -94 72 -196 4 -55 1 -91 -11 -132 -28 -96 -112
-251 -243 -446 -476 -707 -543 -815 -611 -992 -53 -136 -65 -269 -36 -408 52
-252 217 -386 505 -408 328 -25 736 171 1244 600 49 42 93 76 96 76 4 0 10
-19 14 -42 13 -79 57 -202 103 -293 82 -159 213 -267 377 -310 35 -9 102 -15
166 -15 303 0 646 170 1027 509 46 40 84 72 85 70 1 -2 13 -37 26 -77 53 -161
180 -333 305 -414 163 -105 384 -120 624 -42 229 75 537 267 824 515 81 70 98
80 98 56 0 -7 27 -67 59 -132 200 -403 522 -595 890 -531 312 55 652 259 1028
620 l122 117 40 -79 c101 -201 279 -419 444 -543 92 -69 250 -149 357 -180
106 -30 340 -38 465 -14 209 38 424 133 660 290 277 184 520 408 868 801 l36
40 -40 67 -40 67 -102 -92 c-359 -322 -786 -599 -1053 -682 -203 -63 -408 -52
-579 29 -274 131 -373 438 -272 842 l22 88 118 32 c878 235 1497 659 1655
1134 104 315 52 585 -133 693 -143 84 -394 77 -665 -20 -141 -51 -338 -152
-490 -252 -557 -366 -989 -901 -1173 -1452 -38 -115 -87 -321 -87 -366 0 -56
-377 -399 -600 -545 -297 -196 -519 -223 -643 -79 -20 24 -44 66 -54 94 -25
73 -23 217 6 326 76 288 343 823 997 2002 57 102 104 189 104 192 0 4 -167 5
-371 4 l-371 -3 -180 -320 c-566 -1008 -901 -1579 -1025 -1745 -303 -408 -723
-629 -929 -488 -42 29 -80 99 -88 163 -8 61 13 181 47 262 13 32 569 1076
1235 2320 667 1244 1212 2265 1212 2268 0 3 -166 5 -369 5 l-369 0 -25 -42z
m3626 -2542 c47 -19 94 -77 102 -126 29 -169 -137 -450 -414 -704 -190 -173
-444 -336 -691 -441 -113 -48 -312 -117 -319 -110 -7 7 130 282 216 435 285
503 617 853 893 941 66 22 169 24 213 5z m-13118 -22 c164 -39 301 -161 329
-291 10 -44 -8 -130 -47 -227 -18 -45 -128 -255 -244 -467 -116 -211 -250
-456 -298 -544 -304 -560 -603 -830 -945 -852 -150 -10 -304 49 -412 158 -125
125 -153 260 -104 504 111 546 331 970 675 1297 242 230 557 399 816 438 61 9
150 3 230 -16z m7551 -49 c108 -32 195 -115 230 -220 91 -268 -190 -869 -651
-1395 -272 -310 -560 -530 -774 -594 -70 -21 -184 -21 -245 0 -64 22 -147 100
-177 166 -30 68 -32 208 -5 313 100 382 457 962 825 1338 213 219 397 348 559
392 64 18 178 18 238 0z"/>
<path d="M17450 8739 c-337 -56 -545 -522 -329 -738 70 -71 220 -112 332 -91
227 43 431 336 403 577 -9 75 -30 121 -79 171 -68 70 -199 102 -327 81z"/>
<path d="M21525 8646 l-300 -82 1 -29 c0 -17 6 -76 12 -133 57 -495 -87 -1046
-391 -1497 l-41 -60 40 29 c312 233 610 565 782 871 104 186 186 421 211 608
17 123 11 379 -8 376 -3 0 -141 -38 -306 -83z"/>
<path d="M22256 6970 c-138 -273 -271 -454 -487 -666 -227 -220 -508 -399
-774 -490 -44 -15 -84 -31 -89 -35 -15 -13 124 -22 263 -16 332 14 679 147
1069 410 73 49 135 88 137 86 2 -2 13 -53 25 -114 67 -351 68 -733 1 -1031
-124 -553 -487 -978 -883 -1034 -134 -19 -293 22 -381 99 -36 32 -97 139 -97
171 0 12 11 20 34 24 59 11 172 74 211 117 21 23 49 67 64 98 23 49 26 69 26
161 0 94 -3 111 -28 166 -55 118 -152 183 -284 192 -131 8 -254 -45 -369 -158
-134 -133 -170 -268 -124 -466 42 -181 153 -351 299 -459 303 -222 906 -271
1302 -106 249 104 464 316 589 584 111 236 158 510 131 762 -17 154 -58 352
-145 695 -84 331 -98 414 -85 485 18 95 103 229 263 410 124 141 153 196 121
229 -15 14 -55 16 -370 16 l-354 0 -65 -130z"/>
<path d="M23599 6916 c-127 -45 -198 -147 -199 -282 0 -118 56 -210 164 -267
62 -33 202 -32 269 3 143 73 203 250 134 393 -34 67 -101 130 -164 151 -56 19
-154 20 -204 2z m207 -60 c180 -84 178 -360 -3 -443 -45 -21 -66 -25 -123 -21
-81 4 -135 35 -185 106 -25 37 -30 55 -33 117 -5 88 7 129 53 182 72 84 187
107 291 59z"/>
<path d="M23585 6798 c-3 -7 -4 -86 -3 -173 l3 -160 25 0 c24 0 25 3 28 73 3
72 3 72 31 72 24 0 34 -10 72 -72 35 -59 50 -74 72 -76 15 -2 27 -1 27 2 0 3
-20 37 -45 76 -25 39 -45 72 -45 75 0 3 8 5 18 5 10 0 29 12 43 26 33 35 31
96 -4 132 -24 24 -35 26 -122 30 -75 4 -96 1 -100 -10z m176 -48 c22 -12 26
-59 7 -78 -7 -7 -38 -12 -70 -12 l-58 0 0 50 0 50 51 0 c28 0 59 -5 70 -10z"/>
</g>
</svg>
