<?xml version="1.0" standalone="no"?>
<!DOCTYPE svg PUBLIC "-//W3C//DTD SVG 20010904//EN"
 "http://www.w3.org/TR/2001/REC-SVG-20010904/DTD/svg10.dtd">
<svg version="1.0" xmlns="http://www.w3.org/2000/svg"
 width="3840.000000pt" height="2160.000000pt" viewBox="0 0 3840.000000 2160.000000"
 preserveAspectRatio="xMidYMid meet">

<g transform="translate(0.000000,2160.000000) scale(0.100000,-0.100000)"
fill="#000000" stroke="none">
<path d="M14520 18489 c-1368 -128 -2548 -915 -3305 -2204 -385 -655 -626
-1410 -721 -2255 -22 -197 -30 -782 -15 -1006 109 -1545 785 -2907 1876 -3779
590 -472 1283 -765 2040 -862 175 -22 748 -26 915 -5 324 40 612 108 1060 252
461 148 584 175 810 175 117 0 171 -4 220 -18 181 -48 349 -175 414 -310 19
-40 37 -80 40 -90 5 -15 15 -18 58 -15 l53 3 3 1652 2 1653 -59 0 -59 0 -1
-107 c-9 -614 -207 -1259 -546 -1778 -164 -252 -411 -526 -630 -700 -429 -342
-923 -547 -1470 -610 -152 -18 -533 -20 -705 -5 -573 52 -1020 238 -1380 576
-319 301 -580 795 -753 1429 -147 535 -231 1116 -288 1985 -14 211 -20 1484
-8 1740 85 1895 460 3107 1132 3667 327 273 688 424 1167 489 161 21 607 30
752 14 1256 -136 2327 -1183 2502 -2446 9 -61 19 -168 22 -238 l7 -126 54 0
53 0 0 1445 0 1445 -53 0 c-53 0 -54 0 -72 -41 -42 -92 -190 -193 -360 -246
-86 -26 -100 -27 -295 -27 -284 -1 -321 6 -1101 208 -425 110 -611 137 -979
141 -157 2 -328 -1 -380 -6z"/>
<path d="M18410 18295 l0 -85 615 0 615 0 0 -4670 0 -4670 -615 0 -616 0 3
-87 3 -88 1920 0 1920 0 3 88 3 87 -551 0 -550 0 0 2385 0 2385 2000 0 2000 0
0 -2385 0 -2385 -545 0 -545 0 0 -88 0 -87 1973 1 c1084 1 1975 2 1980 3 4 0
7 39 7 86 l0 85 -670 0 -670 0 0 4670 0 4670 670 0 670 0 0 85 0 85 -1980 0
-1980 0 0 -85 0 -85 545 0 545 0 0 -2185 0 -2185 -2000 0 -2000 0 0 2185 0
2185 550 0 550 0 0 85 0 85 -1925 0 -1925 0 0 -85z"/>
<path d="M2970 4925 c-369 -63 -636 -236 -755 -487 -51 -109 -65 -175 -65
-313 0 -145 16 -220 72 -335 34 -71 57 -100 137 -180 145 -144 306 -225 551
-277 95 -21 145 -25 290 -26 195 -1 266 9 440 68 143 48 177 49 222 5 16 -17
40 -30 54 -30 l24 0 0 235 0 235 -23 0 c-20 0 -24 -7 -34 -66 -32 -187 -163
-307 -398 -366 -75 -19 -117 -22 -255 -23 -159 0 -168 1 -250 31 -258 92 -397
290 -431 618 -21 195 11 390 89 541 46 88 163 208 247 252 71 37 183 69 277
78 146 15 393 -35 500 -101 113 -69 184 -176 195 -290 5 -59 8 -64 29 -64 l24
0 0 235 c0 266 0 265 -71 200 -50 -45 -69 -45 -206 4 -61 22 -147 47 -193 55
-100 19 -361 20 -470 1z"/>
<path d="M4958 4588 c-536 -962 -621 -1115 -640 -1145 l-20 -33 -129 0 -129 0
0 -30 0 -30 316 0 315 0 -3 28 -3 27 -142 3 c-79 1 -143 6 -143 10 0 4 51 99
114 212 l114 205 389 3 388 2 113 -208 c61 -115 112 -212 112 -216 0 -3 -65
-6 -145 -6 l-145 0 0 -30 0 -30 491 0 490 0 -3 28 -3 27 -131 3 -130 3 -27 52
c-14 28 -47 90 -73 137 -25 47 -122 225 -214 395 -92 171 -218 405 -281 520
-62 116 -139 257 -170 315 -50 93 -59 105 -85 108 -29 3 -33 -3 -226 -350z
m167 -270 c66 -122 144 -266 173 -320 l54 -98 -351 0 c-193 0 -351 3 -351 6 0
4 29 59 64 123 74 134 103 185 206 374 41 75 77 137 80 137 3 0 59 -100 125
-222z"/>
<path d="M9456 4929 c-293 -43 -558 -186 -690 -373 -62 -87 -85 -136 -112
-244 -81 -320 40 -633 315 -816 194 -129 422 -190 716 -190 186 0 321 20 465
69 235 80 423 230 510 408 60 123 74 189 73 347 0 119 -3 145 -28 220 -99 308
-371 508 -780 575 -98 16 -369 18 -469 4z m312 -49 c264 -33 452 -188 532
-439 29 -93 43 -199 42 -331 0 -255 -64 -434 -201 -571 -126 -125 -263 -178
-462 -179 -317 0 -543 179 -626 498 -22 85 -25 118 -25 262 0 145 3 177 25
263 75 284 260 457 532 496 85 12 91 12 183 1z"/>
<path d="M17429 4918 c-7 -13 -120 -216 -252 -453 -132 -236 -285 -511 -340
-610 -103 -186 -207 -371 -231 -415 -14 -24 -18 -25 -145 -28 l-131 -3 0 -29
0 -30 310 0 310 0 0 30 0 29 -144 3 -144 3 116 210 117 210 390 0 390 0 15
-30 c8 -16 25 -46 36 -65 12 -19 49 -89 84 -155 35 -66 69 -129 76 -140 8 -11
14 -23 14 -27 0 -5 -65 -8 -145 -8 l-145 0 0 -30 0 -30 510 0 510 0 0 30 0 30
-153 0 -153 0 -104 193 c-57 105 -144 266 -193 357 -49 91 -120 221 -157 290
-37 69 -113 208 -168 310 -55 102 -123 228 -151 280 -44 85 -53 95 -80 98 -23
2 -33 -2 -42 -20z m-51 -536 c44 -81 110 -203 147 -272 37 -69 78 -144 91
-167 l24 -43 -356 0 -355 0 38 68 c21 37 101 181 178 319 76 139 142 250 146
247 4 -2 43 -70 87 -152z"/>
<path d="M35374 4873 c-21 -38 -99 -178 -174 -313 -76 -135 -153 -274 -173
-310 -20 -36 -132 -238 -250 -450 l-215 -385 -133 -5 -133 -5 -1 -27 -2 -28
319 0 319 0 -3 28 -3 27 -146 5 -147 5 117 212 116 212 393 1 c223 0 392 -4
392 -9 0 -5 20 -44 43 -87 111 -201 177 -324 177 -329 0 -3 -65 -5 -145 -5
l-145 0 0 -30 0 -30 505 0 505 0 0 30 0 30 -148 0 -148 0 -28 53 c-128 236
-314 581 -336 622 -15 28 -87 160 -160 295 -73 135 -146 270 -162 300 -17 30
-55 101 -85 158 -50 93 -57 102 -83 102 -25 0 -34 -9 -66 -67z m62 -651 l170
-317 -172 -3 c-95 -1 -253 -1 -352 0 l-179 3 176 318 c97 174 178 317 181 317
3 -1 82 -143 176 -318z"/>
<path d="M6410 4870 l0 -30 150 0 150 0 0 -715 0 -715 -150 0 -150 0 0 -30 0
-30 485 0 485 0 0 30 0 30 -150 0 -150 0 0 360 0 360 163 0 163 0 131 -212
c226 -369 295 -483 300 -495 4 -9 -26 -13 -118 -15 l-123 -3 -1 -27 -2 -28
504 0 504 0 -3 28 -3 27 -153 5 -153 5 -174 280 -173 280 -75 6 c-41 4 -99 12
-128 19 -62 14 -203 77 -239 107 l-24 21 109 6 c388 23 569 94 635 248 34 79
31 201 -7 275 -35 70 -99 125 -188 162 -165 69 -321 81 -1052 81 l-563 0 0
-30z m1177 -40 c143 -16 219 -63 265 -165 19 -42 22 -67 22 -156 0 -99 -2
-111 -29 -165 -19 -37 -45 -68 -70 -86 -74 -52 -125 -60 -422 -65 l-273 -5 0
326 0 326 213 0 c116 0 249 -4 294 -10z"/>
<path d="M10970 4870 l0 -30 150 0 150 0 0 -715 0 -715 -150 0 -150 0 0 -30 0
-30 870 0 870 0 0 280 0 280 -30 0 c-27 0 -30 -3 -30 -33 0 -47 -26 -139 -56
-198 -37 -75 -112 -144 -197 -184 -140 -67 -255 -85 -544 -85 l-213 0 0 715 0
715 150 0 150 0 0 30 0 30 -485 0 -485 0 0 -30z"/>
<path d="M12960 4870 l0 -30 150 0 150 0 0 -715 0 -715 -150 0 -150 0 0 -30 0
-30 485 0 485 0 0 30 0 30 -150 0 -150 0 0 715 0 715 150 0 150 0 0 30 0 30
-485 0 -485 0 0 -30z"/>
<path d="M14247 4893 c-4 -3 -7 -17 -7 -30 l0 -23 150 0 150 0 0 -715 0 -714
-147 -3 -148 -3 -3 -27 -3 -28 325 0 326 0 0 30 0 30 -150 0 -150 0 0 710 c0
391 2 710 4 710 4 0 1368 -1409 1435 -1482 28 -32 52 -48 67 -48 l24 0 0 770
0 770 156 0 155 0 -3 28 -3 27 -327 3 -328 2 0 -30 0 -30 150 0 150 0 0 -487
0 -486 -511 516 -511 517 -397 0 c-219 0 -401 -3 -404 -7z"/>
<path d="M20150 4870 l0 -30 150 0 150 0 0 -715 0 -715 -150 0 -150 0 0 -30 0
-30 486 0 485 0 -3 28 -3 27 -147 3 -148 3 0 359 0 360 460 0 460 0 0 -360 0
-360 -149 0 -149 0 -4 -25 c-3 -13 -3 -27 0 -30 3 -3 223 -5 489 -5 l484 0 -3
28 -3 27 -147 3 -148 3 0 714 0 715 151 0 150 0 -3 28 -3 27 -482 3 -483 2 0
-30 0 -30 150 0 150 0 0 -325 0 -325 -460 0 -460 0 0 325 0 325 151 0 150 0
-3 28 -3 27 -482 3 -483 2 0 -30z"/>
<path d="M22659 4890 c-6 -47 -13 -45 149 -48 l152 -3 0 -714 0 -715 -150 0
c-113 0 -150 -3 -151 -12 0 -7 -2 -21 -4 -30 -3 -17 46 -18 911 -18 l914 0 0
280 0 280 -24 0 c-21 0 -24 -6 -35 -73 -29 -182 -140 -310 -319 -373 -122 -42
-234 -54 -519 -54 l-263 0 0 360 0 360 128 0 c150 0 248 -19 312 -58 61 -38
101 -115 108 -211 4 -67 6 -71 28 -71 l24 0 0 375 0 375 -25 0 c-23 0 -25 -4
-25 -47 0 -68 -28 -155 -62 -197 -58 -70 -135 -93 -350 -103 l-138 -6 0 326 0
327 218 0 c446 0 637 -39 761 -155 73 -68 109 -153 126 -297 6 -53 9 -58 31
-58 l24 0 0 285 0 285 -910 0 c-599 0 -910 -3 -911 -10z"/>
<path d="M24898 4894 c-5 -4 -8 -18 -8 -31 l0 -23 155 0 155 0 0 -715 0 -714
-152 -3 -153 -3 -3 -27 -3 -28 485 0 486 0 0 30 0 30 -150 0 -150 0 0 360 0
360 167 -2 166 -3 219 -355 218 -355 -125 -3 -125 -3 0 -29 0 -30 500 0 500 0
0 30 0 30 -152 0 -153 0 -140 227 c-77 124 -156 252 -175 283 l-35 57 -80 6
c-44 4 -106 13 -138 22 -67 17 -190 74 -226 103 l-25 20 120 6 c311 18 470 63
568 163 111 113 116 304 10 422 -70 78 -178 126 -354 157 -80 14 -195 18 -745
21 -357 3 -653 1 -657 -3z m1270 -82 c131 -42 183 -118 190 -278 5 -114 -14
-189 -63 -243 -73 -81 -176 -101 -511 -101 l-224 0 0 326 0 326 273 -4 c238
-5 280 -8 335 -26z"/>
<path d="M27240 4871 l0 -31 150 0 150 0 0 -715 0 -715 -150 0 -150 0 0 -30 0
-30 486 0 485 0 -3 28 -3 27 -147 3 -148 3 0 359 0 360 163 0 163 0 74 -122
c41 -67 103 -167 137 -222 101 -166 218 -359 221 -367 2 -5 -52 -10 -120 -11
l-123 -3 -3 -27 -3 -28 506 0 506 0 -3 28 -3 27 -154 5 -154 5 -173 280 -173
280 -78 7 c-43 3 -108 14 -143 23 -67 17 -185 72 -227 105 -23 18 -22 18 94
25 393 22 582 99 637 262 19 55 21 175 4 224 -45 133 -181 217 -415 256 -81
13 -208 17 -750 20 l-653 5 0 -31z m1180 -42 c179 -22 255 -89 280 -245 12
-77 0 -184 -27 -242 -27 -57 -80 -100 -152 -124 -59 -19 -95 -21 -338 -26
l-273 -4 0 326 0 326 213 0 c117 0 251 -5 297 -11z"/>
<path d="M29620 4870 l0 -30 150 0 150 0 0 -715 0 -715 -150 0 -150 0 0 -30 0
-30 915 0 915 0 0 280 0 280 -28 0 c-27 0 -28 -3 -39 -74 -39 -240 -199 -371
-508 -416 -38 -5 -186 -10 -327 -10 l-258 0 0 361 0 362 158 -6 c187 -6 245
-21 308 -82 45 -43 67 -97 79 -199 7 -50 10 -56 31 -56 l24 0 0 375 0 375 -23
0 c-22 0 -25 -6 -35 -82 -17 -120 -51 -174 -133 -215 -52 -27 -83 -35 -168
-43 -57 -5 -134 -10 -172 -10 l-69 0 0 326 0 327 288 -6 c316 -6 425 -19 543
-64 165 -65 248 -181 266 -375 6 -67 6 -68 35 -68 l28 0 -2 283 -3 282 -912 3
-913 2 0 -30z"/>
<path d="M31938 4894 c-5 -4 -8 -18 -8 -31 l0 -23 150 0 c113 0 150 -3 151
-12 3 -43 4 -1386 1 -1400 -4 -15 -21 -18 -151 -20 l-146 -3 -3 -27 -3 -28
485 0 486 0 0 30 0 30 -150 0 -150 0 0 360 0 360 167 -2 167 -3 73 -120 c40
-66 103 -168 138 -227 36 -59 101 -165 145 -235 l79 -128 -124 -3 -125 -3 0
-29 0 -30 500 0 500 0 0 30 0 30 -152 0 -153 0 -160 257 c-88 141 -166 268
-174 283 -12 25 -19 28 -95 33 -109 8 -185 29 -283 78 -97 49 -120 69 -77 69
80 0 310 22 371 34 84 18 175 51 224 82 99 62 156 174 147 288 -13 154 -110
258 -292 311 -152 44 -193 47 -876 52 -360 3 -658 1 -662 -3z m1257 -78 c86
-24 134 -61 170 -131 28 -55 30 -65 29 -174 0 -128 -10 -164 -64 -224 -66 -76
-178 -97 -512 -97 l-218 0 0 326 0 326 268 -5 c205 -3 281 -8 327 -21z"/>
</g>
</svg>
