<?xml version="1.0" standalone="no"?>
<!DOCTYPE svg PUBLIC "-//W3C//DTD SVG 20010904//EN"
 "http://www.w3.org/TR/2001/REC-SVG-20010904/DTD/svg10.dtd">
<svg version="1.0" xmlns="http://www.w3.org/2000/svg"
 width="2560.000000pt" height="1720.000000pt" viewBox="0 0 2560.000000 1720.000000"
 preserveAspectRatio="xMidYMid meet">

<g transform="translate(0.000000,1720.000000) scale(0.100000,-0.100000)"
fill="#000000" stroke="none">
<path d="M9940 17195 c0 -3 1175 -1387 2611 -3076 1436 -1689 2612 -3076 2615
-3083 2 -6 -1177 -1399 -2621 -3095 -1444 -1696 -2625 -3085 -2625 -3087 0 -2
1000 -4 2223 -4 l2223 0 2789 3084 c1533 1695 2787 3087 2785 3092 -2 5 -1262
1396 -2799 3091 l-2796 3082 -2202 0 c-1212 1 -2203 -1 -2203 -4z"/>
<path d="M8759 13437 c-724 -985 -754 -1024 -779 -1016 -164 54 -2435 749
-2441 747 -4 -2 313 -487 707 -1078 393 -590 713 -1079 711 -1085 -3 -5 -318
-493 -701 -1083 -383 -591 -696 -1075 -696 -1077 0 -1 548 179 1218 401 669
222 1222 402 1228 400 6 -2 350 -445 765 -983 414 -538 770 -1000 792 -1027
l38 -50 -2 1294 -2 1294 29 13 c24 11 1954 727 2331 866 62 22 110 44 105 48
-4 4 -560 188 -1237 409 -676 221 -1234 406 -1240 411 -5 6 -19 515 -35 1268
-14 693 -28 1262 -31 1265 -3 4 -345 -454 -760 -1017z"/>
<path d="M21245 3173 c-306 -40 -599 -172 -796 -360 -195 -186 -290 -399 -290
-653 -1 -96 3 -128 25 -195 71 -222 257 -414 557 -574 142 -76 239 -111 352
-127 327 -49 586 -129 714 -223 82 -59 105 -158 54 -229 -46 -66 -170 -121
-322 -143 -113 -16 -304 -6 -399 21 -164 47 -388 174 -543 309 l-68 59 -142
-147 c-78 -80 -188 -193 -244 -252 -57 -58 -103 -113 -103 -122 0 -10 21 -40
46 -67 170 -182 652 -364 1109 -420 133 -17 402 -14 526 4 478 72 791 331 863
715 40 209 6 418 -97 596 -51 88 -196 236 -295 300 -181 116 -358 181 -551
200 -75 8 -161 19 -191 25 -217 41 -369 118 -424 213 -67 117 -27 223 111 292
112 56 273 69 409 35 109 -28 299 -125 422 -216 86 -64 106 -74 116 -63 41 46
407 442 444 481 l45 46 -67 49 c-293 212 -653 383 -911 432 -99 20 -259 26
-350 14z"/>
<path d="M1445 3114 c-213 -30 -353 -69 -512 -144 -535 -252 -904 -799 -930
-1380 -19 -430 127 -824 406 -1093 187 -180 399 -297 666 -367 187 -49 244
-55 485 -55 195 1 239 4 330 23 226 49 433 136 623 261 112 74 262 196 321
261 32 35 36 44 25 55 -8 8 -155 115 -327 239 l-313 226 -73 -64 c-150 -131
-323 -228 -470 -266 -121 -31 -231 -23 -369 25 -187 65 -360 231 -441 422
-142 338 3 757 327 942 234 134 569 130 783 -10 69 -45 142 -119 177 -181 12
-21 25 -38 29 -38 6 0 747 427 758 437 15 14 -317 284 -487 396 -224 147 -389
226 -596 283 -75 21 -119 26 -237 29 -80 2 -158 1 -175 -1z"/>
<path d="M4591 3070 c-263 -33 -541 -146 -752 -305 -111 -83 -280 -259 -351
-366 -92 -139 -170 -308 -212 -459 -48 -172 -64 -435 -37 -615 134 -895 1021
-1483 1916 -1270 595 141 1048 610 1167 1208 29 148 31 404 4 547 -121 628
-597 1107 -1231 1240 -116 24 -385 34 -504 20z m404 -785 c245 -68 450 -261
530 -500 93 -277 24 -567 -184 -776 -91 -90 -183 -146 -311 -191 -91 -31 -102
-33 -245 -33 -144 0 -154 2 -245 33 -213 74 -356 198 -455 394 -62 123 -79
210 -72 367 4 93 11 143 27 191 92 271 303 463 575 524 89 20 293 15 380 -9z"/>
<path d="M6940 1600 l0 -1440 373 2 372 3 5 772 5 773 618 -775 619 -775 369
0 369 0 0 1440 0 1440 -375 0 -375 0 0 -835 c0 -459 -3 -835 -7 -835 -5 0
-282 376 -618 835 l-609 835 -373 0 -373 0 0 -1440z"/>
<path d="M10290 3031 c0 -7 830 -2361 1002 -2843 l10 -28 559 0 c307 0 559 2
559 4 0 3 227 647 505 1432 278 786 505 1432 505 1436 0 4 -184 8 -409 8
l-408 0 -202 -612 c-112 -337 -280 -848 -374 -1135 -95 -287 -174 -523 -177
-523 -3 0 -174 511 -380 1135 l-374 1135 -408 0 c-250 0 -408 -4 -408 -9z"/>
<path d="M13975 3028 c-3 -7 -4 -654 -3 -1438 l3 -1425 1155 0 1155 0 0 330 0
330 -777 3 -778 2 0 240 0 240 700 0 700 0 0 290 0 290 -700 0 -700 0 0 230 0
230 778 2 777 3 0 340 0 340 -1153 3 c-917 2 -1154 0 -1157 -10z"/>
<path d="M23290 1600 l0 -1440 1155 0 1155 0 0 335 0 335 -780 0 -780 0 0 240
0 240 700 0 700 0 0 290 0 290 -700 0 -700 0 0 230 0 230 780 0 780 0 0 345 0
345 -1155 0 -1155 0 0 -1440z"/>
<path d="M17140 1565 l0 -1415 330 0 330 0 2 558 3 557 190 3 190 2 295 -560
294 -560 428 0 c235 0 428 2 428 5 0 2 -128 272 -285 599 -157 326 -285 598
-285 603 0 5 30 29 67 54 142 93 287 267 351 420 89 215 81 461 -20 664 -106
211 -293 368 -546 459 l-73 26 -850 0 -849 0 0 -1415z m1493 721 c78 -28 120
-96 120 -191 0 -99 -56 -181 -141 -205 -22 -6 -190 -10 -429 -10 l-393 0 0
210 0 210 403 0 c313 -1 410 -4 440 -14z"/>
</g>
</svg>
