<?xml version="1.0" standalone="no"?>
<!DOCTYPE svg PUBLIC "-//W3C//DTD SVG 20010904//EN"
 "http://www.w3.org/TR/2001/REC-SVG-20010904/DTD/svg10.dtd">
<svg version="1.0" xmlns="http://www.w3.org/2000/svg"
 width="1280.000000pt" height="720.000000pt" viewBox="0 0 1280.000000 720.000000"
 preserveAspectRatio="xMidYMid meet">

<g transform="translate(0.000000,720.000000) scale(0.100000,-0.100000)"
fill="#000000" stroke="none">
<path d="M10791 3987 c-35 -100 -119 -345 -188 -544 l-126 -363 -68 0 -69 0 0
510 0 510 40 0 c22 0 40 4 40 9 0 5 -45 11 -101 13 -82 2 -102 0 -109 -12 -4
-8 -70 -198 -146 -422 -76 -224 -142 -404 -145 -400 -3 4 -70 187 -149 407
-78 220 -146 407 -150 415 -7 12 -27 14 -109 12 -56 -2 -101 -8 -101 -13 0 -5
18 -9 40 -9 l40 0 0 -512 0 -513 -97 5 c-54 3 -104 9 -111 13 -31 20 -40 64
-43 208 -4 139 -6 149 -34 204 -25 50 -39 64 -83 87 l-53 28 40 16 c57 23 118
94 137 162 39 133 -38 265 -179 307 -60 18 -467 22 -467 5 0 -5 18 -10 40 -10
l40 0 0 -510 0 -511 -82 3 -82 3 -180 537 c-100 296 -183 538 -186 538 -3 0
-89 -240 -190 -532 -101 -293 -187 -538 -192 -544 -4 -6 -21 -9 -38 -6 -23 3
-30 0 -30 -12 0 -15 12 -16 95 -14 99 3 132 21 49 26 -30 2 -44 7 -41 15 2 7
28 81 57 165 l53 152 178 0 177 0 52 -157 c29 -87 53 -162 54 -167 0 -4 -28
-9 -63 -10 -41 0 -66 -5 -68 -13 -4 -10 70 -13 347 -13 277 0 351 3 348 13 -3
7 -28 13 -66 15 l-62 3 0 266 0 266 87 -7 c175 -13 212 -61 213 -271 0 -83 4
-108 24 -150 27 -60 81 -110 133 -124 57 -16 346 -14 340 2 -2 7 -21 12 -45
12 l-42 0 1 465 0 465 19 -50 c16 -42 291 -791 322 -878 6 -16 14 -25 18 -20
4 4 78 222 165 483 87 261 161 479 166 485 5 5 8 -192 7 -470 l-3 -479 -39 0
c-22 -1 -41 -7 -43 -13 -4 -10 47 -13 231 -13 203 0 236 2 236 15 0 11 -12 15
-45 15 -25 0 -45 3 -45 8 0 4 24 77 54 162 l54 155 178 0 179 0 52 -150 c28
-82 52 -157 52 -165 1 -12 -12 -15 -61 -15 -40 0 -63 -4 -65 -12 -4 -10 53
-13 262 -13 209 0 266 3 262 13 -2 6 -21 12 -43 13 l-39 0 -3 488 c-1 268 1
485 6 482 4 -2 154 -234 333 -514 l324 -509 3 538 2 539 100 0 100 0 0 -510 0
-510 -40 0 c-29 0 -40 -4 -40 -15 0 -13 20 -15 145 -13 88 2 145 7 145 13 0 6
-18 11 -40 13 l-40 3 0 510 0 509 39 0 c22 0 43 5 46 10 4 7 -82 10 -249 10
-141 0 -259 0 -263 1 -4 0 -9 -4 -11 -10 -2 -7 14 -11 42 -11 l46 0 0 -402 c0
-221 -4 -398 -8 -392 -5 5 -124 191 -265 414 l-256 405 -115 -3 c-64 -2 -116
-7 -116 -13 0 -5 20 -9 45 -9 l45 0 0 -510 0 -510 -72 0 -73 0 -179 533 c-99
292 -182 537 -185 544 -3 6 -35 -70 -70 -170z m-1813 97 c86 -36 131 -110 132
-217 0 -52 -6 -79 -24 -115 -45 -88 -104 -122 -211 -122 l-65 0 0 235 0 235
65 0 c37 0 82 -7 103 -16z m-722 -636 c5 -17 -7 -18 -165 -18 -94 0 -171 1
-171 3 0 4 157 464 166 487 5 11 100 -254 170 -472z m2627 243 c42 -131 77
-243 77 -250 0 -8 -49 -11 -165 -11 -91 0 -165 2 -165 5 0 3 36 112 80 241 44
129 80 239 80 244 0 40 25 -23 93 -229z"/>
<path d="M3263 4136 c-153 -50 -290 -214 -339 -406 -12 -46 -15 -92 -12 -169
5 -129 33 -216 102 -320 55 -82 108 -131 191 -174 56 -30 67 -32 165 -32 100
0 109 2 175 34 96 47 172 126 224 233 42 86 71 203 71 283 0 143 -76 321 -185
431 -93 94 -160 126 -270 131 -49 2 -96 -2 -122 -11z m174 -19 c102 -27 168
-111 210 -267 25 -94 25 -436 0 -530 -37 -138 -110 -236 -193 -259 -99 -28
-211 2 -269 70 -78 92 -108 220 -108 454 0 239 35 379 116 463 68 72 147 94
244 69z"/>
<path d="M5385 4137 c-22 -8 -56 -22 -75 -32 -144 -74 -267 -277 -285 -469
-21 -224 114 -481 300 -572 55 -26 69 -29 165 -29 99 0 110 2 171 32 125 62
238 213 274 365 21 90 19 228 -4 310 -47 164 -161 311 -286 370 -80 37 -191
47 -260 25z m214 -37 c79 -40 133 -127 167 -265 25 -99 25 -401 0 -500 -35
-142 -87 -222 -171 -261 -90 -42 -206 -26 -273 39 -82 79 -120 199 -129 407
-17 408 99 627 321 604 27 -3 65 -13 85 -24z"/>
<path d="M344 4121 c-13 -14 1 -21 41 -21 l45 0 0 -509 0 -510 -42 -3 c-23 -2
-43 -9 -46 -15 -3 -10 73 -13 357 -13 l361 0 0 155 c0 187 -14 209 -35 53 -8
-63 -54 -124 -113 -151 -40 -19 -69 -22 -199 -25 l-153 -4 0 251 0 251 60 0
c107 0 166 -41 185 -127 16 -76 25 -24 25 142 0 104 -4 175 -10 175 -5 0 -12
-15 -15 -34 -17 -88 -71 -126 -180 -126 l-65 0 0 245 0 245 151 0 c90 0 168
-5 192 -12 78 -23 114 -80 133 -206 12 -85 25 -25 22 107 l-3 132 -353 2
c-195 1 -356 0 -358 -2z"/>
<path d="M1120 4113 c0 -7 17 -13 40 -15 l40 -3 1 -510 0 -509 -41 3 c-31 2
-40 -1 -40 -13 0 -14 16 -16 100 -16 82 0 100 3 100 15 0 11 -12 15 -45 15
l-45 0 1 463 c0 286 4 454 9 442 5 -11 84 -225 175 -474 91 -250 168 -457 170
-459 6 -6 -14 -62 175 497 88 261 162 476 165 479 3 3 4 -210 3 -473 l-3 -479
-39 0 c-22 -1 -41 -7 -43 -13 -4 -10 63 -13 312 -13 249 0 316 3 312 13 -2 6
-21 12 -43 13 l-39 0 0 210 0 209 112 5 c102 5 117 9 179 40 46 24 79 49 101
78 99 131 75 338 -51 433 -83 63 -120 68 -481 70 l-320 1 -68 -199 c-38 -109
-103 -298 -144 -421 -42 -123 -79 -220 -83 -215 -3 4 -71 190 -150 413 -78
223 -146 409 -150 413 -12 14 -210 14 -210 0z m1138 -525 l2 -507 -101 -3
c-55 -2 -103 -1 -105 1 -2 2 -4 233 -4 513 l0 509 103 -3 102 -3 3 -507z m325
479 c77 -46 107 -117 108 -260 1 -193 -65 -275 -233 -285 l-78 -5 0 293 0 293
79 -5 c61 -4 88 -10 124 -31z"/>
<path d="M4833 4122 c-84 -1 -143 -7 -143 -12 0 -6 18 -10 40 -10 l40 0 0
-510 0 -510 -91 0 c-50 0 -99 5 -110 10 -38 21 -49 62 -49 192 -1 198 -26 264
-120 311 l-52 26 39 16 c170 71 201 311 55 422 -72 54 -120 63 -354 63 -132 0
-208 -4 -208 -10 0 -5 18 -10 40 -10 l40 0 -2 -512 -3 -513 -37 3 c-29 3 -38
0 -38 -12 0 -14 22 -16 171 -16 132 0 170 3 167 13 -3 7 -28 13 -66 15 l-62 3
0 264 0 265 43 0 c70 0 160 -19 187 -38 51 -39 62 -74 70 -220 5 -111 11 -145
28 -178 27 -53 82 -100 131 -114 51 -13 436 -9 436 5 0 6 -19 11 -42 13 l-43
3 0 510 0 509 39 0 c36 0 63 14 44 22 -5 2 -72 2 -150 0z m-575 -38 c86 -35
131 -110 132 -215 0 -151 -85 -238 -232 -239 l-68 0 0 235 0 235 65 0 c37 0
82 -7 103 -16z"/>
<path d="M6775 4105 c-20 -31 -37 -94 -31 -110 4 -12 34 -15 158 -15 141 0
155 2 171 20 13 15 29 20 67 20 60 0 64 14 21 62 l-29 33 -173 5 c-164 5 -172
4 -184 -15z"/>
<path d="M5830 4092 c0 -28 22 -67 50 -89 11 -9 92 -12 304 -13 l289 0 -55 63
-56 62 -266 3 -266 2 0 -28z"/>
<path d="M7457 4058 l-55 -63 286 -3 287 -3 33 36 c21 23 32 45 32 65 l0 30
-264 0 -264 0 -55 -62z"/>
<path d="M5985 3920 c-9 -15 21 -75 50 -98 27 -21 36 -22 306 -22 154 0 279 3
279 6 0 3 -21 32 -47 64 l-48 59 -267 0 c-160 1 -269 -3 -273 -9z"/>
<path d="M6740 3865 l0 -65 171 0 c133 0 170 3 167 13 -3 6 -13 36 -22 65
l-18 52 -149 0 -149 0 0 -65z"/>
<path d="M7298 3870 c-27 -32 -48 -61 -48 -64 0 -3 126 -6 280 -6 l280 0 35
33 c20 18 38 46 41 65 l7 32 -274 -1 -274 0 -47 -59z"/>
<path d="M6145 3739 c-11 -17 5 -62 33 -91 l26 -28 731 0 731 0 28 29 c18 19
28 41 29 63 l2 33 -262 3 -262 2 -25 -27 -25 -27 -29 27 -28 27 -176 0 -176 0
-7 -32 -7 -32 -27 32 -26 32 -262 0 c-173 0 -264 -4 -268 -11z"/>
<path d="M6300 3529 c0 -33 6 -47 34 -75 l34 -34 124 0 124 0 23 31 c44 59
114 84 162 58 15 -7 24 -7 34 1 19 15 27 -2 23 -48 l-3 -37 84 0 84 0 15 43
c7 23 17 42 21 42 3 0 13 -20 20 -45 l13 -45 203 0 203 0 31 26 c31 26 54 84
44 110 -4 12 -100 14 -639 14 l-634 0 0 -41z"/>
<path d="M6696 3469 c-14 -17 -24 -35 -20 -40 3 -5 39 -9 80 -9 82 0 90 8 53
54 -30 38 -79 36 -113 -5z"/>
<path d="M6450 3360 c0 -33 26 -86 51 -104 14 -9 43 -16 71 -16 l47 0 -10 32
c-5 18 -9 50 -9 70 l0 38 -75 0 c-69 0 -75 -2 -75 -20z"/>
<path d="M6664 3365 c-4 -9 -3 -40 1 -70 l6 -55 75 0 c72 0 74 1 74 25 0 16
-6 25 -15 25 -8 0 -15 5 -15 10 0 6 25 10 55 10 30 0 55 -4 55 -10 0 -5 -7
-10 -15 -10 -9 0 -15 -9 -15 -25 0 -23 4 -25 43 -25 l43 0 22 63 c12 34 22 65
22 70 0 4 -74 7 -165 7 -139 0 -167 -2 -171 -15z"/>
<path d="M7011 3343 c-7 -21 -15 -44 -17 -50 -4 -9 7 -13 40 -13 52 0 56 8 32
65 -19 45 -40 44 -55 -2z"/>
<path d="M7111 3373 c0 -5 10 -35 22 -68 l22 -60 98 -3 c98 -3 98 -3 126 27
28 30 46 84 35 102 -6 11 -304 12 -303 2z"/>
<path d="M6980 3250 c0 -6 27 -10 60 -10 33 0 60 4 60 10 0 6 -27 10 -60 10
-33 0 -60 -4 -60 -10z"/>
<path d="M6615 3189 c-13 -20 6 -79 36 -109 l31 -30 253 0 253 0 31 30 c30 30
49 89 36 109 -10 17 -75 14 -75 -4 0 -8 9 -15 20 -15 11 0 20 -4 20 -10 0 -6
-28 -10 -64 -10 -36 0 -68 5 -71 10 -3 6 3 10 15 10 13 0 20 5 18 13 -3 8 -31
13 -80 15 -61 2 -77 0 -81 -13 -4 -9 -1 -15 8 -15 8 0 15 -4 15 -10 0 -5 -18
-10 -40 -10 -43 0 -54 14 -18 24 17 4 20 8 11 17 -18 18 -58 7 -61 -18 -3 -22
-22 -33 -22 -13 0 15 -22 12 -60 -6 -26 -14 -39 -14 -69 -5 -21 6 -46 20 -56
31 -20 22 -40 26 -50 9z"/>
<path d="M6700 3190 c0 -20 48 -34 75 -22 40 18 29 32 -25 32 -27 0 -50 -5
-50 -10z"/>
</g>
</svg>
