<?xml version="1.0" standalone="no"?>
<!DOCTYPE svg PUBLIC "-//W3C//DTD SVG 20010904//EN"
 "http://www.w3.org/TR/2001/REC-SVG-20010904/DTD/svg10.dtd">
<svg version="1.0" xmlns="http://www.w3.org/2000/svg"
 width="500.000000pt" height="199.000000pt" viewBox="0 0 500.000000 199.000000"
 preserveAspectRatio="xMidYMid meet">

<g transform="translate(0.000000,199.000000) scale(0.100000,-0.100000)"
fill="#000000" stroke="none">
<path d="M695 1531 c-22 -10 -52 -31 -67 -47 -56 -60 -57 -67 -59 -495 l-2
-394 37 -3 c66 -6 66 -6 66 259 l0 239 173 2 172 3 3 47 3 48 -173 2 -173 3
-3 75 c-4 89 0 107 31 142 39 45 70 52 257 58 l175 5 3 38 3 37 -203 0 c-176
0 -208 -3 -243 -19z"/>
<path d="M1212 1073 l3 -478 45 0 45 0 3 478 2 477 -50 0 -50 0 2 -477z"/>
<path d="M1704 1391 c-86 -22 -209 -119 -250 -196 -26 -48 -54 -156 -54 -205
0 -58 32 -171 61 -212 45 -67 115 -130 179 -161 60 -30 72 -32 166 -32 64 0
112 5 130 14 16 7 44 20 62 29 70 33 182 163 182 209 0 9 -16 13 -50 13 -47 0
-51 -2 -74 -38 -57 -91 -127 -126 -251 -126 -80 0 -96 4 -138 28 -83 47 -137
118 -152 198 l-7 38 348 2 349 3 -2 69 c-2 62 -24 143 -45 171 -81 104 -110
131 -187 170 -44 22 -70 27 -145 31 -50 2 -105 0 -122 -5z m244 -127 c61 -31
92 -63 126 -128 49 -92 67 -86 -270 -86 l-296 0 6 28 c25 99 113 186 219 213
56 14 161 1 215 -27z"/>
<path d="M3043 1390 c-101 -21 -225 -133 -256 -231 -18 -60 -24 -211 -8 -251
47 -121 52 -129 128 -205 85 -85 181 -116 303 -98 41 7 89 18 105 26 54 25
124 81 148 118 12 19 29 47 38 62 29 45 52 162 45 221 -7 54 -20 87 -31 77 -3
-4 -1 -26 4 -51 13 -57 -2 -154 -33 -223 -31 -69 -79 -121 -140 -153 -44 -23
-63 -27 -141 -27 -106 0 -153 19 -232 94 -70 67 -104 127 -124 221 -34 158 37
313 170 373 67 30 171 28 236 -4 95 -47 171 -144 201 -254 41 -152 -31 -292
-169 -329 -55 -14 -67 -15 -108 -2 -66 20 -99 39 -136 78 -37 38 -80 121 -89
170 -13 68 -36 85 -67 50 -22 -25 -12 -122 19 -184 52 -102 123 -156 235 -176
185 -35 347 106 357 309 4 67 0 84 -28 152 -38 91 -113 172 -197 212 -60 28
-163 39 -230 25z"/>
<path d="M3883 1390 c-97 -14 -194 -91 -242 -190 l-26 -55 0 -275 0 -275 24
-3 c12 -2 34 -1 47 2 l24 6 0 243 c0 136 5 258 10 279 15 53 69 119 120 147
34 19 60 25 110 25 100 1 174 -44 221 -134 23 -44 24 -53 25 -296 1 -139 4
-257 8 -263 11 -17 83 -14 90 5 11 29 6 459 -6 519 -6 32 -22 78 -35 101 -30
54 -103 121 -156 144 -51 22 -144 30 -214 20z"/>
<path d="M2160 1368 c0 -6 11 -25 23 -42 13 -17 53 -74 89 -126 35 -52 81
-119 101 -148 21 -29 35 -58 31 -65 -4 -7 -45 -70 -92 -142 -47 -71 -100 -153
-119 -181 -18 -28 -33 -56 -33 -63 0 -7 19 -11 50 -11 47 0 51 2 80 43 16 23
33 47 37 52 5 6 37 56 72 113 35 56 69 102 75 102 9 0 66 -83 139 -205 7 -10
18 -25 25 -33 6 -7 12 -17 12 -21 0 -4 9 -17 20 -29 16 -17 32 -22 70 -22 27
0 51 4 54 9 3 5 -11 34 -32 64 -20 30 -75 110 -121 178 -46 68 -88 125 -92
127 -17 7 -9 34 24 79 17 25 39 56 47 69 26 39 93 136 139 199 l43 60 -58 3
c-54 3 -61 1 -82 -25 -31 -38 -28 -34 -107 -155 -38 -59 -74 -107 -80 -107 -5
0 -55 65 -110 144 l-100 144 -52 1 c-34 0 -53 -4 -53 -12z"/>
<path d="M4281 1347 c-13 -17 -1 -31 29 -35 18 -1 21 1 11 7 -7 5 -11 13 -7
19 9 15 -21 23 -33 9z"/>
</g>
</svg>
