<?xml version="1.0" standalone="no"?>
<!DOCTYPE svg PUBLIC "-//W3C//DTD SVG 20010904//EN"
 "http://www.w3.org/TR/2001/REC-SVG-20010904/DTD/svg10.dtd">
<svg version="1.0" xmlns="http://www.w3.org/2000/svg"
 width="5000.000000pt" height="2833.000000pt" viewBox="0 0 5000.000000 2833.000000"
 preserveAspectRatio="xMidYMid meet">

<g transform="translate(0.000000,2833.000000) scale(0.100000,-0.100000)"
fill="#000000" stroke="none">
<path d="M7914 18220 c-107 -9 -292 -43 -389 -72 -80 -23 -258 -90 -265 -99
-3 -3 -50 -30 -105 -59 -169 -90 -220 -129 -389 -295 -102 -101 -206 -220
-206 -236 0 -12 -48 -86 -80 -124 -48 -57 -168 -370 -186 -487 -4 -21 -10 -38
-14 -38 -12 0 -42 -212 -50 -355 -10 -174 -10 -4253 0 -4425 8 -135 35 -320
50 -349 5 -9 23 -66 40 -128 46 -167 127 -357 174 -408 13 -14 32 -41 41 -60
22 -47 131 -191 150 -199 8 -3 15 -10 15 -15 0 -15 150 -159 183 -177 15 -8
27 -19 27 -24 0 -13 115 -93 199 -138 40 -22 82 -47 93 -56 10 -9 34 -23 51
-31 151 -65 284 -108 417 -135 83 -17 136 -20 425 -20 285 0 342 3 415 19 134
29 209 51 285 81 39 15 84 33 102 40 17 6 62 32 100 56 37 24 72 44 77 44 16
0 170 107 231 161 102 89 195 176 195 183 0 4 24 37 53 74 30 37 65 88 80 114
14 26 36 57 48 69 31 31 106 195 147 324 19 60 38 112 42 115 13 9 50 196 65
333 22 197 22 4486 0 4683 -15 135 -52 325 -65 334 -4 3 -15 32 -24 65 -36
128 -129 335 -173 386 -17 19 -38 50 -48 69 -46 90 -241 305 -332 366 -29 19
-53 39 -53 43 0 12 -141 103 -234 150 -44 23 -82 45 -85 49 -17 23 -277 107
-426 137 -195 39 -385 51 -581 35z m339 -1124 c115 -19 265 -91 358 -173 111
-98 191 -256 219 -433 14 -90 14 -4380 0 -4470 -14 -89 -56 -216 -88 -269 -15
-25 -34 -56 -42 -71 -26 -44 -147 -147 -208 -177 -31 -15 -59 -31 -62 -35 -11
-15 -115 -45 -199 -58 -99 -15 -275 -8 -369 15 -75 18 -231 101 -287 153 -112
103 -176 214 -216 372 l-24 95 0 2205 0 2205 24 100 c27 112 71 214 110 256
14 16 37 43 50 61 35 48 104 101 180 140 36 18 68 36 71 39 3 3 23 12 45 19
117 39 291 49 438 26z"/>
<path d="M43285 18219 c-114 -12 -225 -35 -335 -70 -89 -29 -223 -84 -245
-102 -14 -11 -125 -77 -160 -95 -42 -22 -120 -85 -151 -122 -15 -17 -39 -37
-55 -46 -16 -8 -63 -56 -105 -107 -42 -50 -90 -108 -106 -127 -37 -44 -128
-200 -159 -274 -12 -31 -26 -56 -30 -56 -11 0 -56 -130 -85 -243 -50 -196 -55
-257 -60 -674 l-5 -393 550 0 551 0 1 333 c0 182 2 352 5 377 8 75 25 150 33
150 4 0 13 19 20 42 25 82 107 179 180 214 19 9 41 23 49 30 25 25 117 45 232
51 97 5 128 2 200 -16 47 -11 90 -28 96 -36 6 -8 19 -15 28 -15 9 0 45 -28 79
-63 45 -44 70 -80 87 -122 13 -33 27 -62 31 -65 17 -12 40 -142 50 -290 13
-174 6 -640 -11 -760 -13 -93 -31 -173 -40 -180 -3 -3 -14 -34 -24 -70 -29
-104 -150 -381 -176 -400 -3 -3 -46 -85 -95 -184 -49 -98 -94 -183 -100 -190
-6 -6 -51 -91 -99 -189 -49 -98 -94 -183 -100 -190 -7 -7 -54 -96 -104 -199
-51 -102 -96 -188 -100 -190 -5 -1 -49 -84 -97 -182 -49 -99 -98 -195 -111
-213 -12 -18 -57 -104 -100 -190 -43 -87 -88 -173 -101 -191 -12 -19 -57 -104
-99 -190 -43 -86 -81 -159 -85 -162 -4 -3 -49 -88 -100 -190 -52 -102 -97
-187 -100 -190 -4 -3 -46 -83 -94 -178 -48 -95 -92 -178 -98 -185 -7 -7 -43
-77 -82 -156 -38 -79 -85 -169 -103 -200 -19 -31 -65 -118 -103 -193 l-69
-136 0 -516 c0 -284 3 -516 8 -517 4 -1 748 -2 1655 -3 1562 -1 1647 0 1647
17 0 22 0 1084 0 1097 0 7 -338 10 -995 10 -606 0 -995 4 -995 9 0 5 7 16 15
24 13 14 178 343 179 359 1 4 9 17 20 29 10 13 57 104 104 203 47 100 91 186
98 192 7 6 53 94 102 195 48 101 100 203 115 227 16 24 61 112 101 195 39 84
82 168 94 187 12 19 54 99 92 178 39 79 96 192 128 250 32 59 82 159 112 222
30 63 58 117 62 120 4 3 49 89 99 190 50 102 94 187 98 190 5 5 103 198 106
210 2 11 88 175 94 180 10 8 86 158 141 280 29 63 56 117 59 120 4 3 24 50 43
105 104 288 128 475 128 1005 0 400 -16 574 -75 825 -25 108 -83 287 -94 295
-4 3 -32 57 -61 120 -47 103 -106 202 -147 249 -7 9 -30 36 -50 61 -88 112
-271 274 -337 300 -11 4 -38 20 -59 34 -57 39 -105 62 -203 96 -234 82 -534
116 -789 89z"/>
<path d="M1360 14255 l0 -3915 545 0 545 0 2 1668 3 1667 963 3 962 2 0 530 0
530 -965 0 -965 0 0 1185 0 1185 1110 0 1110 0 0 530 0 530 -1655 0 -1655 0 0
-3915z"/>
<path d="M17310 14255 l0 -3915 1660 0 1660 0 0 555 0 555 -1110 0 -1110 0 0
1160 0 1160 965 0 965 0 0 520 0 520 -965 0 -965 0 0 1150 0 1150 1098 0 1097
0 -1 522 c-1 288 -2 526 -3 531 -1 4 -741 7 -1646 7 l-1645 0 0 -3915z"/>
<path d="M25031 18107 c-6 -35 -11 -71 -11 -79 0 -9 -4 -18 -8 -20 -4 -1 -34
-169 -65 -373 -96 -611 -131 -820 -137 -825 -3 -3 -48 -273 -99 -600 -52 -327
-98 -602 -102 -610 -5 -8 -49 -276 -99 -595 -50 -319 -95 -589 -100 -600 -5
-11 -50 -281 -100 -600 -50 -319 -95 -589 -100 -600 -5 -11 -25 -126 -45 -255
-35 -221 -45 -264 -58 -243 -5 8 -60 348 -82 503 -4 25 -11 54 -16 65 -5 11
-18 79 -29 150 -10 72 -48 317 -84 545 -36 228 -68 435 -71 460 -4 25 -11 54
-16 65 -7 18 -34 176 -85 520 -8 55 -35 225 -59 378 -25 153 -45 289 -45 302
0 13 -4 25 -8 27 -5 2 -27 125 -50 273 -23 149 -47 297 -52 330 -24 143 -79
505 -85 558 -4 31 -11 57 -15 57 -4 0 -12 35 -18 78 -6 42 -36 237 -67 432
-31 195 -67 432 -81 525 -15 94 -28 172 -30 175 -3 2 -266 4 -586 5 -446 0
-582 -3 -585 -12 -4 -11 17 -130 67 -383 11 -52 38 -192 60 -310 22 -118 45
-222 50 -231 5 -9 25 -102 45 -205 19 -104 42 -220 50 -259 8 -38 16 -81 19
-95 27 -156 82 -426 87 -430 4 -3 13 -34 19 -70 6 -36 29 -153 50 -260 21
-107 57 -294 80 -415 23 -121 45 -227 50 -236 8 -15 60 -276 152 -754 17 -93
35 -172 39 -175 3 -3 18 -68 33 -145 116 -608 158 -823 166 -840 10 -22 27
-105 125 -615 36 -190 70 -354 75 -365 9 -17 38 -160 95 -460 72 -382 100
-521 105 -525 4 -3 22 -81 39 -175 18 -93 57 -292 86 -442 30 -149 57 -292 60
-317 4 -26 11 -49 16 -52 5 -3 9 -14 9 -25 0 -19 10 -19 497 -17 l497 3 28
140 c37 191 115 598 138 722 11 56 24 110 29 120 6 10 36 151 67 313 114 602
124 655 133 675 6 11 32 137 60 280 27 143 66 346 87 450 20 105 40 191 45
193 5 2 9 12 9 22 0 10 16 98 35 197 19 98 59 308 90 467 31 158 60 295 65
305 5 9 25 104 46 211 94 503 144 757 153 775 5 11 26 103 45 205 20 102 61
315 91 473 31 158 60 296 65 305 5 9 27 116 50 237 22 121 45 238 50 260 5 22
27 138 50 259 23 120 45 226 50 235 7 13 35 144 54 251 2 14 34 179 70 367 36
188 66 347 66 353 0 7 -189 10 -574 10 l-574 0 -11 -63z"/>
<path d="M27870 14255 l0 -3915 1660 0 1660 0 0 555 0 555 -1110 0 -1110 0 0
1160 0 1160 965 0 965 0 0 520 0 520 -965 0 -965 0 0 1150 0 1150 1110 0 1110
0 0 530 0 530 -1660 0 -1660 0 0 -3915z"/>
<path d="M46508 18158 c-3 -11 -2 -1114 1 -1170 1 -17 34 -18 556 -18 l555 0
0 -3315 0 -3315 550 0 550 0 0 3915 0 3915 -1104 0 c-874 0 -1105 -3 -1108
-12z"/>
<path d="M11777 18152 c-16 -3 -17 -261 -17 -3908 l0 -3904 555 0 555 0 0
1670 0 1670 328 0 327 0 54 -182 c29 -101 59 -196 67 -213 7 -16 27 -76 43
-132 17 -57 44 -147 60 -200 16 -54 44 -150 62 -213 17 -63 38 -124 44 -135
11 -18 30 -78 105 -340 62 -217 85 -291 90 -295 7 -5 32 -80 43 -125 2 -11 21
-75 41 -142 20 -68 52 -178 72 -245 20 -68 39 -127 44 -133 4 -5 26 -75 50
-155 88 -302 117 -397 179 -585 16 -49 39 -125 52 -167 l22 -78 588 0 c324 0
589 3 589 6 0 16 -83 270 -90 274 -6 4 -45 121 -172 520 -12 36 -24 67 -27 70
-4 3 -46 129 -95 280 -48 151 -96 293 -107 315 -10 22 -56 157 -100 300 -45
143 -85 262 -88 265 -6 5 -118 341 -172 514 -11 38 -27 79 -34 90 -7 12 -52
147 -100 301 -49 154 -92 282 -96 285 -4 3 -29 71 -54 150 -25 80 -50 157 -55
172 -8 24 -4 29 50 62 32 20 61 36 64 36 10 0 111 74 119 88 5 7 27 27 50 43
64 46 167 142 167 155 0 7 17 27 38 45 49 44 90 98 153 205 29 49 56 91 60 94
28 19 141 328 175 480 9 41 20 80 24 85 10 13 37 191 51 335 15 167 12 607 -5
788 -19 194 -37 312 -48 312 -4 0 -8 10 -8 21 0 98 -159 599 -190 599 -4 0
-10 10 -14 23 -3 12 -27 58 -53 102 -26 44 -54 92 -62 106 -7 15 -28 42 -45
60 -18 19 -69 76 -115 127 -45 50 -87 92 -92 92 -5 0 -45 29 -89 65 -92 76
-231 152 -367 201 -54 19 -102 39 -108 44 -32 26 -345 84 -525 96 -102 7
-1959 12 -1993 6z m1985 -1070 c47 -11 95 -25 105 -31 10 -5 47 -23 83 -40
140 -66 175 -97 261 -226 119 -178 156 -366 166 -845 10 -517 -31 -792 -144
-952 -85 -123 -142 -176 -237 -223 -172 -84 -207 -89 -713 -93 l-443 -3 0
1221 0 1222 418 -5 c376 -4 426 -7 504 -25z"/>
<path d="M32930 18152 c-7 -3 -10 -1314 -10 -3908 l0 -3904 555 0 555 0 0
1670 0 1670 328 0 327 0 24 -82 c13 -46 30 -108 39 -138 8 -30 18 -57 22 -60
7 -4 47 -134 110 -355 62 -218 84 -291 91 -295 6 -4 32 -86 89 -285 72 -249
93 -317 110 -350 11 -22 20 -45 20 -53 0 -8 11 -51 25 -96 13 -44 37 -126 54
-181 72 -247 85 -290 91 -295 5 -4 47 -141 162 -535 16 -55 33 -108 39 -118
10 -18 36 -100 82 -262 15 -49 36 -123 48 -162 l21 -73 590 0 c468 0 589 3
585 13 -2 6 -30 95 -62 197 -32 102 -61 187 -65 190 -4 3 -16 34 -28 70 -93
293 -165 509 -176 530 -7 14 -53 151 -101 305 -49 154 -91 282 -95 285 -10 8
-166 481 -186 563 -3 15 -10 30 -15 32 -4 3 -31 79 -59 168 -80 252 -129 400
-144 427 -7 14 -53 151 -102 305 -48 154 -91 282 -95 285 -7 5 -54 148 -61
184 -2 14 13 27 64 55 182 99 476 382 562 541 10 19 24 40 31 45 34 29 130
241 171 379 13 43 28 84 33 90 25 31 73 316 92 550 15 191 6 663 -15 841 -21
165 -66 405 -76 405 -5 0 -11 15 -15 33 -12 62 -76 253 -115 344 -22 50 -67
132 -100 182 -33 49 -60 94 -60 98 0 4 -25 39 -55 77 -30 38 -55 65 -55 61 0
-4 -20 17 -44 47 -42 52 -156 156 -156 143 0 -7 -72 48 -103 78 -24 24 -249
134 -302 148 -22 6 -63 21 -91 34 -86 41 -309 83 -534 101 -83 7 -1980 12
-2000 6z m1985 -1070 c50 -11 104 -27 120 -35 17 -8 65 -31 107 -52 76 -35
188 -125 188 -149 0 -7 11 -22 25 -34 49 -43 119 -219 144 -367 34 -192 47
-548 32 -815 -23 -377 -76 -576 -191 -710 -77 -90 -112 -119 -187 -155 -181
-86 -253 -95 -744 -95 l-399 0 0 1221 0 1221 408 -5 c359 -4 418 -7 497 -25z"/>
</g>
</svg>
