<?xml version="1.0" standalone="no"?>
<!DOCTYPE svg PUBLIC "-//W3C//DTD SVG 20010904//EN"
 "http://www.w3.org/TR/2001/REC-SVG-20010904/DTD/svg10.dtd">
<svg version="1.0" xmlns="http://www.w3.org/2000/svg"
 width="2048.000000pt" height="2048.000000pt" viewBox="0 0 2048.000000 2048.000000"
 preserveAspectRatio="xMidYMid meet">

<g transform="translate(0.000000,2048.000000) scale(0.100000,-0.100000)"
fill="#000000" stroke="none">
<path d="M0 10240 l0 -10240 10240 0 10240 0 0 10240 0 10240 -10240 0 -10240
0 0 -10240z m5430 5172 c195 -52 381 -138 584 -271 145 -94 194 -57 196 147
l0 72 100 0 100 0 0 -1610 0 -1610 -99 0 -98 0 -7 31 c-3 17 -6 75 -6 129 0
131 -25 440 -56 680 -128 1016 -393 1821 -702 2128 -110 110 -199 153 -320
154 -209 1 -334 -167 -387 -517 -13 -88 -15 -643 -15 -4581 0 -4390 0 -4482
19 -4556 78 -305 321 -472 586 -403 186 49 332 212 379 422 14 65 16 287 16
2187 l0 2116 -245 0 -245 0 0 85 0 85 855 0 855 0 0 -85 0 -85 -205 0 -205 0
0 -2415 0 -2415 -99 0 -98 0 -6 56 c-7 69 -48 157 -87 184 -69 49 -97 41 -331
-101 -294 -177 -477 -228 -779 -216 -705 29 -1061 385 -1177 1177 -16 106 -17
428 -21 4075 -2 2802 0 3995 8 4080 21 231 79 424 178 589 55 93 198 244 287
303 149 100 330 166 540 197 17 2 107 3 200 1 153 -2 181 -5 285 -33z m5035
-64 c3 -11 1125 -10030 1125 -10051 0 -4 101 -7 225 -7 l225 0 0 -85 0 -85
-850 0 -850 0 0 85 0 85 225 0 225 0 -1 23 c0 12 -102 918 -227 2012 l-227
1990 -520 0 -519 0 -203 -1800 c-144 -1276 -201 -1816 -197 -1855 10 -87 40
-155 99 -219 79 -85 175 -127 333 -146 l52 -7 0 -84 0 -84 -635 0 -635 0 0 85
c0 47 3 85 8 85 4 0 50 5 102 10 228 22 347 100 410 267 11 30 32 112 45 181
16 81 216 1865 545 4861 287 2604 523 4738 526 4743 3 4 165 8 360 8 275 0
356 -3 359 -12z m4950 -8 c414 -46 734 -201 918 -442 111 -146 177 -319 197
-516 8 -74 10 -727 8 -2157 -4 -2251 0 -2082 -63 -2251 -80 -212 -268 -407
-498 -514 -245 -114 -408 -140 -904 -140 l-353 0 0 -2015 0 -2015 320 0 320 0
0 -90 0 -90 -952 2 -953 3 -3 88 -3 87 226 0 225 0 0 4950 0 4950 -225 0 -225
0 0 80 0 80 938 0 c560 0 973 -4 1027 -10z"/>
<path d="M9567 11733 c-132 -1176 -241 -2157 -244 -2180 l-6 -43 498 0 498 0
-6 43 c-3 23 -115 1004 -248 2180 -134 1175 -246 2137 -249 2137 -3 0 -112
-962 -243 -2137z"/>
<path d="M14720 12354 l0 -2836 293 4 c270 4 296 6 351 26 172 64 292 206 343
407 17 66 18 194 18 2360 0 1870 -2 2302 -13 2355 -42 202 -168 382 -322 460
-100 51 -166 60 -432 60 l-238 0 0 -2836z"/>
</g>
</svg>
