<?xml version="1.0" standalone="no"?>
<!DOCTYPE svg PUBLIC "-//W3C//DTD SVG 20010904//EN"
 "http://www.w3.org/TR/2001/REC-SVG-20010904/DTD/svg10.dtd">
<svg version="1.0" xmlns="http://www.w3.org/2000/svg"
 width="500.000000pt" height="231.000000pt" viewBox="0 0 500.000000 231.000000"
 preserveAspectRatio="xMidYMid meet">

<g transform="translate(0.000000,231.000000) scale(0.100000,-0.100000)"
fill="#000000" stroke="none">
<path d="M570 1514 c-107 -21 -195 -78 -247 -160 -153 -240 -4 -547 275 -571
110 -9 236 30 304 94 24 23 26 33 30 113 2 69 7 92 22 109 l19 21 -91 0 c-51
0 -92 -2 -92 -4 0 -2 7 -17 15 -32 9 -17 15 -56 15 -96 0 -78 -15 -102 -94
-143 -59 -30 -124 -33 -181 -6 -53 25 -88 63 -122 136 -26 55 -28 70 -28 175
0 105 3 120 28 175 34 72 69 111 122 136 117 54 274 -15 356 -155 l29 -51 -2
75 -3 74 -42 32 c-78 59 -222 95 -313 78z"/>
<path d="M2650 1504 c-158 -43 -262 -183 -262 -354 0 -282 293 -451 557 -321
89 44 112 73 119 151 l7 65 -22 -39 c-50 -92 -169 -172 -271 -183 -142 -14
-249 106 -265 297 -11 128 46 270 131 328 41 27 57 32 105 32 115 0 201 -52
273 -165 l38 -60 0 68 c0 65 -2 71 -32 99 -90 84 -245 118 -378 82z"/>
<path d="M3760 1504 c-136 -37 -231 -143 -260 -292 -22 -111 18 -240 100 -322
128 -128 355 -141 508 -30 51 37 58 50 66 125 l6 60 -20 -36 c-30 -56 -104
-125 -168 -156 -46 -23 -70 -28 -129 -28 -100 0 -143 30 -198 140 -39 77 -40
81 -40 185 0 104 1 108 40 185 51 101 96 137 184 143 86 6 150 -18 215 -82 30
-28 64 -72 77 -96 l24 -45 3 57 c4 75 -13 105 -80 145 -99 60 -218 77 -328 47z"/>
<path d="M1375 1460 c12 -23 15 -72 15 -260 0 -246 5 -277 53 -328 53 -58 188
-99 280 -87 76 11 149 41 187 78 61 59 64 76 68 347 3 206 6 248 19 263 15 16
13 17 -36 17 -52 0 -52 0 -37 -22 13 -19 16 -61 16 -263 0 -231 -1 -242 -23
-280 -14 -24 -40 -50 -67 -65 -38 -21 -58 -25 -130 -25 -75 0 -91 3 -132 27
-32 19 -52 41 -67 71 -19 40 -21 60 -21 271 0 184 3 233 15 256 l16 30 -86 0
-86 0 16 -30z"/>
<path d="M4574 1468 c14 -19 16 -68 16 -333 0 -265 -2 -314 -16 -333 l-15 -22
85 0 c47 0 86 2 86 4 0 2 -7 17 -15 32 -22 43 -22 595 0 638 8 15 15 30 15 32
0 2 -39 4 -86 4 l-85 0 15 -22z"/>
</g>
</svg>
