<?xml version="1.0" encoding="UTF-8"?>
<!DOCTYPE svg  PUBLIC '-//W3C//DTD SVG 20010904//EN'  'http://www.w3.org/TR/2001/REC-SVG-20010904/DTD/svg10.dtd'>
<svg width="3840pt" height="2160pt" version="1.0" viewBox="0 0 3840 2160" xmlns="http://www.w3.org/2000/svg">
 <metadata>Created by potrace 1.16, written by Peter Selinger 2001-2019</metadata>
 <g transform="translate(0 2160) scale(.1 -.1)">
  <path d="m7280 13649c-366-40-696-136-1025-299-715-353-1214-964-1440-1760-133-470-140-1029-20-1510 242-965 928-1699 1870-2e3 290-92 520-129 850-137 457-11 810 49 1205 204 644 253 1143 712 1445 1328 210 429 305 836 305 1310 0 386-43 657-160 998-142 418-356 764-656 1063-426 425-961 686-1608 785-151 24-619 34-766 18zm649-963c153-29 362-94 377-117 3-5 13-9 22-9 29 0 232-118 332-193 298-223 537-574 645-947 64-221 79-344 80-625 0-218-3-266-23-378-113-626-458-1100-987-1357-238-116-491-170-789-170-498 0-936 182-1272 530-326 338-506 788-521 1306-18 611 165 1104 551 1489 266 264 583 422 966 480 127 19 500 14 619-9z"/>
  <path d="m24867 13644c-370-43-781-172-1093-345-477-265-871-670-1114-1149-78-155-123-261-174-412-254-759-188-1604 181-2308 324-618 877-1093 1543-1323 239-83 410-121 669-152 164-19 489-19 672 0 567 60 1097 273 1519 611 294 237 579 602 742 951 261 561 344 1195 237 1813-140 814-607 1511-1284 1917-369 222-809 363-1255 403-155 14-498 10-643-6zm733-968c174-38 285-77 430-152 224-117 392-252 543-438 301-369 439-778 440-1296 0-213-18-356-68-555-148-583-568-1053-1110-1244-386-137-893-133-1253 10-557 221-966 700-1110 1299-43 176-57 308-56 510 1 264 32 464 105 684 196 585 659 1024 1230 1165 165 41 261 50 499 47 198-3 240-7 350-30z"/>
  <path d="m297 13553c-4-3-7-210-7-460v-453l26-10c16-6 368-10 935-10h909v-2275c0-2262 0-2275 20-2295 19-19 33-20 480-20s461 1 480 20c20 20 20 33 20 2295v2275h900c887 0 900 0 920 20 19 19 20 33 20 451 0 277-4 437-10 450-11 19-47 19-2349 19-1286 0-2341-3-2344-7z"/>
  <path d="m10790 13541c-7-14-10-886-10-2745 0-2713 0-2726 20-2746 19-19 33-20 485-20s466 1 485 20c20 20 20 34 20 1883l1 1862 49-130c27-71 252-677 501-1345 611-1643 689-1854 772-2079 59-158 76-195 95-202 28-11 509-11 536 0 13 5 33 44 61 117 23 60 110 289 194 509 171 448 368 964 584 1530 80 209 216 565 302 790 86 226 191 501 233 612l77 203 5-1870c4-1514 7-1871 18-1882 10-10 114-14 482-16 460-3 470-2 490 18s20 21 20 2739c0 1743-4 2729-10 2745l-10 26h-689c-539 0-691-3-698-12-6-7-53-125-106-263-53-137-163-425-245-640-291-758-712-1854-837-2180-69-181-130-334-134-338-5-5-156 387-336 870-701 1874-951 2538-958 2551-6 9-157 12-697 12-671 0-690-1-700-19z"/>
  <path d="m18220 13541c-7-14-10-886-10-2745 0-2713 0-2726 20-2746 19-19 33-20 478-20 398 0 460 2 480 16l22 15v1040 1039h1425c1412 0 1425 0 1445 20 19 19 20 33 20 450s-1 431-20 450c-20 20-33 20-1445 20h-1425v770 770h1540c1527 0 1540 0 1560 20 19 19 20 33 20 444 0 252-4 435-10 450l-10 26h-2039c-2007 0-2040 0-2051-19z"/>
  <path d="m28417 13553c-4-3-7-1243-7-2755v-2748l26-10c15-6 209-10 480-10 441 0 455 1 474 20 20 20 20 33 20 1055v1035l576-2 577-3 89-140c49-77 110-174 137-215s106-165 176-275 142-222 160-250c18-27 110-171 205-320 95-148 187-292 205-320 18-27 94-147 169-265 172-270 188-292 217-307 31-16 1100-19 1130-3 10 6 19 21 19 33s-87 157-193 322c-986 1532-1239 1926-1236 1928 2 2 57 20 121 40 145 47 312 128 432 210 111 75 272 235 344 339 216 316 318 766 272 1208-30 284-129 564-270 763-79 109-239 264-350 338-268 178-628 292-1030 329-127 11-2732 15-2743 3zm2588-947c379-48 594-166 706-388 38-76 57-160 65-288 14-235-58-425-218-577-130-122-295-198-532-245-107-21-137-22-863-26l-753-3v770 770l28 3c15 2 344 2 732 1 584-1 727-4 835-17z"/>
  <path d="m33141 13541c-8-14-11-846-11-2745v-2726l21-21c20-20 20-20 1167-16 1243 4 1228 3 1545 62 469 86 946 300 1283 576 101 82 271 252 353 353 296 363 494 826 577 1346 25 163 31 587 10 776-61 543-259 1035-572 1423-378 469-958 799-1634 930-287 56-242 54-1532 58-1184 4-1197 4-1207-16zm2314-930c558-69 981-315 1265-736 151-224 246-486 285-788 17-137 20-457 5-574-59-441-210-764-484-1038-270-269-567-411-1006-481-88-14-211-17-747-21l-643-5v1825 1826l28 3c75 8 1216-1 1297-11z"/>
 </g>
</svg>
