<?xml version="1.0" encoding="UTF-8"?>
<!DOCTYPE svg  PUBLIC '-//W3C//DTD SVG 20010904//EN'  'http://www.w3.org/TR/2001/REC-SVG-20010904/DTD/svg10.dtd'>
<svg width="1152pt" height="378pt" version="1.0" viewBox="0 0 1152 378" xmlns="http://www.w3.org/2000/svg">
 <metadata>Created by potrace 1.16, written by Peter Selinger 2001-2019</metadata>
 <g transform="translate(0 378) scale(.1 -.1)">
  <path d="m3770 3676c-570-103-924-433-1056-987-16-67-18-149-21-824-5-834-4-851 61-1042 97-289 268-490 531-625 357-183 802-216 1186-88 461 153 737 472 836 965 16 82 18 156 18 810 0 710 0 721-23 822-58 264-159 460-319 618-163 163-385 276-655 336-120 27-443 35-558 15zm371-690c176-38 297-156 358-349l26-82 3-653c2-558 1-666-13-745-31-183-121-314-263-385-74-36-78-37-212-40-103-3-152 0-201 12-163 42-287 173-334 354-26 102-35 285-35 752s10 675 35 775c49 190 177 325 345 361 76 17 212 16 291 0z"/>
  <path d="m9986 3679c-363-38-660-173-832-378-105-125-183-299-215-481-19-108-17-364 5-473 35-181 99-317 199-423 182-195 449-302 950-379 333-51 469-113 542-246 29-52 30-59 30-184s-1-132-30-183c-79-144-224-211-451-212-129 0-205 14-277 52-141 76-227 250-227 464 0 110 21 104-390 104-433 0-395 18-387-179 19-471 201-806 530-971 98-49 264-103 387-125 142-26 472-31 626-11 496 65 811 280 944 645 58 159 65 206 65 451 0 213-1 230-27 320-49 176-107 279-220 386-180 173-443 274-898 344-308 48-423 87-512 173-66 64-82 112-83 252 0 108 3 125 24 170 79 160 269 235 523 206 123-14 189-44 259-118 83-87 120-199 135-407 10-148-24-136 394-136 436 0 396-20 386 196-22 519-188 841-521 1007-231 115-606 170-929 136z"/>
  <path d="m90 3620c-19-19-20-33-20-330s1-311 20-330 33-20 400-20h380v-1405c0-1392 0-1405 20-1425 19-19 33-20 375-20s356 1 375 20c20 20 20 33 20 1425v1405h385c372 0 386 1 405 20s20 33 20 330-1 311-20 330c-20 20-33 20-1180 20s-1160 0-1180-20z"/>
  <path d="m5910 3620c-20-20-20-33-20-1297 0-1341 1-1378 45-1548 53-201 114-314 240-440 102-102 201-161 360-214 328-109 829-120 1185-25 199 52 329 123 450 244 116 117 177 225 229 412 55 195 54 161 58 1555l4 1292-20 20c-20 20-31 21-381 21-347 0-361-1-380-20-20-20-20-33-20-1267 0-1348 1-1323-53-1430-14-27-46-68-72-92-90-83-183-106-407-99-127 4-163 9-210 27-71 27-155 102-186 164-52 105-52 86-52 1430 0 1234 0 1247-20 1267-19 19-33 20-375 20s-356-1-375-20z"/>
 </g>
</svg>
